<?xml version="1.0" encoding="utf-8"?>
<svg xml:space="preserve" viewBox="0 0 100 100" y="0" x="0" xmlns="http://www.w3.org/2000/svg" id="圖層_1" version="1.1" style="height: 100%; width: 100%; background: none; shape-rendering: auto; animation-play-state: running; animation-delay: 0s;" width="300px" height="300px"><g class="ldl-scale" style="transform-origin: 50% 50%; transform: rotate(0deg) scale(1, 1); animation-play-state: running; animation-delay: 0s;"><g class="ldl-ani" style=""><g class="ldl-layer" style="animation-play-state: running; animation-delay: 0s;"><g class="ldl-ani" style="transform-origin: 50px 50px; transform: matrix(0.01, 0, 0, 0.01, 0, 0); animation: 1s linear 0s 1 alternate forwards running zoom-in-31c248d4-d54b-44c0-b697-cf6f6a2091ba;"><path fill="#849b87" d="M89.542 22.024c-3.936-3.935-10.342-3.936-14.28 0l-34.53 34.529L24.739 40.56c-3.938-3.936-10.342-3.936-14.28 0A10.03 10.03 0 0 0 7.5 47.701c0 2.698 1.05 5.234 2.958 7.141l23.133 23.133a10.036 10.036 0 0 0 7.141 2.957 10.04 10.04 0 0 0 7.14-2.956l41.67-41.67c1.908-1.907 2.958-4.443 2.958-7.141s-1.05-5.234-2.958-7.141z" style="fill: rgb(22, 202, 131); animation-play-state: running; animation-delay: 0s;"></path></g></g><metadata xmlns:d="https://loading.io/stock/" style="animation-play-state: running; animation-delay: 0s;">
<d:name style="animation-play-state: running; animation-delay: 0s;">check</d:name>
<d:tags style="animation-play-state: running; animation-delay: 0s;">ok,select,choice,circle,option,enable,on,check,form</d:tags>
<d:license style="animation-play-state: running; animation-delay: 0s;">by</d:license>
<d:slug style="animation-play-state: running; animation-delay: 0s;">3yflsb</d:slug>
</metadata></g></g><style id="zoom-in-31c248d4-d54b-44c0-b697-cf6f6a2091ba" data-anikit="">@keyframes zoom-in-31c248d4-d54b-44c0-b697-cf6f6a2091ba
{
  0% {
    animation-timing-function: cubic-bezier(0.0436,0.6939,0.3878,0.8531);
    transform: matrix(0.01,0,0,0.01,0,0);
  }
  100% {
    transform: matrix(1,0,0,1,0,0);
  }
}</style><!-- [ldio] generated by https://loading.io/ --></svg>