<svg width="24" height="24" viewBox="0 0 24 24" fill="none" xmlns="http://www.w3.org/2000/svg">
<path fill-rule="evenodd" clip-rule="evenodd" d="M22.4652 14.8666C22.6485 14.6976 22.7846 14.518 22.8736 14.3333C22.9577 14.159 22.9998 13.9801 23 13.8012V14.8654V14.8666V14.8678C22.9994 15.4134 22.6089 15.9589 21.8284 16.3751C20.2663 17.2082 17.7337 17.2082 16.1716 16.3751C15.3907 15.9587 15.0002 15.4129 15 14.867V14.8666V14.8662L15 13.8004C15.0001 14.1461 15.1568 14.4917 15.47 14.8045C15.4909 14.8254 15.5125 14.8461 15.5348 14.8666C15.7059 15.0246 15.9182 15.1733 16.1716 15.3085C17.7337 16.1416 20.2663 16.1416 21.8284 15.3085C22.0818 15.1733 22.2941 15.0246 22.4652 14.8666Z" fill="url(#paint0_linear)"/>
<path d="M21.8284 15.3085C20.2663 16.1416 17.7337 16.1416 16.1716 15.3085C14.6095 14.4754 14.6095 13.1246 16.1716 12.2915C17.7337 11.4584 20.2663 11.4584 21.8284 12.2915C23.3905 13.1246 23.3905 14.4754 21.8284 15.3085Z" fill="#F5E18E"/>
<path fill-rule="evenodd" clip-rule="evenodd" d="M22.4652 14.2C22.6484 14.0309 22.7846 13.8513 22.8736 13.6666C22.9577 13.4923 22.9998 13.3134 23 13.1345V14.1988V14.2V14.2012C22.9994 14.7467 22.6089 15.2922 21.8284 15.7085C20.2663 16.5416 17.7337 16.5416 16.1716 15.7085C15.3907 15.292 15.0002 14.7462 15 14.2004V14.2V14.1996L15 13.1337C15.0001 13.3129 15.0422 13.492 15.1264 13.6666C15.1288 13.6717 15.1313 13.6767 15.1338 13.6818C15.2229 13.8612 15.3566 14.0355 15.5348 14.2C15.7059 14.3579 15.9182 14.5067 16.1716 14.6418C17.7337 15.4749 20.2663 15.4749 21.8284 14.6418C22.0818 14.5067 22.2941 14.3579 22.4652 14.2Z" fill="url(#paint1_linear)"/>
<path d="M21.8284 14.6418C20.2663 15.4749 17.7337 15.4749 16.1716 14.6418C14.6095 13.8087 14.6095 12.458 16.1716 11.6248C17.7337 10.7917 20.2663 10.7917 21.8284 11.6248C23.3905 12.458 23.3905 13.8087 21.8284 14.6418Z" fill="#F5E18E"/>
<path fill-rule="evenodd" clip-rule="evenodd" d="M22.4652 13.5333C22.6485 13.3643 22.7846 13.1847 22.8736 13C22.9577 12.8257 22.9998 12.6468 23 12.4679V13.5321V13.5333V13.5345C22.9994 14.0801 22.6089 14.6256 21.8284 15.0418C20.2663 15.875 17.7337 15.875 16.1716 15.0418C15.3907 14.6254 15.0002 14.0796 15 13.5337V13.5333V13.5329L15 12.4672C15.0001 12.6463 15.0422 12.8255 15.1264 13C15.1288 13.0051 15.1313 13.0101 15.1338 13.0152C15.2229 13.1945 15.3566 13.3689 15.5348 13.5333C15.7059 13.6913 15.9182 13.84 16.1716 13.9752C17.7337 14.8083 20.2663 14.8083 21.8284 13.9752C22.0818 13.84 22.2941 13.6913 22.4652 13.5333Z" fill="url(#paint2_linear)"/>
<path d="M21.8284 13.9752C20.2663 14.8083 17.7337 14.8083 16.1716 13.9752C14.6095 13.142 14.6095 11.7913 16.1716 10.9582C17.7337 10.1251 20.2663 10.1251 21.8284 10.9582C23.3905 11.7913 23.3905 13.142 21.8284 13.9752Z" fill="#F5E18E"/>
<path fill-rule="evenodd" clip-rule="evenodd" d="M22.4652 12.8666C22.6485 12.6976 22.7846 12.518 22.8736 12.3333C22.9577 12.159 22.9998 11.9801 23 11.8012V12.8654V12.8666V12.8678C22.9994 13.4134 22.6089 13.9589 21.8284 14.3751C20.2663 15.2082 17.7337 15.2082 16.1716 14.3751C15.3907 13.9587 15.0002 13.4129 15 12.867V12.8666V12.8662L15 11.8004C15.0001 12.1461 15.1568 12.4917 15.47 12.8045C15.4909 12.8254 15.5125 12.8461 15.5348 12.8666C15.7059 13.0246 15.9182 13.1733 16.1716 13.3085C17.7337 14.1416 20.2663 14.1416 21.8284 13.3085C22.0818 13.1733 22.2941 13.0246 22.4652 12.8666Z" fill="url(#paint3_linear)"/>
<path d="M21.8284 13.3085C20.2663 14.1416 17.7337 14.1416 16.1716 13.3085C14.6095 12.4754 14.6095 11.1246 16.1716 10.2915C17.7337 9.45838 20.2663 9.45838 21.8284 10.2915C23.3905 11.1246 23.3905 12.4754 21.8284 13.3085Z" fill="#F5E18E"/>
<path fill-rule="evenodd" clip-rule="evenodd" d="M22.4652 12.2C22.6484 12.0309 22.7846 11.8513 22.8736 11.6666C22.9577 11.4923 22.9998 11.3134 23 11.1345V12.1988V12.2V12.2012C22.9994 12.7467 22.6089 13.2922 21.8284 13.7085C20.2663 14.5416 17.7337 14.5416 16.1716 13.7085C15.3907 13.292 15.0002 12.7462 15 12.2004V12.2V12.1996L15 11.1337C15.0001 11.3129 15.0422 11.492 15.1264 11.6666C15.1288 11.6717 15.1313 11.6767 15.1338 11.6818C15.2229 11.8612 15.3566 12.0355 15.5348 12.2C15.7059 12.3579 15.9182 12.5067 16.1716 12.6418C17.7337 13.4749 20.2663 13.4749 21.8284 12.6418C22.0818 12.5067 22.2941 12.3579 22.4652 12.2Z" fill="url(#paint4_linear)"/>
<path d="M21.8284 12.6418C20.2663 13.4749 17.7337 13.4749 16.1716 12.6418C14.6095 11.8087 14.6095 10.458 16.1716 9.62484C17.7337 8.79172 20.2663 8.79172 21.8284 9.62484C23.3905 10.458 23.3905 11.8087 21.8284 12.6418Z" fill="#F5E18E"/>
<path fill-rule="evenodd" clip-rule="evenodd" d="M22.4652 11.5333C22.6485 11.3643 22.7846 11.1847 22.8736 11C22.9577 10.8257 22.9998 10.6468 23 10.4679V11.5321V11.5333V11.5345C22.9994 12.0801 22.6089 12.6256 21.8284 13.0418C20.2663 13.875 17.7337 13.875 16.1716 13.0418C15.3907 12.6254 15.0002 12.0796 15 11.5337V11.5333V11.5329L15 10.4672C15.0001 10.6463 15.0422 10.8255 15.1264 11C15.1288 11.0051 15.1313 11.0101 15.1338 11.0152C15.2229 11.1945 15.3566 11.3689 15.5348 11.5333C15.7059 11.6913 15.9182 11.84 16.1716 11.9752C17.7337 12.8083 20.2663 12.8083 21.8284 11.9752C22.0818 11.84 22.2941 11.6913 22.4652 11.5333Z" fill="url(#paint5_linear)"/>
<path d="M21.8284 11.9752C20.2663 12.8083 17.7337 12.8083 16.1716 11.9752C14.6095 11.142 14.6095 9.79129 16.1716 8.95817C17.7337 8.12506 20.2663 8.12506 21.8284 8.95817C23.3905 9.79129 23.3905 11.142 21.8284 11.9752Z" fill="#F5E18E"/>
<path fill-rule="evenodd" clip-rule="evenodd" d="M22.4652 10.8666C22.6485 10.6976 22.7846 10.518 22.8736 10.3333C22.9577 10.159 22.9998 9.98006 23 9.80115V10.8654V10.8666V10.8678C22.9994 11.4134 22.6089 11.9589 21.8284 12.3751C20.2663 13.2082 17.7337 13.2082 16.1716 12.3751C15.3907 11.9587 15.0002 11.4129 15 10.867V10.8666V10.8662L15 9.8004C15.0001 10.1461 15.1568 10.4917 15.47 10.8045C15.4909 10.8254 15.5125 10.8461 15.5348 10.8666C15.7059 11.0246 15.9182 11.1733 16.1716 11.3085C17.7337 12.1416 20.2663 12.1416 21.8284 11.3085C22.0818 11.1733 22.2941 11.0246 22.4652 10.8666Z" fill="url(#paint6_linear)"/>
<path d="M21.8284 11.3085C20.2663 12.1416 17.7337 12.1416 16.1716 11.3085C14.6095 10.4754 14.6095 9.12462 16.1716 8.2915C17.7337 7.45838 20.2663 7.45838 21.8284 8.2915C23.3905 9.12462 23.3905 10.4754 21.8284 11.3085Z" fill="#F5E18E"/>
<path fill-rule="evenodd" clip-rule="evenodd" d="M22.4652 10.2C22.6484 10.0309 22.7846 9.85133 22.8736 9.66662C22.9577 9.49229 22.9998 9.3134 23 9.13449V10.1988V10.2V10.2012C22.9994 10.7467 22.6089 11.2922 21.8284 11.7085C20.2663 12.5416 17.7337 12.5416 16.1716 11.7085C15.3907 11.292 15.0002 10.7462 15 10.2004V10.2V10.1996L15 9.13374C15.0001 9.31289 15.0422 9.49205 15.1264 9.66662C15.1288 9.67168 15.1313 9.67673 15.1338 9.68178C15.2229 9.86116 15.3566 10.0355 15.5348 10.2C15.7059 10.3579 15.9182 10.5067 16.1716 10.6418C17.7337 11.4749 20.2663 11.4749 21.8284 10.6418C22.0818 10.5067 22.2941 10.3579 22.4652 10.2Z" fill="url(#paint7_linear)"/>
<path d="M21.8284 10.6418C20.2663 11.4749 17.7337 11.4749 16.1716 10.6418C14.6095 9.80871 14.6095 8.45796 16.1716 7.62484C17.7337 6.79172 20.2663 6.79172 21.8284 7.62484C23.3905 8.45796 23.3905 9.80871 21.8284 10.6418Z" fill="#F5E18E"/>
<path fill-rule="evenodd" clip-rule="evenodd" d="M22.4652 9.19996C22.6484 9.03091 22.7846 8.85133 22.8736 8.66662C22.9577 8.49229 22.9998 8.3134 23 8.13449V9.19876V9.19996V9.20116C22.9994 9.74673 22.6089 10.2922 21.8284 10.7085C20.2663 11.5416 17.7337 11.5416 16.1716 10.7085C15.3907 10.292 15.0002 9.74619 15 9.20036V9.19996V9.19956L15 8.13374C15.0001 8.31289 15.0422 8.49205 15.1264 8.66662C15.1288 8.67168 15.1313 8.67673 15.1338 8.68178C15.2229 8.86116 15.3566 9.03554 15.5348 9.19996C15.7059 9.35791 15.9182 9.50666 16.1716 9.64179C17.7337 10.4749 20.2663 10.4749 21.8284 9.64179C22.0818 9.50666 22.2941 9.35791 22.4652 9.19996Z" fill="url(#paint8_linear)"/>
<path d="M21.8284 9.64183C20.2663 10.4749 17.7337 10.4749 16.1716 9.64183C14.6095 8.80871 14.6095 7.45796 16.1716 6.62484C17.7337 5.79172 20.2663 5.79172 21.8284 6.62484C23.3905 7.45796 23.3905 8.80871 21.8284 9.64183Z" fill="#F5E18E"/>
<path fill-rule="evenodd" clip-rule="evenodd" d="M22.4652 8.19996C22.6484 8.03091 22.7846 7.85133 22.8736 7.66662C22.9577 7.49229 22.9998 7.3134 23 7.13449V8.19876V8.19996V8.20116C22.9994 8.74673 22.6089 9.2922 21.8284 9.70845C20.2663 10.5416 17.7337 10.5416 16.1716 9.70845C15.3907 9.292 15.0002 8.74619 15 8.20036V8.19996V8.19956L15 7.13374C15.0001 7.31289 15.0422 7.49205 15.1264 7.66662C15.1288 7.67168 15.1313 7.67673 15.1338 7.68178C15.2229 7.86116 15.3566 8.03554 15.5348 8.19996C15.7059 8.35791 15.9182 8.50666 16.1716 8.64179C17.7337 9.4749 20.2663 9.4749 21.8284 8.64179C22.0818 8.50666 22.2941 8.35791 22.4652 8.19996Z" fill="url(#paint9_linear)"/>
<path d="M21.8284 8.64183C20.2663 9.47495 17.7337 9.47495 16.1716 8.64183C14.6095 7.80871 14.6095 6.45796 16.1716 5.62484C17.7337 4.79172 20.2663 4.79172 21.8284 5.62484C23.3905 6.45796 23.3905 7.80871 21.8284 8.64183Z" fill="#F5E18E"/>
<path fill-rule="evenodd" clip-rule="evenodd" d="M22.4652 7.19996C22.6484 7.03091 22.7846 6.85133 22.8736 6.66662C22.9577 6.49229 22.9998 6.3134 23 6.13449V7.19876V7.19996V7.20116C22.9994 7.74673 22.6089 8.2922 21.8284 8.70845C20.2663 9.54157 17.7337 9.54157 16.1716 8.70845C15.3907 8.292 15.0002 7.74619 15 7.20036V7.19996V7.19956L15 6.13374C15.0001 6.31289 15.0422 6.49205 15.1264 6.66662C15.1288 6.67168 15.1313 6.67673 15.1338 6.68178C15.2229 6.86116 15.3566 7.03554 15.5348 7.19996C15.7059 7.35791 15.9182 7.50666 16.1716 7.64179C17.7337 8.4749 20.2663 8.4749 21.8284 7.64179C22.0818 7.50666 22.2941 7.35791 22.4652 7.19996Z" fill="url(#paint10_linear)"/>
<path d="M21.8284 7.64183C20.2663 8.47495 17.7337 8.47495 16.1716 7.64183C14.6095 6.80871 14.6095 5.45796 16.1716 4.62484C17.7337 3.79172 20.2663 3.79172 21.8284 4.62484C23.3905 5.45796 23.3905 6.80871 21.8284 7.64183Z" fill="#F5E18E"/>
<path fill-rule="evenodd" clip-rule="evenodd" d="M22.4652 6.19995C22.6484 6.03091 22.7846 5.85132 22.8736 5.66662C22.9577 5.49228 22.9998 5.31339 23 5.13448V6.19875V6.19995V6.20115C22.9994 6.74672 22.6089 7.29219 21.8284 7.70844C20.2663 8.54156 17.7337 8.54156 16.1716 7.70845C15.3907 7.29199 15.0002 6.74618 15 6.20035V6.19995V6.19955L15 5.13373C15.0001 5.31289 15.0422 5.49204 15.1264 5.66662C15.1288 5.67167 15.1313 5.67673 15.1338 5.68178C15.2229 5.86115 15.3566 6.03553 15.5348 6.19995C15.7059 6.3579 15.9182 6.50665 16.1716 6.64178C17.7337 7.4749 20.2663 7.4749 21.8284 6.64178C22.0818 6.50665 22.2941 6.3579 22.4652 6.19995Z" fill="url(#paint11_linear)"/>
<path d="M21.8284 6.64183C20.2663 7.47495 17.7337 7.47495 16.1716 6.64183C14.6095 5.80871 14.6095 4.45796 16.1716 3.62484C17.7337 2.79172 20.2663 2.79172 21.8284 3.62484C23.3905 4.45796 23.3905 5.80871 21.8284 6.64183Z" fill="#F5E18E"/>
<path fill-rule="evenodd" clip-rule="evenodd" d="M8.46525 14.8666C8.64845 14.6976 8.78458 14.518 8.87364 14.3333C8.95769 14.159 8.99981 13.9801 9 13.8012V14.8654V14.8666V14.8678C8.99943 15.4134 8.6089 15.9589 7.82843 16.3751C6.26633 17.2082 3.73367 17.2082 2.17157 16.3751C1.39071 15.9587 1.00019 15.4129 1 14.867V14.8666V14.8662L1 13.8004C1.00013 14.1461 1.15681 14.4917 1.47002 14.8045C1.4909 14.8254 1.51248 14.8461 1.53475 14.8666C1.70593 15.0246 1.9182 15.1733 2.17157 15.3085C3.73367 16.1416 6.26633 16.1416 7.82843 15.3085C8.0818 15.1733 8.29407 15.0246 8.46525 14.8666Z" fill="url(#paint12_linear)"/>
<path d="M7.82843 15.3085C6.26633 16.1416 3.73367 16.1416 2.17157 15.3085C0.609476 14.4754 0.609476 13.1246 2.17157 12.2915C3.73367 11.4584 6.26633 11.4584 7.82843 12.2915C9.39052 13.1246 9.39052 14.4754 7.82843 15.3085Z" fill="#F5E18E"/>
<path fill-rule="evenodd" clip-rule="evenodd" d="M8.46525 14.2C8.64845 14.0309 8.78458 13.8513 8.87364 13.6666C8.95769 13.4923 8.99981 13.3134 9 13.1345V14.1988V14.2V14.2012C8.99943 14.7467 8.6089 15.2922 7.82843 15.7085C6.26633 16.5416 3.73367 16.5416 2.17157 15.7085C1.39071 15.292 1.00019 14.7462 1 14.2004V14.2V14.1996L1 13.1337C1.00007 13.3129 1.04219 13.492 1.12636 13.6666C1.1288 13.6717 1.13128 13.6767 1.13378 13.6818C1.22291 13.8612 1.35657 14.0355 1.53475 14.2C1.70593 14.3579 1.9182 14.5067 2.17157 14.6418C3.73367 15.4749 6.26633 15.4749 7.82843 14.6418C8.0818 14.5067 8.29407 14.3579 8.46525 14.2Z" fill="url(#paint13_linear)"/>
<path d="M7.82843 14.6418C6.26633 15.4749 3.73367 15.4749 2.17157 14.6418C0.609476 13.8087 0.609476 12.458 2.17157 11.6248C3.73367 10.7917 6.26633 10.7917 7.82843 11.6248C9.39052 12.458 9.39052 13.8087 7.82843 14.6418Z" fill="#F5E18E"/>
<path fill-rule="evenodd" clip-rule="evenodd" d="M8.46525 13.5333C8.64845 13.3643 8.78458 13.1847 8.87364 13C8.95769 12.8257 8.99981 12.6468 9 12.4679V13.5321V13.5333V13.5345C8.99943 14.0801 8.6089 14.6256 7.82843 15.0418C6.26633 15.875 3.73367 15.875 2.17157 15.0418C1.39071 14.6254 1.00019 14.0796 1 13.5337V13.5333V13.5329L1 12.4672C1.00008 12.6463 1.04221 12.8255 1.12636 13C1.1288 13.0051 1.13128 13.0101 1.13378 13.0152C1.22291 13.1945 1.35657 13.3689 1.53475 13.5333C1.70593 13.6913 1.9182 13.84 2.17157 13.9752C3.73367 14.8083 6.26633 14.8083 7.82843 13.9752C8.0818 13.84 8.29407 13.6913 8.46525 13.5333Z" fill="url(#paint14_linear)"/>
<path d="M7.82843 13.9752C6.26633 14.8083 3.73367 14.8083 2.17157 13.9752C0.609476 13.142 0.609476 11.7913 2.17157 10.9582C3.73367 10.1251 6.26633 10.1251 7.82843 10.9582C9.39052 11.7913 9.39052 13.142 7.82843 13.9752Z" fill="#F5E18E"/>
<path fill-rule="evenodd" clip-rule="evenodd" d="M8.46525 12.8666C8.64845 12.6976 8.78458 12.518 8.87364 12.3333C8.95769 12.159 8.99981 11.9801 9 11.8012V12.8654V12.8666V12.8678C8.99943 13.4134 8.6089 13.9589 7.82843 14.3751C6.26633 15.2082 3.73367 15.2082 2.17157 14.3751C1.39071 13.9587 1.00019 13.4129 1 12.867V12.8666V12.8662L1 11.8004C1.00013 12.1461 1.15681 12.4917 1.47002 12.8045C1.4909 12.8254 1.51248 12.8461 1.53475 12.8666C1.70593 13.0246 1.9182 13.1733 2.17157 13.3085C3.73367 14.1416 6.26633 14.1416 7.82843 13.3085C8.0818 13.1733 8.29407 13.0246 8.46525 12.8666Z" fill="url(#paint15_linear)"/>
<path d="M7.82843 13.3085C6.26633 14.1416 3.73367 14.1416 2.17157 13.3085C0.609476 12.4754 0.609476 11.1246 2.17157 10.2915C3.73367 9.45838 6.26633 9.45838 7.82843 10.2915C9.39052 11.1246 9.39052 12.4754 7.82843 13.3085Z" fill="#F5E18E"/>
<path fill-rule="evenodd" clip-rule="evenodd" d="M8.46525 12.2C8.64845 12.0309 8.78458 11.8513 8.87364 11.6666C8.95769 11.4923 8.99981 11.3134 9 11.1345V12.1988V12.2V12.2012C8.99943 12.7467 8.6089 13.2922 7.82843 13.7085C6.26633 14.5416 3.73367 14.5416 2.17157 13.7085C1.39071 13.292 1.00019 12.7462 1 12.2004V12.2V12.1996L1 11.1337C1.00007 11.3129 1.04219 11.492 1.12636 11.6666C1.1288 11.6717 1.13128 11.6767 1.13378 11.6818C1.22291 11.8612 1.35657 12.0355 1.53475 12.2C1.70593 12.3579 1.9182 12.5067 2.17157 12.6418C3.73367 13.4749 6.26633 13.4749 7.82843 12.6418C8.0818 12.5067 8.29407 12.3579 8.46525 12.2Z" fill="url(#paint16_linear)"/>
<path d="M7.82843 12.6418C6.26633 13.4749 3.73367 13.4749 2.17157 12.6418C0.609476 11.8087 0.609476 10.458 2.17157 9.62484C3.73367 8.79172 6.26633 8.79172 7.82843 9.62484C9.39052 10.458 9.39052 11.8087 7.82843 12.6418Z" fill="#F5E18E"/>
<path fill-rule="evenodd" clip-rule="evenodd" d="M8.46525 11.5333C8.64845 11.3643 8.78458 11.1847 8.87364 11C8.95769 10.8257 8.99981 10.6468 9 10.4679V11.5321V11.5333V11.5345C8.99943 12.0801 8.6089 12.6256 7.82843 13.0418C6.26633 13.875 3.73367 13.875 2.17157 13.0418C1.39071 12.6254 1.00019 12.0796 1 11.5337V11.5333V11.5329L1 10.4672C1.00008 10.6463 1.04221 10.8255 1.12636 11C1.1288 11.0051 1.13128 11.0101 1.13378 11.0152C1.22291 11.1945 1.35657 11.3689 1.53475 11.5333C1.70593 11.6913 1.9182 11.84 2.17157 11.9752C3.73367 12.8083 6.26633 12.8083 7.82843 11.9752C8.0818 11.84 8.29407 11.6913 8.46525 11.5333Z" fill="url(#paint17_linear)"/>
<path d="M7.82843 11.9752C6.26633 12.8083 3.73367 12.8083 2.17157 11.9752C0.609476 11.142 0.609476 9.79129 2.17157 8.95817C3.73367 8.12506 6.26633 8.12506 7.82843 8.95817C9.39052 9.79129 9.39052 11.142 7.82843 11.9752Z" fill="#F5E18E"/>
<path fill-rule="evenodd" clip-rule="evenodd" d="M8.46525 10.8666C8.64845 10.6976 8.78458 10.518 8.87364 10.3333C8.95769 10.159 8.99981 9.98006 9 9.80115V10.8654V10.8666V10.8678C8.99943 11.4134 8.6089 11.9589 7.82843 12.3751C6.26633 13.2082 3.73367 13.2082 2.17157 12.3751C1.39071 11.9587 1.00019 11.4129 1 10.867V10.8666V10.8662L1 9.8004C1.00013 10.1461 1.15681 10.4917 1.47002 10.8045C1.4909 10.8254 1.51248 10.8461 1.53475 10.8666C1.70593 11.0246 1.9182 11.1733 2.17157 11.3085C3.73367 12.1416 6.26633 12.1416 7.82843 11.3085C8.0818 11.1733 8.29407 11.0246 8.46525 10.8666Z" fill="url(#paint18_linear)"/>
<path d="M7.82843 11.3085C6.26633 12.1416 3.73367 12.1416 2.17157 11.3085C0.609476 10.4754 0.609476 9.12462 2.17157 8.2915C3.73367 7.45838 6.26633 7.45838 7.82843 8.2915C9.39052 9.12462 9.39052 10.4754 7.82843 11.3085Z" fill="#F5E18E"/>
<path fill-rule="evenodd" clip-rule="evenodd" d="M8.46525 10.2C8.64845 10.0309 8.78458 9.85133 8.87364 9.66662C8.95769 9.49229 8.99981 9.3134 9 9.13449V10.1988V10.2V10.2012C8.99943 10.7467 8.6089 11.2922 7.82843 11.7085C6.26633 12.5416 3.73367 12.5416 2.17157 11.7085C1.39071 11.292 1.00019 10.7462 1 10.2004V10.2V10.1996L1 9.13374C1.00007 9.31289 1.04219 9.49205 1.12636 9.66662C1.1288 9.67168 1.13128 9.67673 1.13378 9.68178C1.22291 9.86116 1.35657 10.0355 1.53475 10.2C1.70593 10.3579 1.9182 10.5067 2.17157 10.6418C3.73367 11.4749 6.26633 11.4749 7.82843 10.6418C8.0818 10.5067 8.29407 10.3579 8.46525 10.2Z" fill="url(#paint19_linear)"/>
<path d="M7.82843 10.6418C6.26633 11.4749 3.73367 11.4749 2.17157 10.6418C0.609476 9.80871 0.609476 8.45796 2.17157 7.62484C3.73367 6.79172 6.26633 6.79172 7.82843 7.62484C9.39052 8.45796 9.39052 9.80871 7.82843 10.6418Z" fill="#F5E18E"/>
<path fill-rule="evenodd" clip-rule="evenodd" d="M8.46525 10.2C8.64845 10.0309 8.78458 9.85133 8.87364 9.66662C8.95769 9.49229 8.99981 9.3134 9 9.13449V10.1988V10.2V10.2012C8.99943 10.7467 8.6089 11.2922 7.82843 11.7085C6.26633 12.5416 3.73367 12.5416 2.17157 11.7085C1.39071 11.292 1.00019 10.7462 1 10.2004V10.2V10.1996L1 9.13374C1.00007 9.31289 1.04219 9.49205 1.12636 9.66662C1.1288 9.67168 1.13128 9.67673 1.13378 9.68178C1.22291 9.86116 1.35657 10.0355 1.53475 10.2C1.70593 10.3579 1.9182 10.5067 2.17157 10.6418C3.73367 11.4749 6.26633 11.4749 7.82843 10.6418C8.0818 10.5067 8.29407 10.3579 8.46525 10.2Z" fill="url(#paint20_linear)"/>
<path d="M7.82843 10.6418C6.26633 11.4749 3.73367 11.4749 2.17157 10.6418C0.609476 9.80871 0.609476 8.45796 2.17157 7.62484C3.73367 6.79172 6.26633 6.79172 7.82843 7.62484C9.39052 8.45796 9.39052 9.80871 7.82843 10.6418Z" fill="#F5E18E"/>
<path fill-rule="evenodd" clip-rule="evenodd" d="M8.46525 9.19996C8.64845 9.03091 8.78458 8.85133 8.87364 8.66662C8.95769 8.49229 8.99981 8.3134 9 8.13449V9.19876V9.19996V9.20116C8.99943 9.74673 8.6089 10.2922 7.82843 10.7085C6.26633 11.5416 3.73367 11.5416 2.17157 10.7085C1.39071 10.292 1.00019 9.74619 1 9.20036V9.19996V9.19956L1 8.13374C1.00007 8.31289 1.04219 8.49205 1.12636 8.66662C1.1288 8.67168 1.13128 8.67673 1.13378 8.68178C1.22291 8.86116 1.35657 9.03554 1.53475 9.19996C1.70593 9.35791 1.9182 9.50666 2.17157 9.64179C3.73367 10.4749 6.26633 10.4749 7.82843 9.64179C8.0818 9.50666 8.29407 9.35791 8.46525 9.19996Z" fill="url(#paint21_linear)"/>
<path d="M7.82843 9.64183C6.26633 10.4749 3.73367 10.4749 2.17157 9.64183C0.609476 8.80871 0.609476 7.45796 2.17157 6.62484C3.73367 5.79172 6.26633 5.79172 7.82843 6.62484C9.39052 7.45796 9.39052 8.80871 7.82843 9.64183Z" fill="#F5E18E"/>
<path fill-rule="evenodd" clip-rule="evenodd" d="M8.46525 8.19996C8.64845 8.03091 8.78458 7.85133 8.87364 7.66662C8.95769 7.49229 8.99981 7.3134 9 7.13449V8.19876V8.19996V8.20116C8.99943 8.74673 8.6089 9.2922 7.82843 9.70845C6.26633 10.5416 3.73367 10.5416 2.17157 9.70845C1.39071 9.292 1.00019 8.74619 1 8.20036V8.19996V8.19956L1 7.13374C1.00007 7.31289 1.04219 7.49205 1.12636 7.66662C1.1288 7.67168 1.13128 7.67673 1.13378 7.68178C1.22291 7.86116 1.35657 8.03554 1.53475 8.19996C1.70593 8.35791 1.9182 8.50666 2.17157 8.64179C3.73367 9.4749 6.26633 9.4749 7.82843 8.64179C8.0818 8.50666 8.29407 8.35791 8.46525 8.19996Z" fill="url(#paint22_linear)"/>
<path d="M7.82843 8.64183C6.26633 9.47495 3.73367 9.47495 2.17157 8.64183C0.609476 7.80871 0.609476 6.45796 2.17157 5.62484C3.73367 4.79172 6.26633 4.79172 7.82843 5.62484C9.39052 6.45796 9.39052 7.80871 7.82843 8.64183Z" fill="#F5E18E"/>
<path fill-rule="evenodd" clip-rule="evenodd" d="M8.46525 7.19996C8.64845 7.03091 8.78458 6.85133 8.87364 6.66662C8.95769 6.49229 8.99981 6.3134 9 6.13449V7.19876V7.19996V7.20116C8.99943 7.74673 8.6089 8.2922 7.82843 8.70845C6.26633 9.54157 3.73367 9.54157 2.17157 8.70845C1.39071 8.292 1.00019 7.74619 1 7.20036V7.19996V7.19956L1 6.13374C1.00007 6.31289 1.04219 6.49205 1.12636 6.66662C1.1288 6.67168 1.13128 6.67673 1.13378 6.68178C1.22291 6.86116 1.35657 7.03554 1.53475 7.19996C1.70593 7.35791 1.9182 7.50666 2.17157 7.64179C3.73367 8.4749 6.26633 8.4749 7.82843 7.64179C8.0818 7.50666 8.29407 7.35791 8.46525 7.19996Z" fill="url(#paint23_linear)"/>
<path d="M7.82843 7.64183C6.26633 8.47495 3.73367 8.47495 2.17157 7.64183C0.609476 6.80871 0.609476 5.45796 2.17157 4.62484C3.73367 3.79172 6.26633 3.79172 7.82843 4.62484C9.39052 5.45796 9.39052 6.80871 7.82843 7.64183Z" fill="#F5E18E"/>
<path fill-rule="evenodd" clip-rule="evenodd" d="M8.46525 6.19995C8.64845 6.03091 8.78458 5.85132 8.87364 5.66662C8.95769 5.49228 8.99981 5.31339 9 5.13448V6.19875V6.19995V6.20115C8.99943 6.74672 8.6089 7.29219 7.82843 7.70844C6.26633 8.54156 3.73367 8.54156 2.17157 7.70845C1.39071 7.29199 1.00019 6.74618 1 6.20035V6.19995V6.19955L1 5.13373C1.00007 5.31289 1.04219 5.49204 1.12636 5.66662C1.1288 5.67167 1.13128 5.67673 1.13378 5.68178C1.22291 5.86115 1.35657 6.03553 1.53475 6.19995C1.70593 6.3579 1.9182 6.50665 2.17157 6.64178C3.73367 7.4749 6.26633 7.4749 7.82843 6.64178C8.0818 6.50665 8.29407 6.3579 8.46525 6.19995Z" fill="url(#paint24_linear)"/>
<path d="M7.82843 6.64183C6.26633 7.47495 3.73367 7.47495 2.17157 6.64183C0.609476 5.80871 0.609476 4.45796 2.17157 3.62484C3.73367 2.79172 6.26633 2.79172 7.82843 3.62484C9.39052 4.45796 9.39052 5.80871 7.82843 6.64183Z" fill="#F5E18E"/>
<path fill-rule="evenodd" clip-rule="evenodd" d="M15.4652 17.8666C15.6485 17.6976 15.7846 17.518 15.8736 17.3333C15.9577 17.159 15.9998 16.9801 16 16.8012V17.8654V17.8666V17.8678C15.9994 18.4134 15.6089 18.9589 14.8284 19.3751C13.2663 20.2082 10.7337 20.2082 9.17157 19.3751C8.39071 18.9587 8.00019 18.4129 8 17.867V17.8666V17.8662L8 16.8004C8.00013 17.1461 8.15681 17.4917 8.47002 17.8045C8.4909 17.8254 8.51248 17.8461 8.53475 17.8666C8.70593 18.0246 8.9182 18.1733 9.17157 18.3085C10.7337 19.1416 13.2663 19.1416 14.8284 18.3085C15.0818 18.1733 15.2941 18.0246 15.4652 17.8666Z" fill="url(#paint25_linear)"/>
<path d="M14.8284 18.3085C13.2663 19.1416 10.7337 19.1416 9.17157 18.3085C7.60948 17.4754 7.60948 16.1246 9.17157 15.2915C10.7337 14.4584 13.2663 14.4584 14.8284 15.2915C16.3905 16.1246 16.3905 17.4754 14.8284 18.3085Z" fill="#F5E18E"/>
<path fill-rule="evenodd" clip-rule="evenodd" d="M15.4652 17.2C15.6484 17.0309 15.7846 16.8513 15.8736 16.6666C15.9577 16.4923 15.9998 16.3134 16 16.1345V17.1988V17.2V17.2012C15.9994 17.7467 15.6089 18.2922 14.8284 18.7085C13.2663 19.5416 10.7337 19.5416 9.17157 18.7085C8.39071 18.292 8.00019 17.7462 8 17.2004V17.2V17.1996L8 16.1337C8.00007 16.3129 8.04219 16.492 8.12636 16.6666C8.1288 16.6717 8.13128 16.6767 8.13378 16.6818C8.22291 16.8612 8.35657 17.0355 8.53475 17.2C8.70593 17.3579 8.9182 17.5067 9.17157 17.6418C10.7337 18.4749 13.2663 18.4749 14.8284 17.6418C15.0818 17.5067 15.2941 17.3579 15.4652 17.2Z" fill="url(#paint26_linear)"/>
<path d="M14.8284 17.6418C13.2663 18.4749 10.7337 18.4749 9.17157 17.6418C7.60948 16.8087 7.60948 15.458 9.17157 14.6248C10.7337 13.7917 13.2663 13.7917 14.8284 14.6248C16.3905 15.458 16.3905 16.8087 14.8284 17.6418Z" fill="#F5E18E"/>
<path fill-rule="evenodd" clip-rule="evenodd" d="M15.4652 16.5333C15.6485 16.3643 15.7846 16.1847 15.8736 16C15.9577 15.8257 15.9998 15.6468 16 15.4679V16.5321V16.5333V16.5345C15.9994 17.0801 15.6089 17.6256 14.8284 18.0418C13.2663 18.875 10.7337 18.875 9.17157 18.0418C8.39071 17.6254 8.00019 17.0796 8 16.5337V16.5333V16.5329L8 15.4672C8.00008 15.6463 8.04221 15.8255 8.12636 16C8.1288 16.0051 8.13128 16.0101 8.13378 16.0152C8.22291 16.1945 8.35657 16.3689 8.53475 16.5333C8.70593 16.6913 8.9182 16.84 9.17157 16.9752C10.7337 17.8083 13.2663 17.8083 14.8284 16.9752C15.0818 16.84 15.2941 16.6913 15.4652 16.5333Z" fill="url(#paint27_linear)"/>
<path d="M14.8284 16.9752C13.2663 17.8083 10.7337 17.8083 9.17157 16.9752C7.60948 16.142 7.60948 14.7913 9.17157 13.9582C10.7337 13.1251 13.2663 13.1251 14.8284 13.9582C16.3905 14.7913 16.3905 16.142 14.8284 16.9752Z" fill="#F5E18E"/>
<path fill-rule="evenodd" clip-rule="evenodd" d="M15.4652 15.8666C15.6485 15.6976 15.7846 15.518 15.8736 15.3333C15.9577 15.159 15.9998 14.9801 16 14.8012V15.8654V15.8666V15.8678C15.9994 16.4134 15.6089 16.9589 14.8284 17.3751C13.2663 18.2082 10.7337 18.2082 9.17157 17.3751C8.39071 16.9587 8.00019 16.4129 8 15.867V15.8666V15.8662L8 14.8004C8.00013 15.1461 8.15681 15.4917 8.47002 15.8045C8.4909 15.8254 8.51248 15.8461 8.53475 15.8666C8.70593 16.0246 8.9182 16.1733 9.17157 16.3085C10.7337 17.1416 13.2663 17.1416 14.8284 16.3085C15.0818 16.1733 15.2941 16.0246 15.4652 15.8666Z" fill="url(#paint28_linear)"/>
<path d="M14.8284 16.3085C13.2663 17.1416 10.7337 17.1416 9.17157 16.3085C7.60948 15.4754 7.60948 14.1246 9.17157 13.2915C10.7337 12.4584 13.2663 12.4584 14.8284 13.2915C16.3905 14.1246 16.3905 15.4754 14.8284 16.3085Z" fill="#F5E18E"/>
<path fill-rule="evenodd" clip-rule="evenodd" d="M15.4652 15.2C15.6484 15.0309 15.7846 14.8513 15.8736 14.6666C15.9577 14.4923 15.9998 14.3134 16 14.1345V15.1988V15.2V15.2012C15.9994 15.7467 15.6089 16.2922 14.8284 16.7085C13.2663 17.5416 10.7337 17.5416 9.17157 16.7085C8.39071 16.292 8.00019 15.7462 8 15.2004V15.2V15.1996L8 14.1337C8.00007 14.3129 8.04219 14.492 8.12636 14.6666C8.1288 14.6717 8.13128 14.6767 8.13378 14.6818C8.22291 14.8612 8.35657 15.0355 8.53475 15.2C8.70593 15.3579 8.9182 15.5067 9.17157 15.6418C10.7337 16.4749 13.2663 16.4749 14.8284 15.6418C15.0818 15.5067 15.2941 15.3579 15.4652 15.2Z" fill="url(#paint29_linear)"/>
<path d="M14.8284 15.6418C13.2663 16.4749 10.7337 16.4749 9.17157 15.6418C7.60948 14.8087 7.60948 13.458 9.17157 12.6248C10.7337 11.7917 13.2663 11.7917 14.8284 12.6248C16.3905 13.458 16.3905 14.8087 14.8284 15.6418Z" fill="#F5E18E"/>
<path fill-rule="evenodd" clip-rule="evenodd" d="M15.4652 14.5333C15.6485 14.3643 15.7846 14.1847 15.8736 14C15.9577 13.8257 15.9998 13.6468 16 13.4679V14.5321V14.5333V14.5345C15.9994 15.0801 15.6089 15.6256 14.8284 16.0418C13.2663 16.875 10.7337 16.875 9.17157 16.0418C8.39071 15.6254 8.00019 15.0796 8 14.5337V14.5333V14.5329L8 13.4672C8.00008 13.6463 8.04221 13.8255 8.12636 14C8.1288 14.0051 8.13128 14.0101 8.13378 14.0152C8.22291 14.1945 8.35657 14.3689 8.53475 14.5333C8.70593 14.6913 8.9182 14.84 9.17157 14.9752C10.7337 15.8083 13.2663 15.8083 14.8284 14.9752C15.0818 14.84 15.2941 14.6913 15.4652 14.5333Z" fill="url(#paint30_linear)"/>
<path d="M14.8284 14.9752C13.2663 15.8083 10.7337 15.8083 9.17157 14.9752C7.60948 14.142 7.60948 12.7913 9.17157 11.9582C10.7337 11.1251 13.2663 11.1251 14.8284 11.9582C16.3905 12.7913 16.3905 14.142 14.8284 14.9752Z" fill="#F5E18E"/>
<path fill-rule="evenodd" clip-rule="evenodd" d="M15.4652 13.8666C15.6485 13.6976 15.7846 13.518 15.8736 13.3333C15.9577 13.159 15.9998 12.9801 16 12.8012V13.8654V13.8666V13.8678C15.9994 14.4134 15.6089 14.9589 14.8284 15.3751C13.2663 16.2082 10.7337 16.2082 9.17157 15.3751C8.39071 14.9587 8.00019 14.4129 8 13.867V13.8666V13.8662L8 12.8004C8.00013 13.1461 8.15681 13.4917 8.47002 13.8045C8.4909 13.8254 8.51248 13.8461 8.53475 13.8666C8.70593 14.0246 8.9182 14.1733 9.17157 14.3085C10.7337 15.1416 13.2663 15.1416 14.8284 14.3085C15.0818 14.1733 15.2941 14.0246 15.4652 13.8666Z" fill="url(#paint31_linear)"/>
<path d="M14.8284 14.3085C13.2663 15.1416 10.7337 15.1416 9.17157 14.3085C7.60948 13.4754 7.60948 12.1246 9.17157 11.2915C10.7337 10.4584 13.2663 10.4584 14.8284 11.2915C16.3905 12.1246 16.3905 13.4754 14.8284 14.3085Z" fill="#F5E18E"/>
<path fill-rule="evenodd" clip-rule="evenodd" d="M15.4652 13.2C15.6484 13.0309 15.7846 12.8513 15.8736 12.6666C15.9577 12.4923 15.9998 12.3134 16 12.1345V13.1988V13.2V13.2012C15.9994 13.7467 15.6089 14.2922 14.8284 14.7085C13.2663 15.5416 10.7337 15.5416 9.17157 14.7085C8.39071 14.292 8.00019 13.7462 8 13.2004V13.2V13.1996L8 12.1337C8.00007 12.3129 8.04219 12.492 8.12636 12.6666C8.1288 12.6717 8.13128 12.6767 8.13378 12.6818C8.22291 12.8612 8.35657 13.0355 8.53475 13.2C8.70593 13.3579 8.9182 13.5067 9.17157 13.6418C10.7337 14.4749 13.2663 14.4749 14.8284 13.6418C15.0818 13.5067 15.2941 13.3579 15.4652 13.2Z" fill="url(#paint32_linear)"/>
<path d="M14.8284 13.6418C13.2663 14.4749 10.7337 14.4749 9.17157 13.6418C7.60948 12.8087 7.60948 11.458 9.17157 10.6248C10.7337 9.79172 13.2663 9.79172 14.8284 10.6248C16.3905 11.458 16.3905 12.8087 14.8284 13.6418Z" fill="#F5E18E"/>
<path fill-rule="evenodd" clip-rule="evenodd" d="M15.4652 12.2C15.6484 12.0309 15.7846 11.8513 15.8736 11.6666C15.9577 11.4923 15.9998 11.3134 16 11.1345V12.1988V12.2V12.2012C15.9994 12.7467 15.6089 13.2922 14.8284 13.7085C13.2663 14.5416 10.7337 14.5416 9.17157 13.7085C8.39071 13.292 8.00019 12.7462 8 12.2004V12.2V12.1996L8 11.1337C8.00007 11.3129 8.04219 11.492 8.12636 11.6666C8.1288 11.6717 8.13128 11.6767 8.13378 11.6818C8.22291 11.8612 8.35657 12.0355 8.53475 12.2C8.70593 12.3579 8.9182 12.5067 9.17157 12.6418C10.7337 13.4749 13.2663 13.4749 14.8284 12.6418C15.0818 12.5067 15.2941 12.3579 15.4652 12.2Z" fill="url(#paint33_linear)"/>
<path d="M14.8284 12.6418C13.2663 13.4749 10.7337 13.4749 9.17157 12.6418C7.60948 11.8087 7.60948 10.458 9.17157 9.62484C10.7337 8.79172 13.2663 8.79172 14.8284 9.62484C16.3905 10.458 16.3905 11.8087 14.8284 12.6418Z" fill="#F5E18E"/>
<path fill-rule="evenodd" clip-rule="evenodd" d="M15.4652 11.2C15.6484 11.0309 15.7846 10.8513 15.8736 10.6666C15.9577 10.4923 15.9998 10.3134 16 10.1345V11.1988V11.2V11.2012C15.9994 11.7467 15.6089 12.2922 14.8284 12.7085C13.2663 13.5416 10.7337 13.5416 9.17157 12.7085C8.39071 12.292 8.00019 11.7462 8 11.2004V11.2V11.1996L8 10.1337C8.00007 10.3129 8.04219 10.492 8.12636 10.6666C8.1288 10.6717 8.13128 10.6767 8.13378 10.6818C8.22291 10.8612 8.35657 11.0355 8.53475 11.2C8.70593 11.3579 8.9182 11.5067 9.17157 11.6418C10.7337 12.4749 13.2663 12.4749 14.8284 11.6418C15.0818 11.5067 15.2941 11.3579 15.4652 11.2Z" fill="url(#paint34_linear)"/>
<path d="M14.8284 11.6418C13.2663 12.4749 10.7337 12.4749 9.17157 11.6418C7.60948 10.8087 7.60948 9.45796 9.17157 8.62484C10.7337 7.79172 13.2663 7.79172 14.8284 8.62484C16.3905 9.45796 16.3905 10.8087 14.8284 11.6418Z" fill="#F5E18E"/>
<defs>
<linearGradient id="paint0_linear" x1="18.6667" y1="16.0001" x2="19.3332" y2="16.6668" gradientUnits="userSpaceOnUse">
<stop stop-color="#EFCC43"/>
<stop offset="1" stop-color="#F2D769"/>
</linearGradient>
<linearGradient id="paint1_linear" x1="18.6667" y1="15.3335" x2="19.3332" y2="16.0001" gradientUnits="userSpaceOnUse">
<stop stop-color="#EFCC43"/>
<stop offset="1" stop-color="#F2D769"/>
</linearGradient>
<linearGradient id="paint2_linear" x1="18.6667" y1="14.6668" x2="19.3332" y2="15.3335" gradientUnits="userSpaceOnUse">
<stop stop-color="#EFCC43"/>
<stop offset="1" stop-color="#F2D769"/>
</linearGradient>
<linearGradient id="paint3_linear" x1="18.6667" y1="14.0001" x2="19.3332" y2="14.6668" gradientUnits="userSpaceOnUse">
<stop stop-color="#EFCC43"/>
<stop offset="1" stop-color="#F2D769"/>
</linearGradient>
<linearGradient id="paint4_linear" x1="18.6667" y1="13.3335" x2="19.3332" y2="14.0001" gradientUnits="userSpaceOnUse">
<stop stop-color="#EFCC43"/>
<stop offset="1" stop-color="#F2D769"/>
</linearGradient>
<linearGradient id="paint5_linear" x1="18.6667" y1="12.6668" x2="19.3332" y2="13.3335" gradientUnits="userSpaceOnUse">
<stop stop-color="#EFCC43"/>
<stop offset="1" stop-color="#F2D769"/>
</linearGradient>
<linearGradient id="paint6_linear" x1="18.6667" y1="12.0001" x2="19.3332" y2="12.6668" gradientUnits="userSpaceOnUse">
<stop stop-color="#EFCC43"/>
<stop offset="1" stop-color="#F2D769"/>
</linearGradient>
<linearGradient id="paint7_linear" x1="18.6667" y1="11.3335" x2="19.3332" y2="12.0001" gradientUnits="userSpaceOnUse">
<stop stop-color="#EFCC43"/>
<stop offset="1" stop-color="#F2D769"/>
</linearGradient>
<linearGradient id="paint8_linear" x1="18.6667" y1="10.3335" x2="19.3332" y2="11.0001" gradientUnits="userSpaceOnUse">
<stop stop-color="#EFCC43"/>
<stop offset="1" stop-color="#F2D769"/>
</linearGradient>
<linearGradient id="paint9_linear" x1="18.6667" y1="9.33346" x2="19.3332" y2="10.0001" gradientUnits="userSpaceOnUse">
<stop stop-color="#EFCC43"/>
<stop offset="1" stop-color="#F2D769"/>
</linearGradient>
<linearGradient id="paint10_linear" x1="18.6667" y1="8.33346" x2="19.3332" y2="9.00013" gradientUnits="userSpaceOnUse">
<stop stop-color="#EFCC43"/>
<stop offset="1" stop-color="#F2D769"/>
</linearGradient>
<linearGradient id="paint11_linear" x1="18.6667" y1="7.33345" x2="19.3332" y2="8.00012" gradientUnits="userSpaceOnUse">
<stop stop-color="#EFCC43"/>
<stop offset="1" stop-color="#F2D769"/>
</linearGradient>
<linearGradient id="paint12_linear" x1="4.66667" y1="16.0001" x2="5.33325" y2="16.6668" gradientUnits="userSpaceOnUse">
<stop stop-color="#F2D769"/>
<stop offset="1" stop-color="#EFCC43"/>
</linearGradient>
<linearGradient id="paint13_linear" x1="4.66667" y1="15.3335" x2="5.33325" y2="16.0001" gradientUnits="userSpaceOnUse">
<stop stop-color="#F2D769"/>
<stop offset="1" stop-color="#EFCC43"/>
</linearGradient>
<linearGradient id="paint14_linear" x1="4.66667" y1="14.6668" x2="5.33322" y2="15.3335" gradientUnits="userSpaceOnUse">
<stop stop-color="#F2D769"/>
<stop offset="1" stop-color="#EFCC43"/>
</linearGradient>
<linearGradient id="paint15_linear" x1="4.66667" y1="14.0001" x2="5.33325" y2="14.6668" gradientUnits="userSpaceOnUse">
<stop stop-color="#F2D769"/>
<stop offset="1" stop-color="#EFCC43"/>
</linearGradient>
<linearGradient id="paint16_linear" x1="4.66667" y1="13.3335" x2="5.33325" y2="14.0001" gradientUnits="userSpaceOnUse">
<stop stop-color="#F2D769"/>
<stop offset="1" stop-color="#EFCC43"/>
</linearGradient>
<linearGradient id="paint17_linear" x1="4.66667" y1="12.6668" x2="5.33322" y2="13.3335" gradientUnits="userSpaceOnUse">
<stop stop-color="#F2D769"/>
<stop offset="1" stop-color="#EFCC43"/>
</linearGradient>
<linearGradient id="paint18_linear" x1="4.66667" y1="12.0001" x2="5.33325" y2="12.6668" gradientUnits="userSpaceOnUse">
<stop stop-color="#F2D769"/>
<stop offset="1" stop-color="#EFCC43"/>
</linearGradient>
<linearGradient id="paint19_linear" x1="4.66667" y1="11.3335" x2="5.33325" y2="12.0001" gradientUnits="userSpaceOnUse">
<stop stop-color="#F2D769"/>
<stop offset="1" stop-color="#EFCC43"/>
</linearGradient>
<linearGradient id="paint20_linear" x1="4.66667" y1="11.3335" x2="5.33325" y2="12.0001" gradientUnits="userSpaceOnUse">
<stop stop-color="#F2D769"/>
<stop offset="1" stop-color="#EFCC43"/>
</linearGradient>
<linearGradient id="paint21_linear" x1="4.66667" y1="10.3335" x2="5.33325" y2="11.0001" gradientUnits="userSpaceOnUse">
<stop stop-color="#F2D769"/>
<stop offset="1" stop-color="#EFCC43"/>
</linearGradient>
<linearGradient id="paint22_linear" x1="4.66667" y1="9.33346" x2="5.33325" y2="10.0001" gradientUnits="userSpaceOnUse">
<stop stop-color="#F2D769"/>
<stop offset="1" stop-color="#EFCC43"/>
</linearGradient>
<linearGradient id="paint23_linear" x1="4.66667" y1="8.33346" x2="5.33325" y2="9.00013" gradientUnits="userSpaceOnUse">
<stop stop-color="#F2D769"/>
<stop offset="1" stop-color="#EFCC43"/>
</linearGradient>
<linearGradient id="paint24_linear" x1="4.66667" y1="7.33345" x2="5.33325" y2="8.00012" gradientUnits="userSpaceOnUse">
<stop stop-color="#F2D769"/>
<stop offset="1" stop-color="#EFCC43"/>
</linearGradient>
<linearGradient id="paint25_linear" x1="11.6667" y1="19.0001" x2="12.3332" y2="19.6668" gradientUnits="userSpaceOnUse">
<stop stop-color="#F2D769"/>
<stop offset="1" stop-color="#F2D769"/>
</linearGradient>
<linearGradient id="paint26_linear" x1="11.6667" y1="18.3335" x2="12.3332" y2="19.0001" gradientUnits="userSpaceOnUse">
<stop stop-color="#F2D769"/>
<stop offset="1" stop-color="#F2D769"/>
</linearGradient>
<linearGradient id="paint27_linear" x1="11.6667" y1="17.6668" x2="12.3332" y2="18.3335" gradientUnits="userSpaceOnUse">
<stop stop-color="#F2D769"/>
<stop offset="1" stop-color="#F2D769"/>
</linearGradient>
<linearGradient id="paint28_linear" x1="11.6667" y1="17.0001" x2="12.3332" y2="17.6668" gradientUnits="userSpaceOnUse">
<stop stop-color="#F2D769"/>
<stop offset="1" stop-color="#F2D769"/>
</linearGradient>
<linearGradient id="paint29_linear" x1="11.6667" y1="16.3335" x2="12.3332" y2="17.0001" gradientUnits="userSpaceOnUse">
<stop stop-color="#F2D769"/>
<stop offset="1" stop-color="#F2D769"/>
</linearGradient>
<linearGradient id="paint30_linear" x1="11.6667" y1="15.6668" x2="12.3332" y2="16.3335" gradientUnits="userSpaceOnUse">
<stop stop-color="#F2D769"/>
<stop offset="1" stop-color="#F2D769"/>
</linearGradient>
<linearGradient id="paint31_linear" x1="11.6667" y1="15.0001" x2="12.3332" y2="15.6668" gradientUnits="userSpaceOnUse">
<stop stop-color="#F2D769"/>
<stop offset="1" stop-color="#F2D769"/>
</linearGradient>
<linearGradient id="paint32_linear" x1="11.6667" y1="14.3335" x2="12.3332" y2="15.0001" gradientUnits="userSpaceOnUse">
<stop stop-color="#F2D769"/>
<stop offset="1" stop-color="#F2D769"/>
</linearGradient>
<linearGradient id="paint33_linear" x1="11.6667" y1="13.3335" x2="12.3332" y2="14.0001" gradientUnits="userSpaceOnUse">
<stop stop-color="#F2D769"/>
<stop offset="1" stop-color="#F2D769"/>
</linearGradient>
<linearGradient id="paint34_linear" x1="11.6667" y1="12.3335" x2="12.3332" y2="13.0001" gradientUnits="userSpaceOnUse">
<stop stop-color="#F2D769"/>
<stop offset="1" stop-color="#F2D769"/>
</linearGradient>
</defs>
</svg>
