<svg width="72" height="72" viewBox="0 0 72 72" fill="none" xmlns="http://www.w3.org/2000/svg">
<path fill-rule="evenodd" clip-rule="evenodd" d="M8 30C8 29.7239 8.3134 29.5 8.7 29.5H10.065C10.4516 29.5 10.765 29.7239 10.765 30C10.765 30.2761 10.4516 30.5 10.065 30.5H8.7C8.3134 30.5 8 30.2761 8 30ZM12.095 30C12.095 29.7239 12.4084 29.5 12.795 29.5H15.525C15.9116 29.5 16.225 29.7239 16.225 30C16.225 30.2761 15.9116 30.5 15.525 30.5H12.795C12.4084 30.5 12.095 30.2761 12.095 30ZM17.555 30C17.555 29.7239 17.8684 29.5 18.255 29.5H20.985C21.3716 29.5 21.685 29.7239 21.685 30C21.685 30.2761 21.3716 30.5 20.985 30.5H18.255C17.8684 30.5 17.555 30.2761 17.555 30ZM23.015 30C23.015 29.7239 23.3284 29.5 23.715 29.5H26.445C26.8316 29.5 27.145 29.7239 27.145 30C27.145 30.2761 26.8316 30.5 26.445 30.5H23.715C23.3284 30.5 23.015 30.2761 23.015 30ZM28.475 30C28.475 29.7239 28.7884 29.5 29.175 29.5H31.905C32.2916 29.5 32.605 29.7239 32.605 30C32.605 30.2761 32.2916 30.5 31.905 30.5H29.175C28.7884 30.5 28.475 30.2761 28.475 30ZM33.935 30C33.935 29.7239 34.2484 29.5 34.635 29.5L37.365 29.5C37.7516 29.5 38.065 29.7239 38.065 30C38.065 30.2761 37.7516 30.5 37.365 30.5H34.635C34.2484 30.5 33.935 30.2761 33.935 30ZM39.395 30C39.395 29.7239 39.7084 29.5 40.095 29.5H42.825C43.2116 29.5 43.525 29.7239 43.525 30C43.525 30.2761 43.2116 30.5 42.825 30.5H40.095C39.7084 30.5 39.395 30.2761 39.395 30ZM44.855 30C44.855 29.7239 45.1684 29.5 45.555 29.5H48.285C48.6716 29.5 48.985 29.7239 48.985 30C48.985 30.2761 48.6716 30.5 48.285 30.5H45.555C45.1684 30.5 44.855 30.2761 44.855 30ZM50.315 30C50.315 29.7239 50.6284 29.5 51.015 29.5H53.745C54.1316 29.5 54.445 29.7239 54.445 30C54.445 30.2761 54.1316 30.5 53.745 30.5H51.015C50.6284 30.5 50.315 30.2761 50.315 30ZM55.775 30C55.775 29.7239 56.0884 29.5 56.475 29.5H59.205C59.5916 29.5 59.905 29.7239 59.905 30C59.905 30.2761 59.5916 30.5 59.205 30.5H56.475C56.0884 30.5 55.775 30.2761 55.775 30ZM61.235 30C61.235 29.7239 61.5484 29.5 61.935 29.5H63.3C63.6866 29.5 64 29.7239 64 30C64 30.2761 63.6866 30.5 63.3 30.5H61.935C61.5484 30.5 61.235 30.2761 61.235 30Z" fill="#707070"/>
<path fill-rule="evenodd" clip-rule="evenodd" d="M8 42C8 41.7239 8.3134 41.5 8.7 41.5H10.065C10.4516 41.5 10.765 41.7239 10.765 42C10.765 42.2761 10.4516 42.5 10.065 42.5H8.7C8.3134 42.5 8 42.2761 8 42ZM12.095 42C12.095 41.7239 12.4084 41.5 12.795 41.5H15.525C15.9116 41.5 16.225 41.7239 16.225 42C16.225 42.2761 15.9116 42.5 15.525 42.5H12.795C12.4084 42.5 12.095 42.2761 12.095 42ZM17.555 42C17.555 41.7239 17.8684 41.5 18.255 41.5H20.985C21.3716 41.5 21.685 41.7239 21.685 42C21.685 42.2761 21.3716 42.5 20.985 42.5H18.255C17.8684 42.5 17.555 42.2761 17.555 42ZM23.015 42C23.015 41.7239 23.3284 41.5 23.715 41.5H26.445C26.8316 41.5 27.145 41.7239 27.145 42C27.145 42.2761 26.8316 42.5 26.445 42.5H23.715C23.3284 42.5 23.015 42.2761 23.015 42ZM28.475 42C28.475 41.7239 28.7884 41.5 29.175 41.5H31.905C32.2916 41.5 32.605 41.7239 32.605 42C32.605 42.2761 32.2916 42.5 31.905 42.5H29.175C28.7884 42.5 28.475 42.2761 28.475 42ZM33.935 42C33.935 41.7239 34.2484 41.5 34.635 41.5H37.365C37.7516 41.5 38.065 41.7239 38.065 42C38.065 42.2761 37.7516 42.5 37.365 42.5H34.635C34.2484 42.5 33.935 42.2761 33.935 42ZM39.395 42C39.395 41.7239 39.7084 41.5 40.095 41.5H42.825C43.2116 41.5 43.525 41.7239 43.525 42C43.525 42.2761 43.2116 42.5 42.825 42.5H40.095C39.7084 42.5 39.395 42.2761 39.395 42ZM44.855 42C44.855 41.7239 45.1684 41.5 45.555 41.5H48.285C48.6716 41.5 48.985 41.7239 48.985 42C48.985 42.2761 48.6716 42.5 48.285 42.5H45.555C45.1684 42.5 44.855 42.2761 44.855 42ZM50.315 42C50.315 41.7239 50.6284 41.5 51.015 41.5H53.745C54.1316 41.5 54.445 41.7239 54.445 42C54.445 42.2761 54.1316 42.5 53.745 42.5H51.015C50.6284 42.5 50.315 42.2761 50.315 42ZM55.775 42C55.775 41.7239 56.0884 41.5 56.475 41.5H59.205C59.5916 41.5 59.905 41.7239 59.905 42C59.905 42.2761 59.5916 42.5 59.205 42.5H56.475C56.0884 42.5 55.775 42.2761 55.775 42ZM61.235 42C61.235 41.7239 61.5484 41.5 61.935 41.5H63.3C63.6866 41.5 64 41.7239 64 42C64 42.2761 63.6866 42.5 63.3 42.5H61.935C61.5484 42.5 61.235 42.2761 61.235 42Z" fill="#707070"/>
<path d="M34.3229 56L7.25 42.4635V29.5365L34.3229 16H37.6771L8.75 30.4635V41.5365L37.6771 56H34.3229Z" fill="#23E798"/>
<path d="M37.6771 16.0001L48.1771 10.7501H62.1894L60.4697 12.4697L61.5304 13.5304L65.0607 10.0001L61.5304 6.46973L60.4697 7.53039L62.1894 9.25006H47.823L34.323 16.0001H37.6771Z" fill="#F47B8E"/>
<path d="M37.6771 56.0001L48.1771 61.2501H62.1894L60.4697 59.5304L61.5304 58.4697L65.0607 62.0001L61.5304 65.5304L60.4697 64.4697L62.1894 62.7501H47.823L34.323 56.0001H37.6771Z" fill="#F47B8E"/>
<path fill-rule="evenodd" clip-rule="evenodd" d="M8 16.5C8 16.2239 8.3134 16 8.7 16H10.065C10.4516 16 10.765 16.2239 10.765 16.5C10.765 16.7761 10.4516 17 10.065 17H8.7C8.3134 17 8 16.7761 8 16.5ZM12.095 16.5C12.095 16.2239 12.4084 16 12.795 16H15.525C15.9116 16 16.225 16.2239 16.225 16.5C16.225 16.7761 15.9116 17 15.525 17H12.795C12.4084 17 12.095 16.7761 12.095 16.5ZM17.555 16.5C17.555 16.2239 17.8684 16 18.255 16H20.985C21.3716 16 21.685 16.2239 21.685 16.5C21.685 16.7761 21.3716 17 20.985 17H18.255C17.8684 17 17.555 16.7761 17.555 16.5ZM23.015 16.5C23.015 16.2239 23.3284 16 23.715 16H26.445C26.8316 16 27.145 16.2239 27.145 16.5C27.145 16.7761 26.8316 17 26.445 17H23.715C23.3284 17 23.015 16.7761 23.015 16.5ZM28.475 16.5C28.475 16.2239 28.7884 16 29.175 16H31.905C32.2916 16 32.605 16.2239 32.605 16.5C32.605 16.7761 32.2916 17 31.905 17H29.175C28.7884 17 28.475 16.7761 28.475 16.5ZM33.935 16.5C33.935 16.2239 34.2484 16 34.635 16L37.365 16C37.7516 16 38.065 16.2239 38.065 16.5C38.065 16.7761 37.7516 17 37.365 17H34.635C34.2484 17 33.935 16.7761 33.935 16.5ZM39.395 16.5C39.395 16.2239 39.7084 16 40.095 16H42.825C43.2116 16 43.525 16.2239 43.525 16.5C43.525 16.7761 43.2116 17 42.825 17H40.095C39.7084 17 39.395 16.7761 39.395 16.5ZM44.855 16.5C44.855 16.2239 45.1684 16 45.555 16H48.285C48.6716 16 48.985 16.2239 48.985 16.5C48.985 16.7761 48.6716 17 48.285 17H45.555C45.1684 17 44.855 16.7761 44.855 16.5ZM50.315 16.5C50.315 16.2239 50.6284 16 51.015 16H53.745C54.1316 16 54.445 16.2239 54.445 16.5C54.445 16.7761 54.1316 17 53.745 17H51.015C50.6284 17 50.315 16.7761 50.315 16.5ZM55.775 16.5C55.775 16.2239 56.0884 16 56.475 16H59.205C59.5916 16 59.905 16.2239 59.905 16.5C59.905 16.7761 59.5916 17 59.205 17H56.475C56.0884 17 55.775 16.7761 55.775 16.5ZM61.235 16.5C61.235 16.2239 61.5484 16 61.935 16H63.3C63.6866 16 64 16.2239 64 16.5C64 16.7761 63.6866 17 63.3 17H61.935C61.5484 17 61.235 16.7761 61.235 16.5Z" fill="#16CA83"/>
<path fill-rule="evenodd" clip-rule="evenodd" d="M8 55.5C8 55.7761 8.3134 56 8.7 56H10.065C10.4516 56 10.765 55.7761 10.765 55.5C10.765 55.2239 10.4516 55 10.065 55H8.7C8.3134 55 8 55.2239 8 55.5ZM12.095 55.5C12.095 55.7761 12.4084 56 12.795 56H15.525C15.9116 56 16.225 55.7761 16.225 55.5C16.225 55.2239 15.9116 55 15.525 55H12.795C12.4084 55 12.095 55.2239 12.095 55.5ZM17.555 55.5C17.555 55.7761 17.8684 56 18.255 56H20.985C21.3716 56 21.685 55.7761 21.685 55.5C21.685 55.2239 21.3716 55 20.985 55H18.255C17.8684 55 17.555 55.2239 17.555 55.5ZM23.015 55.5C23.015 55.7761 23.3284 56 23.715 56H26.445C26.8316 56 27.145 55.7761 27.145 55.5C27.145 55.2239 26.8316 55 26.445 55H23.715C23.3284 55 23.015 55.2239 23.015 55.5ZM28.475 55.5C28.475 55.7761 28.7884 56 29.175 56H31.905C32.2916 56 32.605 55.7761 32.605 55.5C32.605 55.2239 32.2916 55 31.905 55H29.175C28.7884 55 28.475 55.2239 28.475 55.5ZM33.935 55.5C33.935 55.7761 34.2484 56 34.635 56H37.365C37.7516 56 38.065 55.7761 38.065 55.5C38.065 55.2239 37.7516 55 37.365 55H34.635C34.2484 55 33.935 55.2239 33.935 55.5ZM39.395 55.5C39.395 55.7761 39.7084 56 40.095 56H42.825C43.2116 56 43.525 55.7761 43.525 55.5C43.525 55.2239 43.2116 55 42.825 55H40.095C39.7084 55 39.395 55.2239 39.395 55.5ZM44.855 55.5C44.855 55.7761 45.1684 56 45.555 56H48.285C48.6716 56 48.985 55.7761 48.985 55.5C48.985 55.2239 48.6716 55 48.285 55H45.555C45.1684 55 44.855 55.2239 44.855 55.5ZM50.315 55.5C50.315 55.7761 50.6284 56 51.015 56H53.745C54.1316 56 54.445 55.7761 54.445 55.5C54.445 55.2239 54.1316 55 53.745 55H51.015C50.6284 55 50.315 55.2239 50.315 55.5ZM55.775 55.5C55.775 55.7761 56.0884 56 56.475 56H59.205C59.5916 56 59.905 55.7761 59.905 55.5C59.905 55.2239 59.5916 55 59.205 55H56.475C56.0884 55 55.775 55.2239 55.775 55.5ZM61.235 55.5C61.235 55.7761 61.5484 56 61.935 56H63.3C63.6866 56 64 55.7761 64 55.5C64 55.2239 63.6866 55 63.3 55H61.935C61.5484 55 61.235 55.2239 61.235 55.5Z" fill="#E28D8D"/>
</svg>
