<svg width="72" height="72" viewBox="0 0 72 72" fill="none" xmlns="http://www.w3.org/2000/svg">
<path fill-rule="evenodd" clip-rule="evenodd" d="M9 8.5C9 8.77614 9.3078 9 9.6875 9H11.0281C11.4078 9 11.7156 8.77614 11.7156 8.5C11.7156 8.22386 11.4078 8 11.0281 8H9.6875C9.3078 8 9 8.22386 9 8.5ZM13.0219 8.5C13.0219 8.77614 13.3297 9 13.7094 9H16.3906C16.7703 9 17.0781 8.77614 17.0781 8.5C17.0781 8.22386 16.7703 8 16.3906 8H13.7094C13.3297 8 13.0219 8.22386 13.0219 8.5ZM18.3844 8.5C18.3844 8.77614 18.6922 9 19.0719 9H21.7531C22.1328 9 22.4406 8.77614 22.4406 8.5C22.4406 8.22386 22.1328 8 21.7531 8H19.0719C18.6922 8 18.3844 8.22386 18.3844 8.5ZM23.7469 8.5C23.7469 8.77614 24.0547 9 24.4344 9H27.1156C27.4953 9 27.8031 8.77614 27.8031 8.5C27.8031 8.22386 27.4953 8 27.1156 8H24.4344C24.0547 8 23.7469 8.22386 23.7469 8.5ZM29.1094 8.5C29.1094 8.77614 29.4172 9 29.7969 9H32.4781C32.8578 9 33.1656 8.77614 33.1656 8.5C33.1656 8.22386 32.8578 8 32.4781 8H29.7969C29.4172 8 29.1094 8.22386 29.1094 8.5ZM34.4719 8.5C34.4719 8.77614 34.7797 9 35.1594 9H37.8406C38.2203 9 38.5281 8.77614 38.5281 8.5C38.5281 8.22386 38.2203 8 37.8406 8H35.1594C34.7797 8 34.4719 8.22386 34.4719 8.5ZM39.8344 8.5C39.8344 8.77614 40.1422 9 40.5219 9H43.2031C43.5828 9 43.8906 8.77614 43.8906 8.5C43.8906 8.22386 43.5828 8 43.2031 8H40.5219C40.1422 8 39.8344 8.22386 39.8344 8.5ZM45.1969 8.5C45.1969 8.77614 45.5047 9 45.8844 9H48.5656C48.9453 9 49.2531 8.77614 49.2531 8.5C49.2531 8.22386 48.9453 8 48.5656 8L45.8844 8C45.5047 8 45.1969 8.22386 45.1969 8.5ZM50.5594 8.5C50.5594 8.77614 50.8672 9 51.2469 9L53.9281 9C54.3078 9 54.6156 8.77614 54.6156 8.5C54.6156 8.22386 54.3078 8 53.9281 8H51.2469C50.8672 8 50.5594 8.22386 50.5594 8.5ZM55.9219 8.5C55.9219 8.77614 56.2297 9 56.6094 9H59.2906C59.6703 9 59.9781 8.77614 59.9781 8.5C59.9781 8.22386 59.6703 8 59.2906 8L56.6094 8C56.2297 8 55.9219 8.22386 55.9219 8.5ZM61.2844 8.5C61.2844 8.77614 61.5922 9 61.9719 9H63.3125C63.6922 9 64 8.77614 64 8.5C64 8.22386 63.6922 8 63.3125 8H61.9719C61.5922 8 61.2844 8.22386 61.2844 8.5Z" fill="#707070"/>
<path d="M8 9.25H23.5144L35.5144 36H37.1585L24.4856 7.75H8V9.25Z" fill="#23E798"/>
<path d="M37.1584 36L48.4855 61.25H62.1893L60.4696 59.5303L61.5303 58.4697L65.0606 62L61.5303 65.5303L60.4696 64.4697L62.1893 62.75H47.5144L35.5144 36H37.1584Z" fill="#F47B7B"/>
<path fill-rule="evenodd" clip-rule="evenodd" d="M8 36.5C8 36.7761 8.3134 37 8.7 37H10.065C10.4516 37 10.765 36.7761 10.765 36.5C10.765 36.2239 10.4516 36 10.065 36H8.7C8.3134 36 8 36.2239 8 36.5ZM12.095 36.5C12.095 36.7761 12.4084 37 12.795 37H15.525C15.9116 37 16.225 36.7761 16.225 36.5C16.225 36.2239 15.9116 36 15.525 36H12.795C12.4084 36 12.095 36.2239 12.095 36.5ZM17.555 36.5C17.555 36.7761 17.8684 37 18.255 37H20.985C21.3716 37 21.685 36.7761 21.685 36.5C21.685 36.2239 21.3716 36 20.985 36H18.255C17.8684 36 17.555 36.2239 17.555 36.5ZM23.015 36.5C23.015 36.7761 23.3284 37 23.715 37H26.445C26.8316 37 27.145 36.7761 27.145 36.5C27.145 36.2239 26.8316 36 26.445 36H23.715C23.3284 36 23.015 36.2239 23.015 36.5ZM28.475 36.5C28.475 36.7761 28.7884 37 29.175 37H31.905C32.2916 37 32.605 36.7761 32.605 36.5C32.605 36.2239 32.2916 36 31.905 36H29.175C28.7884 36 28.475 36.2239 28.475 36.5ZM33.935 36.5C33.935 36.7761 34.2484 37 34.635 37H37.365C37.7516 37 38.065 36.7761 38.065 36.5C38.065 36.2239 37.7516 36 37.365 36H34.635C34.2484 36 33.935 36.2239 33.935 36.5ZM39.395 36.5C39.395 36.7761 39.7084 37 40.095 37H42.825C43.2116 37 43.525 36.7761 43.525 36.5C43.525 36.2239 43.2116 36 42.825 36H40.095C39.7084 36 39.395 36.2239 39.395 36.5ZM44.855 36.5C44.855 36.7761 45.1684 37 45.555 37H48.285C48.6716 37 48.985 36.7761 48.985 36.5C48.985 36.2239 48.6716 36 48.285 36H45.555C45.1684 36 44.855 36.2239 44.855 36.5ZM50.315 36.5C50.315 36.7761 50.6284 37 51.015 37H53.745C54.1316 37 54.445 36.7761 54.445 36.5C54.445 36.2239 54.1316 36 53.745 36H51.015C50.6284 36 50.315 36.2239 50.315 36.5ZM55.775 36.5C55.775 36.7761 56.0884 37 56.475 37H59.205C59.5916 37 59.905 36.7761 59.905 36.5C59.905 36.2239 59.5916 36 59.205 36H56.475C56.0884 36 55.775 36.2239 55.775 36.5ZM61.235 36.5C61.235 36.7761 61.5484 37 61.935 37H63.3C63.6866 37 64 36.7761 64 36.5C64 36.2239 63.6866 36 63.3 36H61.935C61.5484 36 61.235 36.2239 61.235 36.5Z" fill="#E28D8D"/>
</svg>
