<svg width="39" height="28" viewBox="0 0 39 28" fill="none" xmlns="http://www.w3.org/2000/svg">
<rect y="5" width="39" height="16" rx="4" fill="#EFCC43"/>
<path d="M5.33203 17V9.00195H8.0918C9.25586 9.00195 10.0859 9.17383 10.582 9.51758C11.1641 9.92383 11.4551 10.4766 11.4551 11.1758C11.4551 11.5273 11.3809 11.8203 11.2324 12.0547C11.084 12.2891 10.832 12.5117 10.4766 12.7227C10.8984 12.9336 11.1836 13.1152 11.332 13.2676C11.6953 13.6543 11.877 14.1406 11.877 14.7266C11.877 15.5781 11.5254 16.1973 10.8223 16.584C10.5449 16.7363 10.2227 16.8438 9.85547 16.9062C9.49219 16.9688 9.00977 17 8.4082 17H5.33203ZM7.05469 12.2305H8.11523C8.67383 12.2305 9.06836 12.1816 9.29883 12.084C9.5957 11.959 9.74414 11.7148 9.74414 11.3516C9.74414 11.0273 9.61523 10.7949 9.35742 10.6543C9.10352 10.5098 8.68945 10.4375 8.11523 10.4375H7.05469V12.2305ZM7.05469 15.4941H8.21484C8.87109 15.4941 9.32227 15.4414 9.56836 15.3359C9.90039 15.1875 10.0664 14.9238 10.0664 14.5449C10.0664 14.1426 9.85352 13.8633 9.42773 13.707C9.19336 13.6211 8.77344 13.5781 8.16797 13.5781H7.05469V15.4941Z" fill="#1F1F1F"/>
<path d="M13.1953 17V9.00195H18.7969V10.5781H14.9824V12.0898H18.3164V13.666H14.9824V15.4238H18.9668V17H13.1953Z" fill="#1F1F1F"/>
<path d="M21.9492 17V10.5781H19.623V9.00195H26.1094V10.5781H23.7832V17H21.9492Z" fill="#1F1F1F"/>
<path d="M32.1035 15.5H27.9609L27.2695 17H25.3418L29.3438 8.88477H30.7207L34.7227 17H32.7891L32.1035 15.5ZM31.4824 14.1348L30.0293 10.9766L28.5762 14.1348H31.4824Z" fill="#1F1F1F"/>
</svg>
