<svg width="28" height="28" viewBox="0 0 28 28" fill="none" xmlns="http://www.w3.org/2000/svg">
<circle cx="14" cy="14" r="14" fill="#1674CA"/>
<path d="M16.0238 13.2476L17.343 11.0045L20.8988 16.5541L20.9005 17.6192L20.889 10.2904C20.8805 10.1113 20.7856 9.94738 20.6341 9.85073L14.2323 6.16081C14.0827 6.08703 13.8927 6.08788 13.7432 6.16314C13.723 6.17323 13.704 6.18428 13.6859 6.19633L13.6636 6.21038L7.44963 9.81862L7.42554 9.8296C7.39454 9.84387 7.36316 9.86204 7.33378 9.88313C7.21594 9.96778 7.13772 10.093 7.11241 10.2334C7.1086 10.2547 7.10579 10.2764 7.10449 10.2983L7.11426 16.2705L10.4263 11.1265C10.8433 10.4444 11.7518 10.2247 12.5953 10.2366L13.5851 10.2628L7.75262 19.6355L8.44016 20.0321L14.3425 10.2723L16.9513 10.2628L11.0642 20.2689L13.5176 21.6829L13.8107 21.8518C13.9347 21.9023 14.0808 21.9048 14.2059 21.8596L20.6976 18.0898L19.4565 18.8105L16.0238 13.2476ZM16.5271 20.5116L14.0493 16.6147L15.5619 14.0427L18.8161 19.1824L16.5271 20.5116Z" fill="#2D374B"/>
<path d="M14.0493 16.6146L16.5271 20.5115L18.8161 19.1823L15.5619 14.0426L14.0493 16.6146Z" fill="#28A0F0"/>
<path d="M20.9006 17.619L20.8989 16.554L17.3431 11.0044L16.0239 13.2475L19.4566 18.8103L20.6977 18.0897C20.8194 17.9906 20.8931 17.8452 20.9008 17.6883L20.9006 17.619Z" fill="#28A0F0"/>
<path d="M6 18.6234L7.75266 19.6354L13.5851 10.2627L12.5953 10.2365C11.7518 10.2246 10.8433 10.4443 10.4263 11.1264L7.11426 16.2704L6 17.9859V18.6234Z" fill="white"/>
<path d="M16.9514 10.2627L14.3425 10.2722L8.44019 20.032L10.5032 21.2222L11.0643 20.2688L16.9514 10.2627Z" fill="white"/>
<path d="M22 10.2493C21.9782 9.70257 21.6828 9.20209 21.22 8.91071L14.7343 5.17334C14.2766 4.94239 13.7048 4.9421 13.2462 5.17319C13.192 5.20059 6.93902 8.83445 6.93902 8.83445C6.85248 8.87605 6.76912 8.92558 6.69072 8.98182C6.27765 9.27846 6.02586 9.73946 6 10.2459V17.9859L7.11426 16.2704L7.10453 10.2982C7.10582 10.2764 7.10856 10.2549 7.11244 10.2337C7.13764 10.0932 7.21593 9.9678 7.33381 9.88309C7.36323 9.86199 13.7231 6.17318 13.7433 6.16306C13.8927 6.08784 14.0827 6.08695 14.2324 6.16073L20.6342 9.85057C20.7857 9.94723 20.8806 10.1111 20.889 10.2902V17.6883C20.8813 17.8452 20.8194 17.9906 20.6977 18.0897L19.4565 18.8103L18.8161 19.1822L16.5272 20.5115L14.2059 21.8594C14.0809 21.9047 13.9347 21.9021 13.8107 21.8516L11.0643 20.2688L10.5032 21.2222L12.9714 22.6462C13.053 22.6927 13.1257 22.7339 13.1854 22.7675C13.2778 22.8194 13.3407 22.8541 13.363 22.8649C13.5384 22.9503 13.7908 23 14.0182 23C14.2268 23 14.4301 22.9616 14.6225 22.8861L21.3649 18.9735C21.7518 18.6731 21.9795 18.22 22 17.7291V10.2493Z" fill="#96BEDC"/>
</svg>
