<svg width="22" height="24" viewBox="0 0 22 24" fill="none" xmlns="http://www.w3.org/2000/svg">
<path d="M4.44316 19.3139C6.08737 20.4129 8.02052 20.9996 9.99817 21C11.3117 21.0002 12.6124 20.7417 13.826 20.2391C15.0396 19.7366 16.1423 18.9999 17.0711 18.0711C17.9999 17.1423 18.7366 16.0396 19.2391 14.826C19.2428 14.8173 19.2463 14.8086 19.2499 14.7998C18.8754 15.1205 18.4529 15.3867 17.9947 15.5863C17.8913 15.7661 17.7817 15.9427 17.666 16.1158C16.6533 17.6305 15.2144 18.8111 13.531 19.5081C11.8476 20.2052 9.99528 20.3876 8.20824 20.0323C6.4212 19.6769 4.77963 18.7997 3.491 17.5116C2.20237 16.2235 1.32454 14.5822 0.968463 12.7954C0.612381 11.0085 0.794033 9.1561 1.49046 7.47242C2.18688 5.78873 3.36682 4.3493 4.88113 3.33606C6.39544 2.32282 8.17614 1.78124 9.99817 1.7798C11.2092 1.77883 12.4085 2.01659 13.5276 2.47947C14.6467 2.94235 15.6635 3.62128 16.52 4.47743C17.0994 5.05665 17.5978 5.7093 18.003 6.41738C18.458 6.61654 18.8777 6.88147 19.2499 7.20015C18.9984 6.58777 18.6854 5.99896 18.3139 5.44316C17.215 3.79895 15.6532 2.51751 13.826 1.76086C11.9988 1.00421 9.98829 0.80633 8.04865 1.19224C6.10901 1.57815 4.32735 2.53052 2.92894 3.92894C1.53052 5.32735 0.578151 7.10901 0.192241 9.04865C-0.19367 10.9883 0.00420946 12.9988 0.760859 14.826C1.51751 16.6532 2.79895 18.215 4.44316 19.3139Z" fill="#484848"/>
<path d="M12.5333 14.6031C12.123 14.7288 11.6425 14.7935 11.1093 14.8258V16.422H10.141V14.8386H9.3685V16.4293H8.40199V14.8148H6.45984L6.64289 13.6598C6.64289 13.6598 7.35861 13.6707 7.3458 13.6598C7.39083 13.6632 7.43609 13.6576 7.47887 13.6431C7.52166 13.6286 7.56107 13.6056 7.59475 13.5755C7.62907 13.546 7.65712 13.5099 7.67724 13.4693C7.69736 13.4288 7.70915 13.3846 7.7119 13.3394V8.99016C7.69323 8.86201 7.62554 8.74612 7.5231 8.6669C7.42066 8.58768 7.29147 8.55132 7.16275 8.56548C7.17373 8.55267 6.45984 8.56548 6.45984 8.56548V7.53125H8.4203V5.94238H9.37948V7.49098H10.1519V5.94238H11.1184V7.52027C11.518 7.55771 11.8909 7.62246 12.2169 7.73064C11.8909 8.10751 11.6203 8.53359 11.4177 8.99624C10.9875 8.59155 10.0975 8.6147 9.59781 8.6277C9.52253 8.62965 9.4561 8.63138 9.40144 8.63138V10.568C9.44827 10.568 9.50373 10.569 9.566 10.5701C9.94142 10.5768 10.5642 10.5879 11.034 10.414C11.0115 10.6062 11 10.8018 11 11C11 11.2061 11.0125 11.4093 11.0367 11.6089C10.5536 11.5144 10.0105 11.5264 9.64133 11.5345C9.54853 11.5366 9.46672 11.5384 9.39961 11.5382V13.6689C9.45333 13.6689 9.51648 13.6698 9.58713 13.6709C10.1064 13.6784 11.0317 13.692 11.6065 13.3888C11.8524 13.8402 12.1659 14.2495 12.5333 14.6031Z" fill="#F09242"/>
<path d="M4.75917 5.2449C6.19214 3.93455 8.06361 3.20788 10.0054 3.20788C11.9471 3.20788 13.8186 3.93455 15.2516 5.2449L15.8007 4.69576C14.2201 3.2385 12.1489 2.42944 9.99897 2.42944C7.84906 2.42944 5.77788 3.2385 4.19721 4.69576L4.75917 5.2449Z" fill="#A2A5A3"/>
<path d="M16.3078 5.19731L15.7586 5.74645C15.8346 5.82953 15.9086 5.91408 15.9806 6.00004C15.9871 6.00001 15.9935 6 16 6C16.36 6 16.7111 6.03805 17.0495 6.11034C16.8252 5.78665 16.5776 5.47716 16.3078 5.18449V5.19731Z" fill="#A2A5A3"/>
<path d="M17.0271 15.8944C16.6956 15.9636 16.352 16 16 16C15.9894 16 15.9789 16 15.9683 15.9999C15.9002 16.0808 15.8303 16.1605 15.7586 16.2389L16.3078 16.788C16.5686 16.5051 16.8087 16.2064 17.0271 15.8944Z" fill="#A2A5A3"/>
<path d="M4.24478 16.2443C2.93598 14.8117 2.21027 12.9414 2.21027 11.0009C2.21027 9.06041 2.93598 7.19008 4.24478 5.75743L3.69563 5.20829C2.23838 6.78895 1.42932 8.86013 1.42932 11.01C1.42932 13.16 2.23838 15.2311 3.69563 16.8118L4.24478 16.2443Z" fill="#A2A5A3"/>
<path d="M15.2443 16.7514C13.8113 18.0617 11.9398 18.7884 9.99805 18.7884C8.05629 18.7884 6.18482 18.0617 4.75185 16.7514L4.2027 17.3005C5.78337 18.7578 7.85455 19.5669 10.0045 19.5669C12.1544 19.5669 14.2255 18.7578 15.8062 17.3005L15.2443 16.7514Z" fill="#A2A5A3"/>
<circle cx="16" cy="11" r="4" fill="#E21313"/>
<path d="M16.1822 12.9059C16.0955 13.0314 15.9045 13.0314 15.8178 12.9059L14.0371 10.3285C13.9401 10.1881 14.0445 10 14.2194 10L17.7806 10C17.9555 10 18.0599 10.1881 17.9629 10.3285L16.1822 12.9059Z" fill="#FCD9D9"/>
</svg>
