<svg width="48" height="48" viewBox="0 0 48 48" fill="none" xmlns="http://www.w3.org/2000/svg">
<rect y="31" width="9" height="14" fill="#23E798"/>
<rect y="31" width="9" height="14" fill="url(#paint0_linear_701:1571)"/>
<rect y="29" width="9" height="2" fill="#12A56A"/>
<rect y="29" width="9" height="2" fill="url(#paint1_linear_701:1571)"/>
<rect x="13" y="22" width="9" height="23" fill="#23E798"/>
<rect x="13" y="22" width="9" height="23" fill="url(#paint2_linear_701:1571)"/>
<rect x="13" y="20" width="9" height="2" fill="#12A56A"/>
<rect x="13" y="20" width="9" height="2" fill="url(#paint3_linear_701:1571)"/>
<rect x="26" y="28" width="9" height="17" fill="#23E798"/>
<rect x="26" y="28" width="9" height="17" fill="url(#paint4_linear_701:1571)"/>
<rect x="39" y="17" width="9" height="28" fill="#23E798"/>
<rect x="39" y="17" width="9" height="28" fill="url(#paint5_linear_701:1571)"/>
<rect x="26" y="26" width="9" height="2" fill="#12A56A"/>
<rect x="26" y="26" width="9" height="2" fill="url(#paint6_linear_701:1571)"/>
<rect x="39" y="15" width="9" height="2" fill="#12A56A"/>
<rect x="39" y="15" width="9" height="2" fill="url(#paint7_linear_701:1571)"/>
<path fill-rule="evenodd" clip-rule="evenodd" d="M45.0606 3.06065L31.3081 16.8132L17.6284 10.2266L5.84342 18.2404L4.15649 15.7596L17.3716 6.77336L30.6918 13.1868L42.9393 0.939331L45.0606 3.06065Z" fill="#8F6CEF"/>
<circle cx="4.5" cy="17.5" r="2.5" fill="#B9A3F5"/>
<circle cx="4.5" cy="17.5" r="2.5" fill="url(#paint8_linear_701:1571)"/>
<circle cx="17.5" cy="8.5" r="2.5" fill="#B9A3F5"/>
<circle cx="17.5" cy="8.5" r="2.5" fill="url(#paint9_linear_701:1571)"/>
<circle cx="30.5" cy="14.5" r="2.5" fill="#B9A3F5"/>
<circle cx="30.5" cy="14.5" r="2.5" fill="url(#paint10_linear_701:1571)"/>
<circle cx="43.5" cy="2.5" r="2.5" fill="#B9A3F5"/>
<circle cx="43.5" cy="2.5" r="2.5" fill="url(#paint11_linear_701:1571)"/>
<defs>
<linearGradient id="paint0_linear_701:1571" x1="4.5" y1="31" x2="4.5" y2="45" gradientUnits="userSpaceOnUse">
<stop stop-color="#47EBA9"/>
<stop offset="1" stop-color="#12A56A"/>
</linearGradient>
<linearGradient id="paint1_linear_701:1571" x1="4.5" y1="29" x2="4.5" y2="31" gradientUnits="userSpaceOnUse">
<stop stop-color="#12A56A"/>
<stop offset="1" stop-color="#0E8053"/>
</linearGradient>
<linearGradient id="paint2_linear_701:1571" x1="17.5" y1="22" x2="17.5" y2="45" gradientUnits="userSpaceOnUse">
<stop stop-color="#47EBA9"/>
<stop offset="1" stop-color="#12A56A"/>
</linearGradient>
<linearGradient id="paint3_linear_701:1571" x1="17.5" y1="20" x2="17.5" y2="22" gradientUnits="userSpaceOnUse">
<stop stop-color="#12A56A"/>
<stop offset="1" stop-color="#0E8053"/>
</linearGradient>
<linearGradient id="paint4_linear_701:1571" x1="30.5" y1="28" x2="30.5" y2="45" gradientUnits="userSpaceOnUse">
<stop stop-color="#47EBA9"/>
<stop offset="1" stop-color="#12A56A"/>
</linearGradient>
<linearGradient id="paint5_linear_701:1571" x1="43.5" y1="17" x2="43.5" y2="45" gradientUnits="userSpaceOnUse">
<stop stop-color="#47EBA9"/>
<stop offset="1" stop-color="#12A56A"/>
</linearGradient>
<linearGradient id="paint6_linear_701:1571" x1="30.5" y1="26" x2="30.5" y2="28" gradientUnits="userSpaceOnUse">
<stop stop-color="#12A56A"/>
<stop offset="1" stop-color="#0E8053"/>
</linearGradient>
<linearGradient id="paint7_linear_701:1571" x1="43.5" y1="15" x2="43.5" y2="17" gradientUnits="userSpaceOnUse">
<stop stop-color="#12A56A"/>
<stop offset="1" stop-color="#0E8053"/>
</linearGradient>
<linearGradient id="paint8_linear_701:1571" x1="4.5" y1="15" x2="4.5" y2="20" gradientUnits="userSpaceOnUse">
<stop stop-color="#B9A3F5"/>
<stop offset="1" stop-color="#9D7FF1"/>
</linearGradient>
<linearGradient id="paint9_linear_701:1571" x1="17.5" y1="6" x2="17.5" y2="11" gradientUnits="userSpaceOnUse">
<stop stop-color="#B9A3F5"/>
<stop offset="1" stop-color="#9D7FF1"/>
</linearGradient>
<linearGradient id="paint10_linear_701:1571" x1="30.5" y1="12" x2="30.5" y2="17" gradientUnits="userSpaceOnUse">
<stop stop-color="#B9A3F5"/>
<stop offset="1" stop-color="#9D7FF1"/>
</linearGradient>
<linearGradient id="paint11_linear_701:1571" x1="43.5" y1="0" x2="43.5" y2="5" gradientUnits="userSpaceOnUse">
<stop stop-color="#B9A3F5"/>
<stop offset="1" stop-color="#9D7FF1"/>
</linearGradient>
</defs>
</svg>
