<svg width="24" height="28" viewBox="0 0 24 28" fill="none" xmlns="http://www.w3.org/2000/svg">
<path fill-rule="evenodd" clip-rule="evenodd" d="M13.5912 5H3H2V6V17.8791L3.60646 16.0942C3.41067 16.0319 3.20613 16 3 16V8C3.26264 8 3.52272 7.94827 3.76537 7.84776C4.00802 7.74725 4.2285 7.59993 4.41421 7.41421C4.59993 7.2285 4.74725 7.00802 4.84776 6.76537C4.94827 6.52272 5 6.26264 5 6H12.6912L13.5912 5ZM11.7872 7.00445C9.12448 7.11593 7 9.30987 7 12C7 12.1051 7.00324 12.2094 7.00963 12.3129L8.10181 11.0993C8.4121 9.7509 9.40404 8.66291 10.6954 8.21758L11.7872 7.00445ZM10.4087 19H21H22V18V6.12083L20.3935 7.90582C20.5893 7.96813 20.7939 8 21 8V16C20.7374 16 20.4773 16.0517 20.2346 16.1522C19.992 16.2528 19.7715 16.4001 19.5858 16.5858C19.4001 16.7715 19.2528 16.992 19.1522 17.2346C19.0517 17.4773 19 17.7374 19 18H11.3087L10.4087 19ZM12.2127 16.9956C14.8755 16.8841 17 14.6902 17 12C17 11.8949 16.9968 11.7906 16.9904 11.6871L15.8982 12.9006C15.5879 14.2491 14.5959 15.3371 13.3045 15.7824L12.2127 16.9956Z" fill="#F47B7B"/>
<path d="M3 22L21 2" stroke="#F47B7B"/>
</svg>
