<svg width="72" height="72" viewBox="0 0 72 72" fill="none" xmlns="http://www.w3.org/2000/svg">
<path fill-rule="evenodd" clip-rule="evenodd" d="M8 36C8 35.7239 8.3134 35.5 8.7 35.5H10.065C10.4516 35.5 10.765 35.7239 10.765 36C10.765 36.2761 10.4516 36.5 10.065 36.5H8.7C8.3134 36.5 8 36.2761 8 36ZM12.095 36C12.095 35.7239 12.4084 35.5 12.795 35.5H15.525C15.9116 35.5 16.225 35.7239 16.225 36C16.225 36.2761 15.9116 36.5 15.525 36.5H12.795C12.4084 36.5 12.095 36.2761 12.095 36ZM17.555 36C17.555 35.7239 17.8684 35.5 18.255 35.5H20.985C21.3716 35.5 21.685 35.7239 21.685 36C21.685 36.2761 21.3716 36.5 20.985 36.5H18.255C17.8684 36.5 17.555 36.2761 17.555 36ZM23.015 36C23.015 35.7239 23.3284 35.5 23.715 35.5H26.445C26.8316 35.5 27.145 35.7239 27.145 36C27.145 36.2761 26.8316 36.5 26.445 36.5H23.715C23.3284 36.5 23.015 36.2761 23.015 36ZM28.475 36C28.475 35.7239 28.7884 35.5 29.175 35.5H31.905C32.2916 35.5 32.605 35.7239 32.605 36C32.605 36.2761 32.2916 36.5 31.905 36.5H29.175C28.7884 36.5 28.475 36.2761 28.475 36ZM33.935 36C33.935 35.7239 34.2484 35.5 34.635 35.5H37.365C37.7516 35.5 38.065 35.7239 38.065 36C38.065 36.2761 37.7516 36.5 37.365 36.5H34.635C34.2484 36.5 33.935 36.2761 33.935 36ZM39.395 36C39.395 35.7239 39.7084 35.5 40.095 35.5H42.825C43.2116 35.5 43.525 35.7239 43.525 36C43.525 36.2761 43.2116 36.5 42.825 36.5H40.095C39.7084 36.5 39.395 36.2761 39.395 36ZM44.855 36C44.855 35.7239 45.1684 35.5 45.555 35.5H48.285C48.6716 35.5 48.985 35.7239 48.985 36C48.985 36.2761 48.6716 36.5 48.285 36.5H45.555C45.1684 36.5 44.855 36.2761 44.855 36ZM50.315 36C50.315 35.7239 50.6284 35.5 51.015 35.5H53.745C54.1316 35.5 54.445 35.7239 54.445 36C54.445 36.2761 54.1316 36.5 53.745 36.5H51.015C50.6284 36.5 50.315 36.2761 50.315 36ZM55.775 36C55.775 35.7239 56.0884 35.5 56.475 35.5H59.205C59.5916 35.5 59.905 35.7239 59.905 36C59.905 36.2761 59.5916 36.5 59.205 36.5H56.475C56.0884 36.5 55.775 36.2761 55.775 36ZM61.235 36C61.235 35.7239 61.5484 35.5 61.935 35.5H63.3C63.6866 35.5 64 35.7239 64 36C64 36.2761 63.6866 36.5 63.3 36.5H61.935C61.5484 36.5 61.235 36.2761 61.235 36Z" fill="#707070"/>
<path d="M27.1297 17.5492L6.63037 35.9986L26.8552 45.5492H30.498L9.40895 35.5905L29.4548 17.5492H27.1297Z" fill="#F47B7B"/>
<path d="M31.4526 46.0001L62.7029 60.7572L61.7228 57.8169L63.1985 57.3251L64.9999 62.7293L59.5957 64.5307L59.1038 63.055L61.9308 62.1127L27.8099 46.0001H31.4526Z" fill="#23E798"/>
<path d="M28.9538 18.0001L37.996 9.8621L37.5839 12.3348L39.1182 12.5905L40.0469 7.01855H34.4624V8.57401H37.102L26.6287 18.0001H28.9538Z" fill="#23E798"/>
<path fill-rule="evenodd" clip-rule="evenodd" d="M8 18.5C8 18.2239 8.3134 18 8.7 18H10.065C10.4516 18 10.765 18.2239 10.765 18.5C10.765 18.7761 10.4516 19 10.065 19H8.7C8.3134 19 8 18.7761 8 18.5ZM12.095 18.5C12.095 18.2239 12.4084 18 12.795 18H15.525C15.9116 18 16.225 18.2239 16.225 18.5C16.225 18.7761 15.9116 19 15.525 19H12.795C12.4084 19 12.095 18.7761 12.095 18.5ZM17.555 18.5C17.555 18.2239 17.8684 18 18.255 18H20.985C21.3716 18 21.685 18.2239 21.685 18.5C21.685 18.7761 21.3716 19 20.985 19H18.255C17.8684 19 17.555 18.7761 17.555 18.5ZM23.015 18.5C23.015 18.2239 23.3284 18 23.715 18H26.445C26.8316 18 27.145 18.2239 27.145 18.5C27.145 18.7761 26.8316 19 26.445 19H23.715C23.3284 19 23.015 18.7761 23.015 18.5ZM28.475 18.5C28.475 18.2239 28.7884 18 29.175 18H31.905C32.2916 18 32.605 18.2239 32.605 18.5C32.605 18.7761 32.2916 19 31.905 19H29.175C28.7884 19 28.475 18.7761 28.475 18.5ZM33.935 18.5C33.935 18.2239 34.2484 18 34.635 18L37.365 18C37.7516 18 38.065 18.2239 38.065 18.5C38.065 18.7761 37.7516 19 37.365 19H34.635C34.2484 19 33.935 18.7761 33.935 18.5ZM39.395 18.5C39.395 18.2239 39.7084 18 40.095 18H42.825C43.2116 18 43.525 18.2239 43.525 18.5C43.525 18.7761 43.2116 19 42.825 19H40.095C39.7084 19 39.395 18.7761 39.395 18.5ZM44.855 18.5C44.855 18.2239 45.1684 18 45.555 18H48.285C48.6716 18 48.985 18.2239 48.985 18.5C48.985 18.7761 48.6716 19 48.285 19H45.555C45.1684 19 44.855 18.7761 44.855 18.5ZM50.315 18.5C50.315 18.2239 50.6284 18 51.015 18H53.745C54.1316 18 54.445 18.2239 54.445 18.5C54.445 18.7761 54.1316 19 53.745 19H51.015C50.6284 19 50.315 18.7761 50.315 18.5ZM55.775 18.5C55.775 18.2239 56.0884 18 56.475 18H59.205C59.5916 18 59.905 18.2239 59.905 18.5C59.905 18.7761 59.5916 19 59.205 19H56.475C56.0884 19 55.775 18.7761 55.775 18.5ZM61.235 18.5C61.235 18.2239 61.5484 18 61.935 18H63.3C63.6866 18 64 18.2239 64 18.5C64 18.7761 63.6866 19 63.3 19H61.935C61.5484 19 61.235 18.7761 61.235 18.5Z" fill="#16CA83"/>
<path fill-rule="evenodd" clip-rule="evenodd" d="M8 45.5C8 45.2239 8.3134 45 8.7 45H10.065C10.4516 45 10.765 45.2239 10.765 45.5C10.765 45.7761 10.4516 46 10.065 46H8.7C8.3134 46 8 45.7761 8 45.5ZM12.095 45.5C12.095 45.2239 12.4084 45 12.795 45H15.525C15.9116 45 16.225 45.2239 16.225 45.5C16.225 45.7761 15.9116 46 15.525 46H12.795C12.4084 46 12.095 45.7761 12.095 45.5ZM17.555 45.5C17.555 45.2239 17.8684 45 18.255 45H20.985C21.3716 45 21.685 45.2239 21.685 45.5C21.685 45.7761 21.3716 46 20.985 46H18.255C17.8684 46 17.555 45.7761 17.555 45.5ZM23.015 45.5C23.015 45.2239 23.3284 45 23.715 45H26.445C26.8316 45 27.145 45.2239 27.145 45.5C27.145 45.7761 26.8316 46 26.445 46H23.715C23.3284 46 23.015 45.7761 23.015 45.5ZM28.475 45.5C28.475 45.2239 28.7884 45 29.175 45H31.905C32.2916 45 32.605 45.2239 32.605 45.5C32.605 45.7761 32.2916 46 31.905 46H29.175C28.7884 46 28.475 45.7761 28.475 45.5ZM33.935 45.5C33.935 45.2239 34.2484 45 34.635 45H37.365C37.7516 45 38.065 45.2239 38.065 45.5C38.065 45.7761 37.7516 46 37.365 46H34.635C34.2484 46 33.935 45.7761 33.935 45.5ZM39.395 45.5C39.395 45.2239 39.7084 45 40.095 45H42.825C43.2116 45 43.525 45.2239 43.525 45.5C43.525 45.7761 43.2116 46 42.825 46H40.095C39.7084 46 39.395 45.7761 39.395 45.5ZM44.855 45.5C44.855 45.2239 45.1684 45 45.555 45H48.285C48.6716 45 48.985 45.2239 48.985 45.5C48.985 45.7761 48.6716 46 48.285 46H45.555C45.1684 46 44.855 45.7761 44.855 45.5ZM50.315 45.5C50.315 45.2239 50.6284 45 51.015 45H53.745C54.1316 45 54.445 45.2239 54.445 45.5C54.445 45.7761 54.1316 46 53.745 46H51.015C50.6284 46 50.315 45.7761 50.315 45.5ZM55.775 45.5C55.775 45.2239 56.0884 45 56.475 45H59.205C59.5916 45 59.905 45.2239 59.905 45.5C59.905 45.7761 59.5916 46 59.205 46H56.475C56.0884 46 55.775 45.7761 55.775 45.5ZM61.235 45.5C61.235 45.2239 61.5484 45 61.935 45H63.3C63.6866 45 64 45.2239 64 45.5C64 45.7761 63.6866 46 63.3 46H61.935C61.5484 46 61.235 45.7761 61.235 45.5Z" fill="#E28D8D"/>
</svg>
