<?xml version="1.0" encoding="utf-8"?>
<svg xml:space="preserve" viewBox="0 0 100 100" y="0" x="0" xmlns="http://www.w3.org/2000/svg" id="圖層_1" version="1.1" style="height: 100%; width: 100%; background: none; shape-rendering: auto; animation-play-state: running; animation-delay: 0s;" width="300px" height="300px"><g class="ldl-scale" style="transform-origin: 50% 50%; transform: rotate(0deg) scale(1, 1); animation-play-state: running; animation-delay: 0s;"><g class="ldl-ani" style="animation-play-state: running; animation-delay: 0s;"><g class="ldl-layer" style="animation-play-state: running; animation-delay: 0s;"><g class="ldl-ani" style="transform-origin: 50px 50px; transform: matrix(0.01, 0, 0, 0.01, 0, 0); animation: 1s linear 0s 1 alternate forwards running zoom-in-c9f66ee8-cd3b-47b7-b096-af763361183a;"><path fill="#e15b64" d="M69.863 19.947L50 39.81 30.137 19.946c-2.809-2.809-7.379-2.809-10.189 0s-2.809 7.38 0 10.189l19.863 19.863-19.863 19.864c-2.809 2.809-2.809 7.38 0 10.189s7.379 2.809 10.189 0L50 60.188l19.863 19.863c2.809 2.809 7.379 2.809 10.189 0s2.809-7.38 0-10.189L60.189 49.998l19.863-19.863c2.809-2.809 2.809-7.38 0-10.189s-7.379-2.808-10.189.001z" style="fill: rgb(244, 123, 123); animation-play-state: running; animation-delay: 0s;"></path></g></g><metadata xmlns:d="https://loading.io/stock/" style="animation-play-state: running; animation-delay: 0s;"><d:name style="animation-play-state: running; animation-delay: 0s;">cross</d:name><d:tags style="animation-play-state: running; animation-delay: 0s;">times,delete,clear,remove,error,forbid,deny,negative,drop,refuse,reject,cross,form</d:tags><d:license style="animation-play-state: running; animation-delay: 0s;">free</d:license><d:slug style="animation-play-state: running; animation-delay: 0s;">gsd528</d:slug></metadata></g></g><style id="zoom-in-c9f66ee8-cd3b-47b7-b096-af763361183a" data-anikit="">@keyframes zoom-in-c9f66ee8-cd3b-47b7-b096-af763361183a
{
  0% {
    animation-timing-function: cubic-bezier(0.0436,0.6939,0.3878,0.8531);
    transform: matrix(0.01,0,0,0.01,0,0);
  }
  100% {
    transform: matrix(1,0,0,1,0,0);
  }
}</style><!-- [ldio] generated by https://loading.io/ --></svg>