<svg width="16" height="16" viewBox="0 0 16 16" fill="none" xmlns="http://www.w3.org/2000/svg">
<path d="M0 5.1363L7.99999 13.9998L16 5.1363L12 1H4L0 5.1363Z" fill="#47EBA9"/>
<path d="M4 5.13663L7.99999 14.0001L0 5.13663H4Z" fill="url(#paint0_linear)"/>
<path d="M12 5.13663L8 14.0001L16 5.13663H12Z" fill="url(#paint1_linear)"/>
<path d="M4 5.1363H0L4 1H6L4 5.1363Z" fill="url(#paint2_linear)"/>
<path d="M16 5.1363H12L10 1H12L16 5.1363Z" fill="url(#paint3_linear)"/>
<path d="M12 5.13663L8 14.0001L4 5.13663H12Z" fill="url(#paint4_linear)"/>
<path d="M6 1L4 5.1363H12L10 1H6Z" fill="url(#paint5_linear)"/>
<path d="M6 1L4 5.1363L7.83333 2.47725L6 1Z" fill="white" fill-opacity="0.1"/>
<path d="M7.8335 2.47725L12.0002 5.1363L10.0002 1L7.8335 2.47725Z" fill="black" fill-opacity="0.05"/>
<defs>
<linearGradient id="paint0_linear" x1="2.16666" y1="5.13663" x2="7.01321" y2="14.5103" gradientUnits="userSpaceOnUse">
<stop stop-color="#23E798"/>
<stop offset="1" stop-color="#16CA82"/>
</linearGradient>
<linearGradient id="paint1_linear" x1="14" y1="5.13663" x2="9.00271" y2="14.5334" gradientUnits="userSpaceOnUse">
<stop stop-color="#10935F"/>
<stop offset="1" stop-color="#0C6E47"/>
</linearGradient>
<linearGradient id="paint2_linear" x1="5" y1="1" x2="1.86268" y2="5.50494" gradientUnits="userSpaceOnUse">
<stop stop-color="#6CEFBA"/>
<stop offset="1" stop-color="#47EBA9"/>
</linearGradient>
<linearGradient id="paint3_linear" x1="10.8333" y1="1" x2="13.8129" y2="5.48223" gradientUnits="userSpaceOnUse">
<stop stop-color="#16CA83"/>
<stop offset="1" stop-color="#12A56A"/>
</linearGradient>
<linearGradient id="paint4_linear" x1="8" y1="5.13663" x2="8" y2="14.0001" gradientUnits="userSpaceOnUse">
<stop stop-color="#16CA83"/>
<stop offset="1" stop-color="#12A56A"/>
</linearGradient>
<linearGradient id="paint5_linear" x1="8" y1="1" x2="8" y2="5.1363" gradientUnits="userSpaceOnUse">
<stop stop-color="#47EBA9"/>
<stop offset="1" stop-color="#23E798"/>
</linearGradient>
</defs>
</svg>
