<svg width="44" height="44" viewBox="0 0 44 44" fill="none" xmlns="http://www.w3.org/2000/svg">
<path fill-rule="evenodd" clip-rule="evenodd" d="M32 24C38.1595 23.4908 43 18.3201 43 12.0165V6.00412C43 4.89727 42.1046 4 41 4H32V7.00617H40V12.0165C40 16.6585 36.5 20.4815 32 20.9799V24Z" fill="#12A56A"/>
<path fill-rule="evenodd" clip-rule="evenodd" d="M12 24C5.84047 23.4908 1 18.3201 1 12.0165V6.00412C1 4.89727 1.89543 4 3 4H12V7.00617H4V12.0165C4 16.6585 7.50005 20.4815 12 20.9799V24Z" fill="#12A56A"/>
<path d="M6 39.6C6 38.7163 6.71634 38 7.6 38H36.4C37.2837 38 38 38.7163 38 39.6C38 39.8209 37.8209 40 37.6 40H6.4C6.17909 40 6 39.8209 6 39.6Z" fill="#16CA83"/>
<path d="M3 43.6C3 42.7163 3.71634 42 4.6 42H39.4C40.2837 42 41 42.7163 41 43.6C41 43.8209 40.8209 44 40.6 44H3.4C3.17909 44 3 43.8209 3 43.6Z" fill="#12A56A"/>
<path fill-rule="evenodd" clip-rule="evenodd" d="M10 6C10 2 12 0 16 0H28C33 0 34 2 34 6V17C34 21.6007 31.4109 25.5967 27.6103 27.6105C27.593 27.6198 27.5754 27.6291 27.5574 27.6383C27.0051 27.9274 26.4275 28.1748 25.8287 28.3762C24.6646 28.9596 23.5 29.9842 23.5 32.5C23.5 33.5 24.4 36 28 36H16C19.6 36 20.5 33.5 20.5 32.5C20.5 29.5915 19.0229 28.9048 17.7167 28.2977C17.3691 28.1361 17.0335 27.9801 16.7412 27.7894C16.6096 27.7251 16.4794 27.6585 16.3505 27.5896C16.2325 27.5265 16.1156 27.4615 16 27.3946C12.4132 25.3198 10 21.4417 10 17V6ZM16 3C14.3431 3 13 4.34315 13 6V17C13 21.9706 17.0294 26 22 26C26.9706 26 31 21.9706 31 17V6C31 4.34315 29.6569 3 28 3H16Z" fill="#16CA83"/>
</svg>
