<svg width="24" height="24" viewBox="0 0 24 24" fill="none" xmlns="http://www.w3.org/2000/svg">
<path d="M13.3137 6.94975L16.1421 9.77818L5.53553 20.3848C5.14501 20.7753 4.51184 20.7753 4.12132 20.3848L2.7071 18.9706C2.31658 18.58 2.31658 17.9469 2.7071 17.5564L13.3137 6.94975Z" fill="#C4C4C4"/>
<path d="M13.3137 6.94975L16.1421 9.77818L5.53553 20.3848C5.14501 20.7753 4.51184 20.7753 4.12132 20.3848L2.7071 18.9706C2.31658 18.58 2.31658 17.9469 2.7071 17.5564L13.3137 6.94975Z" fill="url(#paint0_linear)"/>
<path d="M17.5355 2.70711C17.9261 2.31658 18.5592 2.31658 18.9498 2.70711L20.364 4.12132C20.7545 4.51184 20.7545 5.14501 20.364 5.53553L16.8284 9.07107L14 6.24264L17.5355 2.70711Z" fill="url(#paint1_linear)"/>
<path d="M11.9466 0.0474123C11.9541 -0.0158041 12.0459 -0.0158041 12.0534 0.0474123L12.1163 0.577741C12.1976 1.26254 12.7375 1.80245 13.4223 1.8837L13.9526 1.94663C14.0158 1.95413 14.0158 2.04587 13.9526 2.05337L13.4223 2.1163C12.7375 2.19755 12.1976 2.73746 12.1163 3.42225L12.0534 3.95258C12.0459 4.01581 11.9541 4.01581 11.9466 3.95258L11.8837 3.42225C11.8024 2.73746 11.2625 2.19755 10.5777 2.1163L10.0474 2.05337C9.9842 2.04587 9.9842 1.95413 10.0474 1.94663L10.5777 1.8837C11.2625 1.80245 11.8024 1.26254 11.8837 0.577741L11.9466 0.0474123Z" fill="#EFCC43"/>
<path d="M6.94663 4.04741C6.95413 3.9842 7.04587 3.9842 7.05337 4.04741L7.1163 4.57774C7.19755 5.26254 7.73746 5.80245 8.42225 5.8837L8.95258 5.94663C9.01581 5.95413 9.01581 6.04587 8.95258 6.05337L8.42225 6.1163C7.73746 6.19755 7.19755 6.73746 7.1163 7.42225L7.05337 7.95258C7.04587 8.01581 6.95413 8.01581 6.94663 7.95258L6.8837 7.42225C6.80245 6.73746 6.26254 6.19755 5.57774 6.1163L5.04741 6.05337C4.9842 6.04587 4.9842 5.95413 5.04741 5.94663L5.57774 5.8837C6.26254 5.80245 6.80245 5.26254 6.8837 4.57774L6.94663 4.04741Z" fill="#EFCC43"/>
<path d="M10.9733 5.02371C10.9771 4.9921 11.0229 4.9921 11.0267 5.02371L11.0581 5.28887C11.0988 5.63127 11.3687 5.90122 11.7111 5.94185L11.9763 5.97331C12.0079 5.97707 12.0079 6.02293 11.9763 6.02669L11.7111 6.05815C11.3687 6.09878 11.0988 6.36873 11.0581 6.71113L11.0267 6.97629C11.0229 7.0079 10.9771 7.0079 10.9733 6.97629L10.9419 6.71113C10.9012 6.36873 10.6313 6.09878 10.2889 6.05815L10.0237 6.02669C9.9921 6.02293 9.9921 5.97707 10.0237 5.97331L10.2889 5.94185C10.6313 5.90122 10.9012 5.63127 10.9419 5.28887L10.9733 5.02371Z" fill="#EFCC43"/>
<path d="M21.9466 9.04741C21.9541 8.9842 22.0459 8.9842 22.0534 9.04741L22.1163 9.57774C22.1976 10.2625 22.7375 10.8024 23.4223 10.8837L23.9526 10.9466C24.0158 10.9541 24.0158 11.0459 23.9526 11.0534L23.4223 11.1163C22.7375 11.1976 22.1976 11.7375 22.1163 12.4223L22.0534 12.9526C22.0459 13.0158 21.9541 13.0158 21.9466 12.9526L21.8837 12.4223C21.8024 11.7375 21.2625 11.1976 20.5777 11.1163L20.0474 11.0534C19.9842 11.0459 19.9842 10.9541 20.0474 10.9466L20.5777 10.8837C21.2625 10.8024 21.8024 10.2625 21.8837 9.57774L21.9466 9.04741Z" fill="#EFCC43"/>
<path d="M17.9466 14.0474C17.9541 13.9842 18.0459 13.9842 18.0534 14.0474L18.1163 14.5777C18.1976 15.2625 18.7375 15.8024 19.4223 15.8837L19.9526 15.9466C20.0158 15.9541 20.0158 16.0459 19.9526 16.0534L19.4223 16.1163C18.7375 16.1976 18.1976 16.7375 18.1163 17.4223L18.0534 17.9526C18.0459 18.0158 17.9541 18.0158 17.9466 17.9526L17.8837 17.4223C17.8024 16.7375 17.2625 16.1976 16.5777 16.1163L16.0474 16.0534C15.9842 16.0459 15.9842 15.9541 16.0474 15.9466L16.5777 15.8837C17.2625 15.8024 17.8024 15.2625 17.8837 14.5777L17.9466 14.0474Z" fill="#EFCC43"/>
<path d="M17.9733 11.0237C17.9771 10.9921 18.0229 10.9921 18.0267 11.0237L18.0581 11.2889C18.0988 11.6313 18.3687 11.9012 18.7111 11.9419L18.9763 11.9733C19.0079 11.9771 19.0079 12.0229 18.9763 12.0267L18.7111 12.0581C18.3687 12.0988 18.0988 12.3687 18.0581 12.7111L18.0267 12.9763C18.0229 13.0079 17.9771 13.0079 17.9733 12.9763L17.9419 12.7111C17.9012 12.3687 17.6313 12.0988 17.2889 12.0581L17.0237 12.0267C16.9921 12.0229 16.9921 11.9771 17.0237 11.9733L17.2889 11.9419C17.6313 11.9012 17.9012 11.6313 17.9419 11.2889L17.9733 11.0237Z" fill="#EFCC43"/>
<defs>
<linearGradient id="paint0_linear" x1="13" y1="13" x2="10" y2="10" gradientUnits="userSpaceOnUse">
<stop stop-color="#1F1F1F"/>
<stop offset="1" stop-color="#707070"/>
</linearGradient>
<linearGradient id="paint1_linear" x1="15.4792" y1="4.5" x2="18.4792" y2="7.5" gradientUnits="userSpaceOnUse">
<stop stop-color="#E0E1E0"/>
<stop offset="1" stop-color="#B6B9B8"/>
</linearGradient>
</defs>
</svg>
