<svg width="48" height="48" viewBox="0 0 48 48" fill="none" xmlns="http://www.w3.org/2000/svg">
<path d="M0 16L24 46L48 16L36 2H12L0 16Z" fill="#47EBA9"/>
<path d="M12 16L24 46L0 16H12Z" fill="url(#paint0_linear)"/>
<path d="M36 16L24 46L48 16H36Z" fill="url(#paint1_linear)"/>
<path d="M12 16H0L12 2H18L12 16Z" fill="url(#paint2_linear)"/>
<path d="M48 16H36L30 2H36L48 16Z" fill="url(#paint3_linear)"/>
<path d="M36 16L24 46L12 16H36Z" fill="url(#paint4_linear)"/>
<path d="M18 2L12 16H36L30 2H18Z" fill="url(#paint5_linear)"/>
<path d="M18 2L12 16L23.5 7L18 2Z" fill="white" fill-opacity="0.1"/>
<path d="M23.5 7L36 16L30 2L23.5 7Z" fill="black" fill-opacity="0.05"/>
<defs>
<linearGradient id="paint0_linear" x1="6.5" y1="16" x2="24" y2="46" gradientUnits="userSpaceOnUse">
<stop stop-color="#23E798"/>
<stop offset="1" stop-color="#16CA82"/>
</linearGradient>
<linearGradient id="paint1_linear" x1="42" y1="16" x2="24" y2="46" gradientUnits="userSpaceOnUse">
<stop stop-color="#10935F"/>
<stop offset="1" stop-color="#0C6E47"/>
</linearGradient>
<linearGradient id="paint2_linear" x1="15" y1="2" x2="4" y2="16" gradientUnits="userSpaceOnUse">
<stop stop-color="#6CEFBA"/>
<stop offset="1" stop-color="#47EBA9"/>
</linearGradient>
<linearGradient id="paint3_linear" x1="32.5" y1="2" x2="43" y2="16" gradientUnits="userSpaceOnUse">
<stop stop-color="#16CA83"/>
<stop offset="1" stop-color="#12A56A"/>
</linearGradient>
<linearGradient id="paint4_linear" x1="24" y1="16" x2="24" y2="46" gradientUnits="userSpaceOnUse">
<stop stop-color="#16CA83"/>
<stop offset="1" stop-color="#12A56A"/>
</linearGradient>
<linearGradient id="paint5_linear" x1="24" y1="2" x2="24" y2="16" gradientUnits="userSpaceOnUse">
<stop stop-color="#47EBA9"/>
<stop offset="1" stop-color="#23E798"/>
</linearGradient>
</defs>
</svg>
