<svg width="48" height="48" viewBox="0 0 48 48" fill="none" xmlns="http://www.w3.org/2000/svg">
<path fill-rule="evenodd" clip-rule="evenodd" d="M24 45C35.598 45 45 35.598 45 24C45 12.402 35.598 3 24 3C12.402 3 3 12.402 3 24C3 35.598 12.402 45 24 45ZM24 48C37.2548 48 48 37.2548 48 24C48 10.7452 37.2548 0 24 0C10.7452 0 0 10.7452 0 24C0 37.2548 10.7452 48 24 48Z" fill="#A2A5A3"/>
<path fill-rule="evenodd" clip-rule="evenodd" d="M23 13C22.4477 13 22 13.4477 22 14V16C22 16.5523 22.4477 17 23 17H25C25.5523 17 26 16.5523 26 16V14C26 13.4477 25.5523 13 25 13H23ZM23 20C22.4477 20 22 20.4477 22 21V35C22 35.5523 22.4477 36 23 36H25C25.5523 36 26 35.5523 26 35V21C26 20.4477 25.5523 20 25 20H23Z" fill="#A2A5A3"/>
</svg>
