<svg width="28" height="28" viewBox="0 0 28 28" fill="none" xmlns="http://www.w3.org/2000/svg">
<g opacity="0.64" clip-path="url(#clip0)">
<mask id="mask0" style="mask-type:alpha" maskUnits="userSpaceOnUse" x="0" y="0" width="32" height="32">
<circle cx="16" cy="16" r="16" fill="#C4C4C4"/>
</mask>
<g mask="url(#mask0)">
<path d="M14 28C21.7322 28 28 21.7322 28 14C28 6.2678 21.7322 0 14 0C6.2678 0 0 6.2678 0 14C0 21.7322 6.2678 28 14 28Z" fill="#070A0E"/>
<path fill-rule="evenodd" clip-rule="evenodd" d="M8.503 18.3999C8.11343 18.16 7.875 17.7338 7.875 17.2748V14.7124C7.875 14.4082 8.12125 14.1617 8.42353 14.163C8.51994 14.163 8.61506 14.1892 8.69844 14.2377L14.443 17.6092C14.7791 17.8059 14.9863 18.1678 14.9863 18.5599V21.2141C14.9876 21.5786 14.6945 21.875 14.3322 21.875C14.2111 21.875 14.0912 21.8409 13.9883 21.778L8.503 18.3999ZM17.0658 13.5362C17.4019 13.7329 17.6078 14.0961 17.6091 14.4869V19.8739C17.6091 20.0326 17.5244 20.1794 17.3863 20.2568L16.129 20.9689C16.1133 20.978 16.0964 20.9846 16.0781 20.9898V17.9987C16.0781 17.6118 15.8762 17.2525 15.5453 17.0532L10.5004 14.0161V10.6394C10.5004 10.3352 10.7466 10.0887 11.0489 10.09C11.1453 10.09 11.2404 10.1162 11.3238 10.1647L17.0658 13.5362ZM19.5804 9.55756C19.9178 9.75426 20.125 10.1175 20.125 10.5096V18.3776C20.1237 18.5389 20.0351 18.6871 19.8944 18.7645L18.7022 19.4123V13.9348C18.7022 13.548 18.5003 13.19 18.1719 12.9907L13.015 9.87753V6.67523C13.015 6.57819 13.0411 6.48247 13.088 6.39854C13.2404 6.13627 13.5753 6.0471 13.8358 6.19922L19.5804 9.55756Z" fill="#00D395"/>
</g>
</g>
<defs>
<clipPath id="clip0">
<rect width="28" height="28" fill="white"/>
</clipPath>
</defs>
</svg>
