<svg width="25" height="25" viewBox="0 0 25 25" fill="none" xmlns="http://www.w3.org/2000/svg">
<path d="M12 23C18.0751 23 23 18.0751 23 12C23 5.92487 18.0751 1 12 1C5.92487 1 1 5.92487 1 12C1 18.0751 5.92487 23 12 23Z" fill="#0A5C3B"/>
<mask id="mask0" mask-type="alpha" maskUnits="userSpaceOnUse" x="0" y="0" width="24" height="24">
<path d="M23.5 12C23.5 18.3513 18.3513 23.5 12 23.5C5.64873 23.5 0.5 18.3513 0.5 12C0.5 5.64873 5.64873 0.5 12 0.5C18.3513 0.5 23.5 5.64873 23.5 12Z" fill="#0A5C3B" stroke="black"/>
</mask>
<g mask="url(#mask0)">
<path d="M12 24C18.6274 24 24 18.6274 24 12C24 5.37258 18.6274 0 12 0C5.37258 0 0 5.37258 0 12C0 18.6274 5.37258 24 12 24Z" fill="#0A5C3B"/>
<path d="M11.9999 31.2501C17.0625 31.2501 21.1666 27.146 21.1666 22.0834C21.1666 17.0208 17.0625 12.9167 11.9999 12.9167C6.93731 12.9167 2.83325 17.0208 2.83325 22.0834C2.83325 27.146 6.93731 31.2501 11.9999 31.2501Z" fill="#12A56A"/>
<path d="M12.0001 12.9167C14.5314 12.9167 16.5834 10.8646 16.5834 8.33333C16.5834 5.80203 14.5314 3.75 12.0001 3.75C9.46878 3.75 7.41675 5.80203 7.41675 8.33333C7.41675 10.8646 9.46878 12.9167 12.0001 12.9167Z" fill="#12A56A"/>
</g>
</svg>
