<svg width="72" height="72" viewBox="0 0 72 72" fill="none" xmlns="http://www.w3.org/2000/svg">
<path fill-rule="evenodd" clip-rule="evenodd" d="M8 36C8 35.7239 8.3134 35.5 8.7 35.5H10.065C10.4516 35.5 10.765 35.7239 10.765 36C10.765 36.2761 10.4516 36.5 10.065 36.5H8.7C8.3134 36.5 8 36.2761 8 36ZM12.095 36C12.095 35.7239 12.4084 35.5 12.795 35.5H15.525C15.9116 35.5 16.225 35.7239 16.225 36C16.225 36.2761 15.9116 36.5 15.525 36.5H12.795C12.4084 36.5 12.095 36.2761 12.095 36ZM17.555 36C17.555 35.7239 17.8684 35.5 18.255 35.5H20.985C21.3716 35.5 21.685 35.7239 21.685 36C21.685 36.2761 21.3716 36.5 20.985 36.5H18.255C17.8684 36.5 17.555 36.2761 17.555 36ZM23.015 36C23.015 35.7239 23.3284 35.5 23.715 35.5H26.445C26.8316 35.5 27.145 35.7239 27.145 36C27.145 36.2761 26.8316 36.5 26.445 36.5H23.715C23.3284 36.5 23.015 36.2761 23.015 36ZM28.475 36C28.475 35.7239 28.7884 35.5 29.175 35.5H31.905C32.2916 35.5 32.605 35.7239 32.605 36C32.605 36.2761 32.2916 36.5 31.905 36.5H29.175C28.7884 36.5 28.475 36.2761 28.475 36ZM33.935 36C33.935 35.7239 34.2484 35.5 34.635 35.5H37.365C37.7516 35.5 38.065 35.7239 38.065 36C38.065 36.2761 37.7516 36.5 37.365 36.5H34.635C34.2484 36.5 33.935 36.2761 33.935 36ZM39.395 36C39.395 35.7239 39.7084 35.5 40.095 35.5H42.825C43.2116 35.5 43.525 35.7239 43.525 36C43.525 36.2761 43.2116 36.5 42.825 36.5H40.095C39.7084 36.5 39.395 36.2761 39.395 36ZM44.855 36C44.855 35.7239 45.1684 35.5 45.555 35.5H48.285C48.6716 35.5 48.985 35.7239 48.985 36C48.985 36.2761 48.6716 36.5 48.285 36.5H45.555C45.1684 36.5 44.855 36.2761 44.855 36ZM50.315 36C50.315 35.7239 50.6284 35.5 51.015 35.5H53.745C54.1316 35.5 54.445 35.7239 54.445 36C54.445 36.2761 54.1316 36.5 53.745 36.5H51.015C50.6284 36.5 50.315 36.2761 50.315 36ZM55.775 36C55.775 35.7239 56.0884 35.5 56.475 35.5H59.205C59.5916 35.5 59.905 35.7239 59.905 36C59.905 36.2761 59.5916 36.5 59.205 36.5H56.475C56.0884 36.5 55.775 36.2761 55.775 36ZM61.235 36C61.235 35.7239 61.5484 35.5 61.935 35.5H63.3C63.6866 35.5 64 35.7239 64 36C64 36.2761 63.6866 36.5 63.3 36.5H61.935C61.5484 36.5 61.235 36.2761 61.235 36Z" fill="#707070"/>
<path d="M28.8728 52L6.71899 36L28.8728 20H31.4348L9.28095 36L31.4348 52H28.8728Z" fill="#23E798"/>
<path d="M31.4348 20.0001L44.2424 10.7501H62.1893L60.4696 12.4697L61.5303 13.5304L65.0606 10.0001L61.5303 6.46973L60.4696 7.53039L62.1893 9.25006H43.7574L28.8728 20.0001H31.4348Z" fill="#F47B8E"/>
<path d="M31.4348 52.0001L44.2424 61.2501H62.1893L60.4696 59.5304L61.5303 58.4697L65.0606 62.0001L61.5303 65.5304L60.4696 64.4697L62.1893 62.7501H43.7574L28.8728 52.0001H31.4348Z" fill="#F47B8E"/>
<path fill-rule="evenodd" clip-rule="evenodd" d="M8 20.5C8 20.2239 8.3134 20 8.7 20H10.065C10.4516 20 10.765 20.2239 10.765 20.5C10.765 20.7761 10.4516 21 10.065 21H8.7C8.3134 21 8 20.7761 8 20.5ZM12.095 20.5C12.095 20.2239 12.4084 20 12.795 20H15.525C15.9116 20 16.225 20.2239 16.225 20.5C16.225 20.7761 15.9116 21 15.525 21H12.795C12.4084 21 12.095 20.7761 12.095 20.5ZM17.555 20.5C17.555 20.2239 17.8684 20 18.255 20H20.985C21.3716 20 21.685 20.2239 21.685 20.5C21.685 20.7761 21.3716 21 20.985 21H18.255C17.8684 21 17.555 20.7761 17.555 20.5ZM23.015 20.5C23.015 20.2239 23.3284 20 23.715 20H26.445C26.8316 20 27.145 20.2239 27.145 20.5C27.145 20.7761 26.8316 21 26.445 21H23.715C23.3284 21 23.015 20.7761 23.015 20.5ZM28.475 20.5C28.475 20.2239 28.7884 20 29.175 20H31.905C32.2916 20 32.605 20.2239 32.605 20.5C32.605 20.7761 32.2916 21 31.905 21H29.175C28.7884 21 28.475 20.7761 28.475 20.5ZM33.935 20.5C33.935 20.2239 34.2484 20 34.635 20L37.365 20C37.7516 20 38.065 20.2239 38.065 20.5C38.065 20.7761 37.7516 21 37.365 21H34.635C34.2484 21 33.935 20.7761 33.935 20.5ZM39.395 20.5C39.395 20.2239 39.7084 20 40.095 20H42.825C43.2116 20 43.525 20.2239 43.525 20.5C43.525 20.7761 43.2116 21 42.825 21H40.095C39.7084 21 39.395 20.7761 39.395 20.5ZM44.855 20.5C44.855 20.2239 45.1684 20 45.555 20H48.285C48.6716 20 48.985 20.2239 48.985 20.5C48.985 20.7761 48.6716 21 48.285 21H45.555C45.1684 21 44.855 20.7761 44.855 20.5ZM50.315 20.5C50.315 20.2239 50.6284 20 51.015 20H53.745C54.1316 20 54.445 20.2239 54.445 20.5C54.445 20.7761 54.1316 21 53.745 21H51.015C50.6284 21 50.315 20.7761 50.315 20.5ZM55.775 20.5C55.775 20.2239 56.0884 20 56.475 20H59.205C59.5916 20 59.905 20.2239 59.905 20.5C59.905 20.7761 59.5916 21 59.205 21H56.475C56.0884 21 55.775 20.7761 55.775 20.5ZM61.235 20.5C61.235 20.2239 61.5484 20 61.935 20H63.3C63.6866 20 64 20.2239 64 20.5C64 20.7761 63.6866 21 63.3 21H61.935C61.5484 21 61.235 20.7761 61.235 20.5Z" fill="#16CA83"/>
<path fill-rule="evenodd" clip-rule="evenodd" d="M8 51.5C8 51.7761 8.3134 52 8.7 52H10.065C10.4516 52 10.765 51.7761 10.765 51.5C10.765 51.2239 10.4516 51 10.065 51H8.7C8.3134 51 8 51.2239 8 51.5ZM12.095 51.5C12.095 51.7761 12.4084 52 12.795 52H15.525C15.9116 52 16.225 51.7761 16.225 51.5C16.225 51.2239 15.9116 51 15.525 51H12.795C12.4084 51 12.095 51.2239 12.095 51.5ZM17.555 51.5C17.555 51.7761 17.8684 52 18.255 52H20.985C21.3716 52 21.685 51.7761 21.685 51.5C21.685 51.2239 21.3716 51 20.985 51H18.255C17.8684 51 17.555 51.2239 17.555 51.5ZM23.015 51.5C23.015 51.7761 23.3284 52 23.715 52H26.445C26.8316 52 27.145 51.7761 27.145 51.5C27.145 51.2239 26.8316 51 26.445 51H23.715C23.3284 51 23.015 51.2239 23.015 51.5ZM28.475 51.5C28.475 51.7761 28.7884 52 29.175 52H31.905C32.2916 52 32.605 51.7761 32.605 51.5C32.605 51.2239 32.2916 51 31.905 51H29.175C28.7884 51 28.475 51.2239 28.475 51.5ZM33.935 51.5C33.935 51.7761 34.2484 52 34.635 52H37.365C37.7516 52 38.065 51.7761 38.065 51.5C38.065 51.2239 37.7516 51 37.365 51H34.635C34.2484 51 33.935 51.2239 33.935 51.5ZM39.395 51.5C39.395 51.7761 39.7084 52 40.095 52H42.825C43.2116 52 43.525 51.7761 43.525 51.5C43.525 51.2239 43.2116 51 42.825 51H40.095C39.7084 51 39.395 51.2239 39.395 51.5ZM44.855 51.5C44.855 51.7761 45.1684 52 45.555 52H48.285C48.6716 52 48.985 51.7761 48.985 51.5C48.985 51.2239 48.6716 51 48.285 51H45.555C45.1684 51 44.855 51.2239 44.855 51.5ZM50.315 51.5C50.315 51.7761 50.6284 52 51.015 52H53.745C54.1316 52 54.445 51.7761 54.445 51.5C54.445 51.2239 54.1316 51 53.745 51H51.015C50.6284 51 50.315 51.2239 50.315 51.5ZM55.775 51.5C55.775 51.7761 56.0884 52 56.475 52H59.205C59.5916 52 59.905 51.7761 59.905 51.5C59.905 51.2239 59.5916 51 59.205 51H56.475C56.0884 51 55.775 51.2239 55.775 51.5ZM61.235 51.5C61.235 51.7761 61.5484 52 61.935 52H63.3C63.6866 52 64 51.7761 64 51.5C64 51.2239 63.6866 51 63.3 51H61.935C61.5484 51 61.235 51.2239 61.235 51.5Z" fill="#E28D8D"/>
</svg>
