<svg width="80" height="80" viewBox="0 0 80 80" fill="none" xmlns="http://www.w3.org/2000/svg">
<path d="M40 8C22.35 8 8 22.35 8 40C8 57.65 22.35 72 40 72C57.65 72 72 57.65 72 40C72 22.35 57.7 8 40 8ZM40 60.15C29.2 60.15 19.9 51.4 19.9 40.55C19.9 37.9 20.35 35.3 21.25 32.85L29.9 36.55C29.6 37.7 29.4 38.9 29.35 40.1C29.7 46.4 34.45 50.65 40 50.65C40.8 50.65 41.55 50.55 42.35 50.4L47.25 58.75C44.95 59.65 42.5 60.15 40 60.15ZM58.55 48L36.65 38.7L50.7 38.6C50.2 33.5 44.95 29.35 40 29.35C38.9 29.35 37.75 29.55 36.7 29.9L31.85 21.65C34.4 20.5 37.2 19.9 40 19.9C50.8 19.9 60.05 28.85 60.05 39.7C60.15 42.55 59.65 45.4 58.55 48Z" fill="#1896A4"/>
</svg>
