<svg width="48" height="48" viewBox="0 0 48 48" fill="none" xmlns="http://www.w3.org/2000/svg">
<path fill-rule="evenodd" clip-rule="evenodd" d="M24 48C37.2548 48 48 37.2548 48 24C48 10.7452 37.2548 0 24 0C10.7452 0 0 10.7452 0 24C0 37.2548 10.7452 48 24 48ZM8.40082 21.7606L34.975 11.171C36.1876 10.6041 37.3597 11.473 36.8965 13.392L32.3716 35.4293C32.0553 36.9968 31.1425 37.3685 29.8715 36.6452L22.9784 31.3837L19.6645 34.7138C19.6521 34.7261 19.6399 34.7384 19.6276 34.7506C19.258 35.12 18.9515 35.4263 18.2841 35.4263L18.7547 28.159L18.7517 28.1574H18.7547L31.5442 16.2296C32.1048 15.7153 31.4228 15.4629 30.6764 15.9322L14.8907 26.2244L8.06808 24.025C6.59772 23.5588 6.58723 22.5133 8.40082 21.7606Z" fill="#E0E1E0"/>
</svg>
