<svg width="48" height="48" viewBox="0 0 48 48" fill="none" xmlns="http://www.w3.org/2000/svg">
<g clip-path="url(#clip0)">
<path d="M29.6986 12.4142C30.4796 11.6332 31.746 11.6332 32.527 12.4142L35.3554 15.2426C36.1365 16.0237 36.1365 17.29 35.3554 18.0711L7.07116 46.3553C6.29011 47.1364 5.02378 47.1364 4.24274 46.3553L1.41431 43.5269C0.63326 42.7459 0.633261 41.4795 1.41431 40.6985L29.6986 12.4142Z" fill="url(#paint0_linear)"/>
<path d="M29.6986 12.4142C30.4796 11.6332 31.746 11.6332 32.527 12.4142L35.3554 15.2426C36.1365 16.0237 36.1365 17.29 35.3554 18.0711L28.2809 25.1456L22.624 19.4887L29.6986 12.4142Z" fill="url(#paint1_linear)"/>
<path d="M8.48877 33.624L14.1456 39.2809L7.07112 46.3554C6.29007 47.1364 5.02374 47.1364 4.2427 46.3554L1.41427 43.527C0.63322 42.7459 0.63322 41.4796 1.41427 40.6985L8.48877 33.624Z" fill="#23E798"/>
<path d="M8.48877 33.624L14.1456 39.2809L7.07112 46.3554C6.29007 47.1364 5.02374 47.1364 4.2427 46.3554L1.41427 43.527C0.63322 42.7459 0.63322 41.4796 1.41427 40.6985L8.48877 33.624Z" fill="url(#paint2_linear)"/>
<path d="M45.4013 2.32978C45.5739 2.24182 45.7583 2.42615 45.6703 2.59878L43.7068 6.45234C43.6675 6.52954 43.6823 6.62329 43.7436 6.68456L46.8018 9.74276C46.9388 9.87976 46.8204 10.112 46.6291 10.0817L42.3574 9.40515C42.2718 9.3916 42.1872 9.43469 42.1479 9.51189L40.1844 13.3655C40.0964 13.5381 39.839 13.4973 39.8087 13.3059L39.1321 9.03424C39.1185 8.94866 39.0514 8.88154 38.9658 8.86798L34.6941 8.19141C34.5028 8.1611 34.462 7.90363 34.6346 7.81567L38.4882 5.85219C38.5654 5.81285 38.6085 5.72828 38.5949 5.6427L37.9184 1.37099C37.888 1.17963 38.1203 1.06129 38.2573 1.19828L41.3155 4.25649C41.3768 4.31776 41.4705 4.3326 41.5477 4.29327L45.4013 2.32978Z" fill="#16CA83"/>
<path d="M45.4013 2.32978C45.5739 2.24182 45.7583 2.42615 45.6703 2.59878L43.7068 6.45234C43.6675 6.52954 43.6823 6.62329 43.7436 6.68456L46.8018 9.74276C46.9388 9.87976 46.8204 10.112 46.6291 10.0817L42.3574 9.40515C42.2718 9.3916 42.1872 9.43469 42.1479 9.51189L40.1844 13.3655C40.0964 13.5381 39.839 13.4973 39.8087 13.3059L39.1321 9.03424C39.1185 8.94866 39.0514 8.88154 38.9658 8.86798L34.6941 8.19141C34.5028 8.1611 34.462 7.90363 34.6346 7.81567L38.4882 5.85219C38.5654 5.81285 38.6085 5.72828 38.5949 5.6427L37.9184 1.37099C37.888 1.17963 38.1203 1.06129 38.2573 1.19828L41.3155 4.25649C41.3768 4.31776 41.4705 4.3326 41.5477 4.29327L45.4013 2.32978Z" fill="url(#paint3_linear)"/>
<path d="M25.8098 2.58541C25.8697 2.40115 26.1303 2.40115 26.1902 2.58541L26.8532 4.62574C26.8799 4.70814 26.9567 4.76393 27.0434 4.76393H29.1887C29.3824 4.76393 29.463 5.01186 29.3062 5.12574L27.5706 6.38673C27.5005 6.43765 27.4712 6.52793 27.498 6.61033L28.1609 8.65066C28.2208 8.83492 28.0099 8.98814 27.8532 8.87426L26.1176 7.61327C26.0475 7.56235 25.9525 7.56235 25.8824 7.61327L24.1468 8.87426C23.9901 8.98814 23.7792 8.83492 23.8391 8.65066L24.502 6.61033C24.5288 6.52793 24.4995 6.43765 24.4294 6.38673L22.6938 5.12574C22.537 5.01185 22.6176 4.76393 22.8113 4.76393H24.9566C25.0433 4.76393 25.1201 4.70814 25.1468 4.62574L25.8098 2.58541Z" fill="url(#paint4_linear)"/>
<path d="M13.8098 2.58541C13.8697 2.40115 14.1303 2.40115 14.1902 2.58541L14.8532 4.62574C14.8799 4.70814 14.9567 4.76393 15.0434 4.76393H17.1887C17.3824 4.76393 17.463 5.01186 17.3062 5.12574L15.5706 6.38673C15.5005 6.43765 15.4712 6.52793 15.498 6.61033L16.1609 8.65066C16.2208 8.83492 16.0099 8.98814 15.8532 8.87426L14.1176 7.61327C14.0475 7.56235 13.9525 7.56235 13.8824 7.61327L12.1468 8.87426C11.9901 8.98814 11.7792 8.83492 11.8391 8.65066L12.502 6.61033C12.5288 6.52793 12.4995 6.43765 12.4294 6.38673L10.6938 5.12574C10.537 5.01185 10.6176 4.76393 10.8113 4.76393H12.9566C13.0433 4.76393 13.1201 4.70814 13.1468 4.62574L13.8098 2.58541Z" fill="#12A56A"/>
<path d="M13.8098 2.58541C13.8697 2.40115 14.1303 2.40115 14.1902 2.58541L14.8532 4.62574C14.8799 4.70814 14.9567 4.76393 15.0434 4.76393H17.1887C17.3824 4.76393 17.463 5.01186 17.3062 5.12574L15.5706 6.38673C15.5005 6.43765 15.4712 6.52793 15.498 6.61033L16.1609 8.65066C16.2208 8.83492 16.0099 8.98814 15.8532 8.87426L14.1176 7.61327C14.0475 7.56235 13.9525 7.56235 13.8824 7.61327L12.1468 8.87426C11.9901 8.98814 11.7792 8.83492 11.8391 8.65066L12.502 6.61033C12.5288 6.52793 12.4995 6.43765 12.4294 6.38673L10.6938 5.12574C10.537 5.01185 10.6176 4.76393 10.8113 4.76393H12.9566C13.0433 4.76393 13.1201 4.70814 13.1468 4.62574L13.8098 2.58541Z" fill="url(#paint5_linear)"/>
<path d="M13.8098 2.58541C13.8697 2.40115 14.1303 2.40115 14.1902 2.58541L14.8532 4.62574C14.8799 4.70814 14.9567 4.76393 15.0434 4.76393H17.1887C17.3824 4.76393 17.463 5.01186 17.3062 5.12574L15.5706 6.38673C15.5005 6.43765 15.4712 6.52793 15.498 6.61033L16.1609 8.65066C16.2208 8.83492 16.0099 8.98814 15.8532 8.87426L14.1176 7.61327C14.0475 7.56235 13.9525 7.56235 13.8824 7.61327L12.1468 8.87426C11.9901 8.98814 11.7792 8.83492 11.8391 8.65066L12.502 6.61033C12.5288 6.52793 12.4995 6.43765 12.4294 6.38673L10.6938 5.12574C10.537 5.01185 10.6176 4.76393 10.8113 4.76393H12.9566C13.0433 4.76393 13.1201 4.70814 13.1468 4.62574L13.8098 2.58541Z" fill="url(#paint6_linear)"/>
<path d="M13.8098 14.5854C13.8697 14.4011 14.1303 14.4011 14.1902 14.5854L14.8532 16.6257C14.8799 16.7081 14.9567 16.7639 15.0434 16.7639H17.1887C17.3824 16.7639 17.463 17.0119 17.3062 17.1257L15.5706 18.3867C15.5005 18.4377 15.4712 18.5279 15.498 18.6103L16.1609 20.6507C16.2208 20.8349 16.0099 20.9881 15.8532 20.8743L14.1176 19.6133C14.0475 19.5623 13.9525 19.5623 13.8824 19.6133L12.1468 20.8743C11.9901 20.9881 11.7792 20.8349 11.8391 20.6507L12.502 18.6103C12.5288 18.5279 12.4995 18.4377 12.4294 18.3867L10.6938 17.1257C10.537 17.0119 10.6176 16.7639 10.8113 16.7639H12.9566C13.0433 16.7639 13.1201 16.7081 13.1468 16.6257L13.8098 14.5854Z" fill="#12A56A"/>
<path d="M13.8098 14.5854C13.8697 14.4011 14.1303 14.4011 14.1902 14.5854L14.8532 16.6257C14.8799 16.7081 14.9567 16.7639 15.0434 16.7639H17.1887C17.3824 16.7639 17.463 17.0119 17.3062 17.1257L15.5706 18.3867C15.5005 18.4377 15.4712 18.5279 15.498 18.6103L16.1609 20.6507C16.2208 20.8349 16.0099 20.9881 15.8532 20.8743L14.1176 19.6133C14.0475 19.5623 13.9525 19.5623 13.8824 19.6133L12.1468 20.8743C11.9901 20.9881 11.7792 20.8349 11.8391 20.6507L12.502 18.6103C12.5288 18.5279 12.4995 18.4377 12.4294 18.3867L10.6938 17.1257C10.537 17.0119 10.6176 16.7639 10.8113 16.7639H12.9566C13.0433 16.7639 13.1201 16.7081 13.1468 16.6257L13.8098 14.5854Z" fill="url(#paint7_linear)"/>
<path d="M13.8098 14.5854C13.8697 14.4011 14.1303 14.4011 14.1902 14.5854L14.8532 16.6257C14.8799 16.7081 14.9567 16.7639 15.0434 16.7639H17.1887C17.3824 16.7639 17.463 17.0119 17.3062 17.1257L15.5706 18.3867C15.5005 18.4377 15.4712 18.5279 15.498 18.6103L16.1609 20.6507C16.2208 20.8349 16.0099 20.9881 15.8532 20.8743L14.1176 19.6133C14.0475 19.5623 13.9525 19.5623 13.8824 19.6133L12.1468 20.8743C11.9901 20.9881 11.7792 20.8349 11.8391 20.6507L12.502 18.6103C12.5288 18.5279 12.4995 18.4377 12.4294 18.3867L10.6938 17.1257C10.537 17.0119 10.6176 16.7639 10.8113 16.7639H12.9566C13.0433 16.7639 13.1201 16.7081 13.1468 16.6257L13.8098 14.5854Z" fill="url(#paint8_linear)"/>
<path d="M20.5426 10.6799C20.6865 10.5503 20.9123 10.6806 20.872 10.8702L20.7281 11.5473C20.7101 11.632 20.7487 11.7187 20.8237 11.7621L21.4232 12.1082C21.591 12.205 21.5368 12.46 21.3441 12.4803L20.6557 12.5526C20.5695 12.5617 20.499 12.6252 20.481 12.71L20.337 13.3871C20.2967 13.5766 20.0375 13.6038 19.9587 13.4268L19.6771 12.7944C19.6419 12.7153 19.5597 12.6678 19.4735 12.6769L18.7851 12.7492C18.5924 12.7695 18.4864 12.5314 18.6303 12.4017L19.1448 11.9385C19.2092 11.8805 19.2289 11.7877 19.1937 11.7085L18.9121 11.0761C18.8333 10.8992 19.027 10.7247 19.1948 10.8216L19.7943 11.1677C19.8693 11.211 19.9637 11.2011 20.0281 11.1431L20.5426 10.6799Z" fill="#0E8053"/>
<path d="M20.5426 10.6799C20.6865 10.5503 20.9123 10.6806 20.872 10.8702L20.7281 11.5473C20.7101 11.632 20.7487 11.7187 20.8237 11.7621L21.4232 12.1082C21.591 12.205 21.5368 12.46 21.3441 12.4803L20.6557 12.5526C20.5695 12.5617 20.499 12.6252 20.481 12.71L20.337 13.3871C20.2967 13.5766 20.0375 13.6038 19.9587 13.4268L19.6771 12.7944C19.6419 12.7153 19.5597 12.6678 19.4735 12.6769L18.7851 12.7492C18.5924 12.7695 18.4864 12.5314 18.6303 12.4017L19.1448 11.9385C19.2092 11.8805 19.2289 11.7877 19.1937 11.7085L18.9121 11.0761C18.8333 10.8992 19.027 10.7247 19.1948 10.8216L19.7943 11.1677C19.8693 11.211 19.9637 11.2011 20.0281 11.1431L20.5426 10.6799Z" fill="url(#paint9_linear)"/>
<path d="M20.5426 10.6799C20.6865 10.5503 20.9123 10.6806 20.872 10.8702L20.7281 11.5473C20.7101 11.632 20.7487 11.7187 20.8237 11.7621L21.4232 12.1082C21.591 12.205 21.5368 12.46 21.3441 12.4803L20.6557 12.5526C20.5695 12.5617 20.499 12.6252 20.481 12.71L20.337 13.3871C20.2967 13.5766 20.0375 13.6038 19.9587 13.4268L19.6771 12.7944C19.6419 12.7153 19.5597 12.6678 19.4735 12.6769L18.7851 12.7492C18.5924 12.7695 18.4864 12.5314 18.6303 12.4017L19.1448 11.9385C19.2092 11.8805 19.2289 11.7877 19.1937 11.7085L18.9121 11.0761C18.8333 10.8992 19.027 10.7247 19.1948 10.8216L19.7943 11.1677C19.8693 11.211 19.9637 11.2011 20.0281 11.1431L20.5426 10.6799Z" fill="url(#paint10_linear)"/>
<path d="M41.8098 18.5854C41.8697 18.4011 42.1303 18.4011 42.1902 18.5854L42.8532 20.6257C42.8799 20.7081 42.9567 20.7639 43.0434 20.7639H45.1887C45.3824 20.7639 45.463 21.0119 45.3062 21.1257L43.5706 22.3867C43.5005 22.4377 43.4712 22.5279 43.498 22.6103L44.1609 24.6507C44.2208 24.8349 44.0099 24.9881 43.8532 24.8743L42.1176 23.6133C42.0475 23.5623 41.9525 23.5623 41.8824 23.6133L40.1468 24.8743C39.9901 24.9881 39.7792 24.8349 39.8391 24.6507L40.502 22.6103C40.5288 22.5279 40.4995 22.4377 40.4294 22.3867L38.6938 21.1257C38.537 21.0119 38.6176 20.7639 38.8113 20.7639H40.9566C41.0433 20.7639 41.1201 20.7081 41.1468 20.6257L41.8098 18.5854Z" fill="#12A56A"/>
<path d="M41.8098 18.5854C41.8697 18.4011 42.1303 18.4011 42.1902 18.5854L42.8532 20.6257C42.8799 20.7081 42.9567 20.7639 43.0434 20.7639H45.1887C45.3824 20.7639 45.463 21.0119 45.3062 21.1257L43.5706 22.3867C43.5005 22.4377 43.4712 22.5279 43.498 22.6103L44.1609 24.6507C44.2208 24.8349 44.0099 24.9881 43.8532 24.8743L42.1176 23.6133C42.0475 23.5623 41.9525 23.5623 41.8824 23.6133L40.1468 24.8743C39.9901 24.9881 39.7792 24.8349 39.8391 24.6507L40.502 22.6103C40.5288 22.5279 40.4995 22.4377 40.4294 22.3867L38.6938 21.1257C38.537 21.0119 38.6176 20.7639 38.8113 20.7639H40.9566C41.0433 20.7639 41.1201 20.7081 41.1468 20.6257L41.8098 18.5854Z" fill="url(#paint11_linear)"/>
<path d="M41.8098 18.5854C41.8697 18.4011 42.1303 18.4011 42.1902 18.5854L42.8532 20.6257C42.8799 20.7081 42.9567 20.7639 43.0434 20.7639H45.1887C45.3824 20.7639 45.463 21.0119 45.3062 21.1257L43.5706 22.3867C43.5005 22.4377 43.4712 22.5279 43.498 22.6103L44.1609 24.6507C44.2208 24.8349 44.0099 24.9881 43.8532 24.8743L42.1176 23.6133C42.0475 23.5623 41.9525 23.5623 41.8824 23.6133L40.1468 24.8743C39.9901 24.9881 39.7792 24.8349 39.8391 24.6507L40.502 22.6103C40.5288 22.5279 40.4995 22.4377 40.4294 22.3867L38.6938 21.1257C38.537 21.0119 38.6176 20.7639 38.8113 20.7639H40.9566C41.0433 20.7639 41.1201 20.7081 41.1468 20.6257L41.8098 18.5854Z" fill="url(#paint12_linear)"/>
<path d="M41.8098 30.5854C41.8697 30.4011 42.1303 30.4011 42.1902 30.5854L42.8532 32.6257C42.8799 32.7081 42.9567 32.7639 43.0434 32.7639H45.1887C45.3824 32.7639 45.463 33.0119 45.3062 33.1257L43.5706 34.3867C43.5005 34.4377 43.4712 34.5279 43.498 34.6103L44.1609 36.6507C44.2208 36.8349 44.0099 36.9881 43.8532 36.8743L42.1176 35.6133C42.0475 35.5623 41.9525 35.5623 41.8824 35.6133L40.1468 36.8743C39.9901 36.9881 39.7792 36.8349 39.8391 36.6507L40.502 34.6103C40.5288 34.5279 40.4995 34.4377 40.4294 34.3867L38.6938 33.1257C38.537 33.0119 38.6176 32.7639 38.8113 32.7639H40.9566C41.0433 32.7639 41.1201 32.7081 41.1468 32.6257L41.8098 30.5854Z" fill="#12A56A"/>
<path d="M41.8098 30.5854C41.8697 30.4011 42.1303 30.4011 42.1902 30.5854L42.8532 32.6257C42.8799 32.7081 42.9567 32.7639 43.0434 32.7639H45.1887C45.3824 32.7639 45.463 33.0119 45.3062 33.1257L43.5706 34.3867C43.5005 34.4377 43.4712 34.5279 43.498 34.6103L44.1609 36.6507C44.2208 36.8349 44.0099 36.9881 43.8532 36.8743L42.1176 35.6133C42.0475 35.5623 41.9525 35.5623 41.8824 35.6133L40.1468 36.8743C39.9901 36.9881 39.7792 36.8349 39.8391 36.6507L40.502 34.6103C40.5288 34.5279 40.4995 34.4377 40.4294 34.3867L38.6938 33.1257C38.537 33.0119 38.6176 32.7639 38.8113 32.7639H40.9566C41.0433 32.7639 41.1201 32.7081 41.1468 32.6257L41.8098 30.5854Z" fill="url(#paint13_linear)"/>
<path d="M41.8098 30.5854C41.8697 30.4011 42.1303 30.4011 42.1902 30.5854L42.8532 32.6257C42.8799 32.7081 42.9567 32.7639 43.0434 32.7639H45.1887C45.3824 32.7639 45.463 33.0119 45.3062 33.1257L43.5706 34.3867C43.5005 34.4377 43.4712 34.5279 43.498 34.6103L44.1609 36.6507C44.2208 36.8349 44.0099 36.9881 43.8532 36.8743L42.1176 35.6133C42.0475 35.5623 41.9525 35.5623 41.8824 35.6133L40.1468 36.8743C39.9901 36.9881 39.7792 36.8349 39.8391 36.6507L40.502 34.6103C40.5288 34.5279 40.4995 34.4377 40.4294 34.3867L38.6938 33.1257C38.537 33.0119 38.6176 32.7639 38.8113 32.7639H40.9566C41.0433 32.7639 41.1201 32.7081 41.1468 32.6257L41.8098 30.5854Z" fill="url(#paint14_linear)"/>
<path d="M29.8098 30.5854C29.8697 30.4011 30.1303 30.4011 30.1902 30.5854L30.8532 32.6257C30.8799 32.7081 30.9567 32.7639 31.0434 32.7639H33.1887C33.3824 32.7639 33.463 33.0119 33.3062 33.1257L31.5706 34.3867C31.5005 34.4377 31.4712 34.5279 31.498 34.6103L32.1609 36.6507C32.2208 36.8349 32.0099 36.9881 31.8532 36.8743L30.1176 35.6133C30.0475 35.5623 29.9525 35.5623 29.8824 35.6133L28.1468 36.8743C27.9901 36.9881 27.7792 36.8349 27.8391 36.6507L28.502 34.6103C28.5288 34.5279 28.4995 34.4377 28.4294 34.3867L26.6938 33.1257C26.537 33.0119 26.6176 32.7639 26.8113 32.7639H28.9566C29.0433 32.7639 29.1201 32.7081 29.1468 32.6257L29.8098 30.5854Z" fill="#12A56A"/>
<path d="M29.8098 30.5854C29.8697 30.4011 30.1303 30.4011 30.1902 30.5854L30.8532 32.6257C30.8799 32.7081 30.9567 32.7639 31.0434 32.7639H33.1887C33.3824 32.7639 33.463 33.0119 33.3062 33.1257L31.5706 34.3867C31.5005 34.4377 31.4712 34.5279 31.498 34.6103L32.1609 36.6507C32.2208 36.8349 32.0099 36.9881 31.8532 36.8743L30.1176 35.6133C30.0475 35.5623 29.9525 35.5623 29.8824 35.6133L28.1468 36.8743C27.9901 36.9881 27.7792 36.8349 27.8391 36.6507L28.502 34.6103C28.5288 34.5279 28.4995 34.4377 28.4294 34.3867L26.6938 33.1257C26.537 33.0119 26.6176 32.7639 26.8113 32.7639H28.9566C29.0433 32.7639 29.1201 32.7081 29.1468 32.6257L29.8098 30.5854Z" fill="url(#paint15_linear)"/>
<path d="M29.8098 30.5854C29.8697 30.4011 30.1303 30.4011 30.1902 30.5854L30.8532 32.6257C30.8799 32.7081 30.9567 32.7639 31.0434 32.7639H33.1887C33.3824 32.7639 33.463 33.0119 33.3062 33.1257L31.5706 34.3867C31.5005 34.4377 31.4712 34.5279 31.498 34.6103L32.1609 36.6507C32.2208 36.8349 32.0099 36.9881 31.8532 36.8743L30.1176 35.6133C30.0475 35.5623 29.9525 35.5623 29.8824 35.6133L28.1468 36.8743C27.9901 36.9881 27.7792 36.8349 27.8391 36.6507L28.502 34.6103C28.5288 34.5279 28.4995 34.4377 28.4294 34.3867L26.6938 33.1257C26.537 33.0119 26.6176 32.7639 26.8113 32.7639H28.9566C29.0433 32.7639 29.1201 32.7081 29.1468 32.6257L29.8098 30.5854Z" fill="url(#paint16_linear)"/>
<path d="M36.8658 26.865C37.0384 26.7771 37.2227 26.9614 37.1348 27.134L36.8205 27.7508C36.7812 27.828 36.796 27.9218 36.8573 27.9831L37.3468 28.4725C37.4838 28.6095 37.3654 28.8418 37.1741 28.8115L36.4903 28.7032C36.4048 28.6897 36.3202 28.7328 36.2808 28.81L35.9666 29.4267C35.8786 29.5994 35.6211 29.5586 35.5908 29.3672L35.4825 28.6835C35.469 28.5979 35.4019 28.5308 35.3163 28.5173L34.6326 28.409C34.4412 28.3787 34.4004 28.1212 34.5731 28.0332L35.1899 27.719C35.2671 27.6796 35.3102 27.5951 35.2966 27.5095L35.1883 26.8258C35.158 26.6344 35.3903 26.5161 35.5273 26.6531L36.0168 27.1425C36.078 27.2038 36.1718 27.2187 36.249 27.1793L36.8658 26.865Z" fill="#0E8053"/>
<path d="M36.8658 26.865C37.0384 26.7771 37.2227 26.9614 37.1348 27.134L36.8205 27.7508C36.7812 27.828 36.796 27.9218 36.8573 27.9831L37.3468 28.4725C37.4838 28.6095 37.3654 28.8418 37.1741 28.8115L36.4903 28.7032C36.4048 28.6897 36.3202 28.7328 36.2808 28.81L35.9666 29.4267C35.8786 29.5994 35.6211 29.5586 35.5908 29.3672L35.4825 28.6835C35.469 28.5979 35.4019 28.5308 35.3163 28.5173L34.6326 28.409C34.4412 28.3787 34.4004 28.1212 34.5731 28.0332L35.1899 27.719C35.2671 27.6796 35.3102 27.5951 35.2966 27.5095L35.1883 26.8258C35.158 26.6344 35.3903 26.5161 35.5273 26.6531L36.0168 27.1425C36.078 27.2038 36.1718 27.2187 36.249 27.1793L36.8658 26.865Z" fill="url(#paint17_linear)"/>
</g>
<defs>
<linearGradient id="paint0_linear" x1="22" y1="31" x2="16.5" y2="25.5" gradientUnits="userSpaceOnUse">
<stop stop-color="#0E8153"/>
<stop offset="1" stop-color="#16CA83"/>
</linearGradient>
<linearGradient id="paint1_linear" x1="26.5" y1="15" x2="32.5" y2="21" gradientUnits="userSpaceOnUse">
<stop stop-color="#47EBA9"/>
<stop offset="0.9999" stop-color="#12A56A"/>
</linearGradient>
<linearGradient id="paint2_linear" x1="3.87599" y1="37.624" x2="9.87599" y2="43.624" gradientUnits="userSpaceOnUse">
<stop stop-color="#47EBA9"/>
<stop offset="0.9999" stop-color="#12A56A"/>
</linearGradient>
<linearGradient id="paint3_linear" x1="45.9497" y1="2.05033" x2="36.0503" y2="11.9498" gradientUnits="userSpaceOnUse">
<stop stop-color="#47EBA9"/>
<stop offset="1" stop-color="#16CA83"/>
</linearGradient>
<linearGradient id="paint4_linear" x1="26" y1="2" x2="26" y2="10" gradientUnits="userSpaceOnUse">
<stop stop-color="#14B876"/>
<stop offset="0.0001" stop-color="#12A56B"/>
<stop offset="1" stop-color="#10935F"/>
</linearGradient>
<linearGradient id="paint5_linear" x1="14" y1="2" x2="14" y2="10" gradientUnits="userSpaceOnUse">
<stop stop-color="#12A56A"/>
<stop offset="1" stop-color="#0E8053"/>
</linearGradient>
<linearGradient id="paint6_linear" x1="14" y1="2" x2="14" y2="10" gradientUnits="userSpaceOnUse">
<stop stop-color="#14B876"/>
<stop offset="0.0001" stop-color="#12A56B"/>
<stop offset="1" stop-color="#10935F"/>
</linearGradient>
<linearGradient id="paint7_linear" x1="14" y1="14" x2="14" y2="22" gradientUnits="userSpaceOnUse">
<stop stop-color="#12A56A"/>
<stop offset="1" stop-color="#0E8053"/>
</linearGradient>
<linearGradient id="paint8_linear" x1="14" y1="14" x2="14" y2="22" gradientUnits="userSpaceOnUse">
<stop stop-color="#14B876"/>
<stop offset="0.0001" stop-color="#12A56B"/>
<stop offset="1" stop-color="#10935F"/>
</linearGradient>
<linearGradient id="paint9_linear" x1="21" y1="10.2681" x2="19" y2="13.7322" gradientUnits="userSpaceOnUse">
<stop stop-color="#47EBA9"/>
<stop offset="1" stop-color="#16CA83"/>
</linearGradient>
<linearGradient id="paint10_linear" x1="21" y1="10.2681" x2="19" y2="13.7322" gradientUnits="userSpaceOnUse">
<stop stop-color="#0E8053"/>
<stop offset="1" stop-color="#0C6E47"/>
</linearGradient>
<linearGradient id="paint11_linear" x1="42" y1="18" x2="42" y2="26" gradientUnits="userSpaceOnUse">
<stop stop-color="#12A56A"/>
<stop offset="1" stop-color="#0E8053"/>
</linearGradient>
<linearGradient id="paint12_linear" x1="42" y1="18" x2="42" y2="26" gradientUnits="userSpaceOnUse">
<stop stop-color="#14B876"/>
<stop offset="0.0001" stop-color="#12A56B"/>
<stop offset="1" stop-color="#10935F"/>
</linearGradient>
<linearGradient id="paint13_linear" x1="42" y1="30" x2="42" y2="38" gradientUnits="userSpaceOnUse">
<stop stop-color="#12A56A"/>
<stop offset="1" stop-color="#0E8053"/>
</linearGradient>
<linearGradient id="paint14_linear" x1="42" y1="30" x2="42" y2="38" gradientUnits="userSpaceOnUse">
<stop stop-color="#14B876"/>
<stop offset="0.0001" stop-color="#12A56B"/>
<stop offset="1" stop-color="#10935F"/>
</linearGradient>
<linearGradient id="paint15_linear" x1="30" y1="30" x2="30" y2="38" gradientUnits="userSpaceOnUse">
<stop stop-color="#12A56A"/>
<stop offset="1" stop-color="#0E8053"/>
</linearGradient>
<linearGradient id="paint16_linear" x1="30" y1="30" x2="30" y2="38" gradientUnits="userSpaceOnUse">
<stop stop-color="#14B876"/>
<stop offset="0.0001" stop-color="#12A56B"/>
<stop offset="1" stop-color="#10935F"/>
</linearGradient>
<linearGradient id="paint17_linear" x1="37.4142" y1="26.5856" x2="34.5858" y2="29.414" gradientUnits="userSpaceOnUse">
<stop stop-color="#0E8053"/>
<stop offset="1" stop-color="#0C6E47"/>
</linearGradient>
<clipPath id="clip0">
<rect width="48" height="48" fill="white"/>
</clipPath>
</defs>
</svg>
