<svg width="16" height="24" viewBox="0 0 16 24" fill="none" xmlns="http://www.w3.org/2000/svg">
<path d="M8.57551 15.3C8.57551 15.465 8.45477 15.6 8.30719 15.6H7.77055C7.62297 15.6 7.50222 15.465 7.50222 15.3V14.355C6.32832 14.175 5.75813 13.4475 5.60385 12.4425C5.57701 12.27 5.69776 12.12 5.85205 12.12H6.46248C6.58993 12.12 6.69726 12.225 6.72409 12.36C6.83813 12.9525 7.1467 13.41 8.08582 13.41C8.77675 13.41 9.27315 12.975 9.27315 12.33C9.27315 11.685 8.9847 11.4375 7.96508 11.25C6.46248 11.025 5.75142 10.515 5.75142 9.2025C5.75142 8.19 6.44235 7.395 7.50222 7.23V6.3C7.50222 6.135 7.62297 6 7.77055 6H8.30719C8.45477 6 8.57551 6.135 8.57551 6.3V7.2525C9.44085 7.425 9.99091 7.9725 10.172 8.8875C10.2056 9.06 10.0848 9.2175 9.92383 9.2175H9.36035C9.23961 9.2175 9.13899 9.1275 9.10545 9C8.95116 8.4225 8.58222 8.1675 7.93825 8.1675C7.22719 8.1675 6.85825 8.55 6.85825 9.09C6.85825 9.66 7.0662 9.945 8.15961 10.1175C9.63538 10.3425 10.4001 10.815 10.4001 12.2175C10.4001 13.2825 9.68905 14.145 8.58222 14.34V15.3H8.57551Z" fill="#707070"/>
<path d="M7 3.63332C7 3.32987 6.73327 3.09387 6.4356 3.15288C2.7663 3.8803 0 7.11709 0 11C0 14.8829 2.7663 18.1197 6.4356 18.8471C6.73327 18.9061 7 18.6701 7 18.3667C7 18.1156 6.81463 17.9046 6.56879 17.8536C3.38922 17.193 1 14.3755 1 11C1 7.62449 3.38922 4.80701 6.56879 4.14643C6.81463 4.09536 7 3.88441 7 3.63332Z" fill="#707070"/>
<path d="M9 18.3667C9 18.1156 9.18537 17.9046 9.43121 17.8536C12.6108 17.193 15 14.3755 15 11C15 7.62449 12.6108 4.80701 9.43121 4.14643C9.18537 4.09536 9 3.88441 9 3.63332C9 3.32987 9.26673 3.09387 9.5644 3.15288C13.2337 3.8803 16 7.11709 16 11C16 14.8829 13.2337 18.1197 9.5644 18.8471C9.26673 18.9061 9 18.6701 9 18.3667Z" fill="#707070"/>
</svg>
