<svg width="48" height="48" viewBox="0 0 48 48" fill="none" xmlns="http://www.w3.org/2000/svg">
<rect x="4" y="22" width="40" height="4" fill="#6CEFBA"/>
<path fill-rule="evenodd" clip-rule="evenodd" d="M17 38L20 35L23 38.0454L15 46L7 38.0454L10 35L13 38V22L17 22V38Z" fill="#6CEFBA"/>
<path d="M13 4H17V8H13V4Z" fill="#6CEFBA"/>
<path d="M13 10H17V14H13V10Z" fill="#6CEFBA"/>
<path d="M13 16H17V20H13V16Z" fill="#6CEFBA"/>
<path fill-rule="evenodd" clip-rule="evenodd" d="M31 10L28 13L25 9.95464L33 2L41 9.95464L38 13L35 10L35 26L31 26L31 10Z" fill="#6CEFBA"/>
<path d="M35 44L31 44L31 40L35 40L35 44Z" fill="#6CEFBA"/>
<path d="M35 38L31 38L31 34L35 34L35 38Z" fill="#6CEFBA"/>
<path d="M35 32L31 32L31 28L35 28L35 32Z" fill="#6CEFBA"/>
</svg>
