<svg width="80" height="80" viewBox="0 0 80 80" fill="none" xmlns="http://www.w3.org/2000/svg">
<path d="M47.8427 36.9899L52.9545 28.0177L66.7333 50.216L66.7399 54.4763L66.695 25.1613C66.6624 24.4447 66.2945 23.7892 65.7076 23.4026L40.9006 8.6429C40.3206 8.34778 39.5844 8.35119 39.0052 8.65224C38.9269 8.69258 38.8532 8.73678 38.7832 8.78497L38.6966 8.84118L14.6176 23.2742L14.5243 23.3181C14.4041 23.3751 14.2825 23.4478 14.1687 23.5322C13.7121 23.8708 13.409 24.3716 13.3109 24.9333C13.2961 25.0185 13.2852 25.1051 13.2802 25.1927L13.3181 49.0815L26.1523 28.5055C27.7683 25.7772 31.2887 24.8983 34.5569 24.9461L38.3927 25.0508L15.7917 62.5417L18.4559 64.128L41.3274 25.0889L51.4368 25.051L28.6242 65.0752L38.1308 70.7311L39.2667 71.4068C39.7471 71.6088 40.3136 71.619 40.7981 71.4379L65.9537 56.359L61.1443 59.2417L47.8427 36.9899ZM49.7928 66.046L40.1912 50.4584L46.0525 40.1706L58.6626 60.7293L49.7928 66.046Z" fill="#2D374B"/>
<path d="M40.1912 50.4582L49.7928 66.046L58.6627 60.7291L46.0524 40.1704L40.1912 50.4582Z" fill="#28A0F0"/>
<path d="M66.7399 54.4762L66.7333 50.2159L52.9545 28.0176L47.8426 36.9898L61.1441 59.2414L65.9535 56.3587C66.4252 55.9623 66.7106 55.3808 66.7406 54.7533L66.7399 54.4762Z" fill="#28A0F0"/>
<path d="M9.00012 58.4936L15.7917 62.5417L38.3925 25.051L34.5567 24.9463C31.2885 24.8985 27.7679 25.7773 26.1521 28.5056L13.3179 49.0817L9.00012 55.9437V58.4936Z" fill="white"/>
<path d="M51.4367 25.051L41.3273 25.0889L18.4558 64.128L26.4501 68.889L28.6241 65.0752L51.4367 25.051Z" fill="white"/>
<path d="M71 24.9971C70.9154 22.8103 69.7707 20.8084 67.9777 19.6429L42.8454 4.69335C41.0717 3.76958 38.856 3.76839 37.0792 4.69275C36.8691 4.80235 12.6387 19.3378 12.6387 19.3378C12.3034 19.5042 11.9803 19.7023 11.6765 19.9273C10.0759 21.1139 9.10022 22.9578 9 24.9836V55.9437L13.3177 49.0817L13.28 25.1929C13.2851 25.1055 13.2957 25.0195 13.3107 24.9347C13.4084 24.3726 13.7117 23.8712 14.1685 23.5324C14.2825 23.448 38.9268 8.69273 39.0051 8.65225C39.5844 8.35134 40.3206 8.34779 40.9005 8.64291L65.7076 23.4023C66.2944 23.7889 66.6623 24.4444 66.695 25.161V54.7533C66.6651 55.3808 66.4252 55.9623 65.9535 56.3587L61.1441 59.2414L58.6626 60.729L49.7928 66.0459L40.7979 71.4377C40.3134 71.6187 39.7469 71.6085 39.2665 71.4065L28.624 65.0751L26.45 68.889L36.014 74.5846C36.3303 74.7707 36.612 74.9356 36.8433 75.0699C37.2013 75.2775 37.4453 75.4164 37.5315 75.4597C38.2113 75.8013 39.1894 76 40.0707 76C40.8787 76 41.6667 75.8465 42.4123 75.5444L68.5388 59.894C70.0384 58.6922 70.9206 56.8798 71 54.9165V24.9971Z" fill="#96BEDC"/>
</svg>
