<svg width="72" height="72" viewBox="0 0 72 72" fill="none" xmlns="http://www.w3.org/2000/svg">
<path fill-rule="evenodd" clip-rule="evenodd" d="M8 30C8 29.7239 8.3134 29.5 8.7 29.5H10.065C10.4516 29.5 10.765 29.7239 10.765 30C10.765 30.2761 10.4516 30.5 10.065 30.5H8.7C8.3134 30.5 8 30.2761 8 30ZM12.095 30C12.095 29.7239 12.4084 29.5 12.795 29.5H15.525C15.9116 29.5 16.225 29.7239 16.225 30C16.225 30.2761 15.9116 30.5 15.525 30.5H12.795C12.4084 30.5 12.095 30.2761 12.095 30ZM17.555 30C17.555 29.7239 17.8684 29.5 18.255 29.5H20.985C21.3716 29.5 21.685 29.7239 21.685 30C21.685 30.2761 21.3716 30.5 20.985 30.5H18.255C17.8684 30.5 17.555 30.2761 17.555 30ZM23.015 30C23.015 29.7239 23.3284 29.5 23.715 29.5H26.445C26.8316 29.5 27.145 29.7239 27.145 30C27.145 30.2761 26.8316 30.5 26.445 30.5H23.715C23.3284 30.5 23.015 30.2761 23.015 30ZM28.475 30C28.475 29.7239 28.7884 29.5 29.175 29.5H31.905C32.2916 29.5 32.605 29.7239 32.605 30C32.605 30.2761 32.2916 30.5 31.905 30.5H29.175C28.7884 30.5 28.475 30.2761 28.475 30ZM33.935 30C33.935 29.7239 34.2484 29.5 34.635 29.5L37.365 29.5C37.7516 29.5 38.065 29.7239 38.065 30C38.065 30.2761 37.7516 30.5 37.365 30.5H34.635C34.2484 30.5 33.935 30.2761 33.935 30ZM39.395 30C39.395 29.7239 39.7084 29.5 40.095 29.5H42.825C43.2116 29.5 43.525 29.7239 43.525 30C43.525 30.2761 43.2116 30.5 42.825 30.5H40.095C39.7084 30.5 39.395 30.2761 39.395 30ZM44.855 30C44.855 29.7239 45.1684 29.5 45.555 29.5H48.285C48.6716 29.5 48.985 29.7239 48.985 30C48.985 30.2761 48.6716 30.5 48.285 30.5H45.555C45.1684 30.5 44.855 30.2761 44.855 30ZM50.315 30C50.315 29.7239 50.6284 29.5 51.015 29.5H53.745C54.1316 29.5 54.445 29.7239 54.445 30C54.445 30.2761 54.1316 30.5 53.745 30.5H51.015C50.6284 30.5 50.315 30.2761 50.315 30ZM55.775 30C55.775 29.7239 56.0884 29.5 56.475 29.5H59.205C59.5916 29.5 59.905 29.7239 59.905 30C59.905 30.2761 59.5916 30.5 59.205 30.5H56.475C56.0884 30.5 55.775 30.2761 55.775 30ZM61.235 30C61.235 29.7239 61.5484 29.5 61.935 29.5H63.3C63.6866 29.5 64 29.7239 64 30C64 30.2761 63.6866 30.5 63.3 30.5H61.935C61.5484 30.5 61.235 30.2761 61.235 30Z" fill="#707070"/>
<path fill-rule="evenodd" clip-rule="evenodd" d="M8 42C8 41.7239 8.3134 41.5 8.7 41.5H10.065C10.4516 41.5 10.765 41.7239 10.765 42C10.765 42.2761 10.4516 42.5 10.065 42.5H8.7C8.3134 42.5 8 42.2761 8 42ZM12.095 42C12.095 41.7239 12.4084 41.5 12.795 41.5H15.525C15.9116 41.5 16.225 41.7239 16.225 42C16.225 42.2761 15.9116 42.5 15.525 42.5H12.795C12.4084 42.5 12.095 42.2761 12.095 42ZM17.555 42C17.555 41.7239 17.8684 41.5 18.255 41.5H20.985C21.3716 41.5 21.685 41.7239 21.685 42C21.685 42.2761 21.3716 42.5 20.985 42.5H18.255C17.8684 42.5 17.555 42.2761 17.555 42ZM23.015 42C23.015 41.7239 23.3284 41.5 23.715 41.5H26.445C26.8316 41.5 27.145 41.7239 27.145 42C27.145 42.2761 26.8316 42.5 26.445 42.5H23.715C23.3284 42.5 23.015 42.2761 23.015 42ZM28.475 42C28.475 41.7239 28.7884 41.5 29.175 41.5H31.905C32.2916 41.5 32.605 41.7239 32.605 42C32.605 42.2761 32.2916 42.5 31.905 42.5H29.175C28.7884 42.5 28.475 42.2761 28.475 42ZM33.935 42C33.935 41.7239 34.2484 41.5 34.635 41.5H37.365C37.7516 41.5 38.065 41.7239 38.065 42C38.065 42.2761 37.7516 42.5 37.365 42.5H34.635C34.2484 42.5 33.935 42.2761 33.935 42ZM39.395 42C39.395 41.7239 39.7084 41.5 40.095 41.5H42.825C43.2116 41.5 43.525 41.7239 43.525 42C43.525 42.2761 43.2116 42.5 42.825 42.5H40.095C39.7084 42.5 39.395 42.2761 39.395 42ZM44.855 42C44.855 41.7239 45.1684 41.5 45.555 41.5H48.285C48.6716 41.5 48.985 41.7239 48.985 42C48.985 42.2761 48.6716 42.5 48.285 42.5H45.555C45.1684 42.5 44.855 42.2761 44.855 42ZM50.315 42C50.315 41.7239 50.6284 41.5 51.015 41.5H53.745C54.1316 41.5 54.445 41.7239 54.445 42C54.445 42.2761 54.1316 42.5 53.745 42.5H51.015C50.6284 42.5 50.315 42.2761 50.315 42ZM55.775 42C55.775 41.7239 56.0884 41.5 56.475 41.5H59.205C59.5916 41.5 59.905 41.7239 59.905 42C59.905 42.2761 59.5916 42.5 59.205 42.5H56.475C56.0884 42.5 55.775 42.2761 55.775 42ZM61.235 42C61.235 41.7239 61.5484 41.5 61.935 41.5H63.3C63.6866 41.5 64 41.7239 64 42C64 42.2761 63.6866 42.5 63.3 42.5H61.935C61.5484 42.5 61.235 42.2761 61.235 42Z" fill="#707070"/>
<path d="M64.9901 9.6193L59.8047 7.3147L59.1955 8.68541L61.9827 9.92417L33.7703 20H38.2302L62.6038 11.2951L61.3147 14.1955L62.6854 14.8047L64.9901 9.6193Z" fill="#23E798"/>
<path d="M38.2298 52H33.77L61.9827 62.0759L59.1955 63.3147L59.8047 64.6854L64.9901 62.3808L62.6854 57.1955L61.3147 57.8047L62.6038 60.705L38.2298 52Z" fill="#23E798"/>
<path d="M33.7699 52L7.25 42.5286V29.4715L33.7702 20H38.2301L8.75 30.5286V41.4715L38.2297 52H33.7699Z" fill="#F47B8E"/>
<path fill-rule="evenodd" clip-rule="evenodd" d="M8 20.5C8 20.2239 8.3134 20 8.7 20H10.065C10.4516 20 10.765 20.2239 10.765 20.5C10.765 20.7761 10.4516 21 10.065 21H8.7C8.3134 21 8 20.7761 8 20.5ZM12.095 20.5C12.095 20.2239 12.4084 20 12.795 20H15.525C15.9116 20 16.225 20.2239 16.225 20.5C16.225 20.7761 15.9116 21 15.525 21H12.795C12.4084 21 12.095 20.7761 12.095 20.5ZM17.555 20.5C17.555 20.2239 17.8684 20 18.255 20H20.985C21.3716 20 21.685 20.2239 21.685 20.5C21.685 20.7761 21.3716 21 20.985 21H18.255C17.8684 21 17.555 20.7761 17.555 20.5ZM23.015 20.5C23.015 20.2239 23.3284 20 23.715 20H26.445C26.8316 20 27.145 20.2239 27.145 20.5C27.145 20.7761 26.8316 21 26.445 21H23.715C23.3284 21 23.015 20.7761 23.015 20.5ZM28.475 20.5C28.475 20.2239 28.7884 20 29.175 20H31.905C32.2916 20 32.605 20.2239 32.605 20.5C32.605 20.7761 32.2916 21 31.905 21H29.175C28.7884 21 28.475 20.7761 28.475 20.5ZM33.935 20.5C33.935 20.2239 34.2484 20 34.635 20L37.365 20C37.7516 20 38.065 20.2239 38.065 20.5C38.065 20.7761 37.7516 21 37.365 21H34.635C34.2484 21 33.935 20.7761 33.935 20.5ZM39.395 20.5C39.395 20.2239 39.7084 20 40.095 20H42.825C43.2116 20 43.525 20.2239 43.525 20.5C43.525 20.7761 43.2116 21 42.825 21H40.095C39.7084 21 39.395 20.7761 39.395 20.5ZM44.855 20.5C44.855 20.2239 45.1684 20 45.555 20H48.285C48.6716 20 48.985 20.2239 48.985 20.5C48.985 20.7761 48.6716 21 48.285 21H45.555C45.1684 21 44.855 20.7761 44.855 20.5ZM50.315 20.5C50.315 20.2239 50.6284 20 51.015 20H53.745C54.1316 20 54.445 20.2239 54.445 20.5C54.445 20.7761 54.1316 21 53.745 21H51.015C50.6284 21 50.315 20.7761 50.315 20.5ZM55.775 20.5C55.775 20.2239 56.0884 20 56.475 20H59.205C59.5916 20 59.905 20.2239 59.905 20.5C59.905 20.7761 59.5916 21 59.205 21H56.475C56.0884 21 55.775 20.7761 55.775 20.5ZM61.235 20.5C61.235 20.2239 61.5484 20 61.935 20H63.3C63.6866 20 64 20.2239 64 20.5C64 20.7761 63.6866 21 63.3 21H61.935C61.5484 21 61.235 20.7761 61.235 20.5Z" fill="#16CA83"/>
<path fill-rule="evenodd" clip-rule="evenodd" d="M8 51.5C8 51.7761 8.3134 52 8.7 52H10.065C10.4516 52 10.765 51.7761 10.765 51.5C10.765 51.2239 10.4516 51 10.065 51H8.7C8.3134 51 8 51.2239 8 51.5ZM12.095 51.5C12.095 51.7761 12.4084 52 12.795 52H15.525C15.9116 52 16.225 51.7761 16.225 51.5C16.225 51.2239 15.9116 51 15.525 51H12.795C12.4084 51 12.095 51.2239 12.095 51.5ZM17.555 51.5C17.555 51.7761 17.8684 52 18.255 52H20.985C21.3716 52 21.685 51.7761 21.685 51.5C21.685 51.2239 21.3716 51 20.985 51H18.255C17.8684 51 17.555 51.2239 17.555 51.5ZM23.015 51.5C23.015 51.7761 23.3284 52 23.715 52H26.445C26.8316 52 27.145 51.7761 27.145 51.5C27.145 51.2239 26.8316 51 26.445 51H23.715C23.3284 51 23.015 51.2239 23.015 51.5ZM28.475 51.5C28.475 51.7761 28.7884 52 29.175 52H31.905C32.2916 52 32.605 51.7761 32.605 51.5C32.605 51.2239 32.2916 51 31.905 51H29.175C28.7884 51 28.475 51.2239 28.475 51.5ZM33.935 51.5C33.935 51.7761 34.2484 52 34.635 52H37.365C37.7516 52 38.065 51.7761 38.065 51.5C38.065 51.2239 37.7516 51 37.365 51H34.635C34.2484 51 33.935 51.2239 33.935 51.5ZM39.395 51.5C39.395 51.7761 39.7084 52 40.095 52H42.825C43.2116 52 43.525 51.7761 43.525 51.5C43.525 51.2239 43.2116 51 42.825 51H40.095C39.7084 51 39.395 51.2239 39.395 51.5ZM44.855 51.5C44.855 51.7761 45.1684 52 45.555 52H48.285C48.6716 52 48.985 51.7761 48.985 51.5C48.985 51.2239 48.6716 51 48.285 51H45.555C45.1684 51 44.855 51.2239 44.855 51.5ZM50.315 51.5C50.315 51.7761 50.6284 52 51.015 52H53.745C54.1316 52 54.445 51.7761 54.445 51.5C54.445 51.2239 54.1316 51 53.745 51H51.015C50.6284 51 50.315 51.2239 50.315 51.5ZM55.775 51.5C55.775 51.7761 56.0884 52 56.475 52H59.205C59.5916 52 59.905 51.7761 59.905 51.5C59.905 51.2239 59.5916 51 59.205 51H56.475C56.0884 51 55.775 51.2239 55.775 51.5ZM61.235 51.5C61.235 51.7761 61.5484 52 61.935 52H63.3C63.6866 52 64 51.7761 64 51.5C64 51.2239 63.6866 51 63.3 51H61.935C61.5484 51 61.235 51.2239 61.235 51.5Z" fill="#E28D8D"/>
</svg>
