<svg width="48" height="48" viewBox="0 0 48 48" fill="none" xmlns="http://www.w3.org/2000/svg">
<path d="M19.2151 23.8814L19.655 25.2013L20.975 25.6413L20.975 26.5212L21.8549 26.5212L21.8549 27.4011L22.7348 27.4011L5.8431 44.2929C5.45258 44.6834 4.81941 44.6834 4.42889 44.2929L2.32333 42.1873C1.93281 41.7968 1.93281 41.1636 2.32333 40.7731L19.2151 23.8814Z" fill="#931010"/>
<path fill-rule="evenodd" clip-rule="evenodd" d="M40.2894 40.28L43.2495 43.2401L45.0094 41.4802L42.0493 38.5201L40.2894 40.28ZM42.3696 44.1201C42.8556 44.606 43.6435 44.606 44.1295 44.1201L45.8893 42.3602C46.3753 41.8742 46.3753 41.0863 45.8893 40.6003L42.0493 36.7603L38.5295 40.28L42.3696 44.1201Z" fill="#931010"/>
<path d="M28.2905 24.7613L29.6104 24.3214L42.0493 36.7603L38.5295 40.28L26.0906 27.8411V26.9612H26.9706V26.0812H27.8505L28.2905 24.7613Z" fill="#931010"/>
<path d="M22.7813 4H25.2187V18.6239H22.7813V4Z" fill="#931010"/>
<path d="M39.2766 8.93588L41 10.6593L30.6593 21L28.9359 19.2766L39.2766 8.93588Z" fill="#931010"/>
<path d="M7 10.6593L8.72345 8.93588L19.0641 19.2766L17.3407 21L7 10.6593Z" fill="#931010"/>
</svg>
