<svg width="48" height="48" viewBox="0 0 48 48" fill="none" xmlns="http://www.w3.org/2000/svg">
<path d="M17.3242 13.0264H17.2692V13.9251L21.1719 17.7178V16.8011L17.3242 13.0264Z" fill="#E0E1E0"/>
<path d="M21.8316 16.6753L18.1121 13.0264H17.5807L21.3002 16.6753H21.8316Z" fill="#E0E1E0"/>
<path d="M23.1325 16.6753L19.413 13.0264H18.3686L22.0881 16.6753H23.1325Z" fill="#E0E1E0"/>
<path d="M21.0437 13.0264H19.6695L23.389 16.6753H24.7632L21.0437 13.0264Z" fill="#E0E1E0"/>
<path d="M26.1008 16.6932L22.4545 13.1162C22.0698 13.0623 21.7033 13.0443 21.3002 13.0264L25.0197 16.6753H25.4045C25.6427 16.6753 25.8809 16.6753 26.1008 16.6932Z" fill="#E0E1E0"/>
<path d="M27.2734 16.8191L23.7188 13.3319C23.4073 13.26 23.0775 13.2061 22.7477 13.1522L26.3756 16.7112C26.6056 16.7245 26.8356 16.7573 27.0508 16.7881C27.1271 16.799 27.2015 16.8096 27.2734 16.8191Z" fill="#E0E1E0"/>
<path d="M28.3362 17.0707L24.8732 13.6735C24.6166 13.5836 24.3418 13.4937 24.067 13.4218L27.6032 16.891C27.8598 16.9449 28.098 16.9988 28.3362 17.0707Z" fill="#E0E1E0"/>
<path d="M28.7393 17.1965C28.8186 17.2325 28.9001 17.2684 28.9815 17.3044C29.1444 17.3763 29.3073 17.4482 29.4538 17.5201L26.0824 14.2127C25.8442 14.0869 25.5877 13.9611 25.3312 13.8532L28.7393 17.1965Z" fill="#E0E1E0"/>
<path d="M17.2692 21.0252L17.9288 21.6723L17.7822 21.8161L17.2692 21.3128V30.7316H21.1719V17.9694L17.2692 14.2127V15.0935L20.9704 18.7064L20.8238 18.8322L17.2692 15.3631V16.2618L20.3474 19.2996L20.2192 19.4434L17.2692 16.5315V17.4482L19.7428 19.8928L19.6145 20.0365L17.2692 17.7178V18.6345L19.1381 20.4859L19.0099 20.6297L17.2692 18.9041V19.8388L18.5335 21.0791L18.3869 21.2229L17.2692 20.1084V21.0252Z" fill="#E0E1E0"/>
<path d="M29.1607 16.9808C28.5377 16.0282 27.7132 15.2193 26.7237 14.5902L29.1607 16.9808Z" fill="#E0E1E0"/>
<path d="M34.6209 16.9629L33.1367 15.4709C34.1261 17.2864 34.7674 19.5333 34.7674 21.87C34.7674 22.1216 34.7674 22.3733 34.7491 22.6069L38.487 26.2918V26.2019C38.487 22.4452 37.241 19.6052 34.6209 16.9629Z" fill="#E0E1E0"/>
<path d="M21.685 30.7136C27.0169 30.426 30.4616 26.9928 30.4616 21.87C30.4616 20.5398 30.2234 19.3176 29.7837 18.2391C28.666 17.4841 27.3834 17.1786 25.4045 17.1786H21.685V30.7136Z" fill="#E0E1E0"/>
<path d="M33.9796 26.4895L37.864 30.3002C38.2304 29.1318 38.4503 27.8736 38.487 26.5434L34.7308 22.8586C34.6392 24.1528 34.3827 25.3571 33.9796 26.4895Z" fill="#E0E1E0"/>
<path d="M37.7907 30.4799L33.9063 26.6693C33.5581 27.568 33.1184 28.4128 32.587 29.1678L36.5448 33.0503C37.0578 32.2594 37.4792 31.3966 37.7907 30.4799Z" fill="#E0E1E0"/>
<path d="M34.9323 34.9916C35.5004 34.4524 35.9951 33.8412 36.4348 33.1941L32.4954 29.3295C32.0374 29.9587 31.5243 30.5518 30.938 31.0731L34.9323 34.9916Z" fill="#E0E1E0"/>
<path d="M29.1973 32.4212L33.21 36.3577C33.778 35.9802 34.3094 35.5668 34.8041 35.1174L30.8097 31.1989C30.315 31.6483 29.7836 32.0617 29.1973 32.4212Z" fill="#E0E1E0"/>
<path d="M27.4383 33.3739L31.451 37.3104C32.0007 37.0587 32.5321 36.7711 33.0451 36.4655L29.0324 32.5291C28.5377 32.8526 28.0063 33.1222 27.4383 33.3739Z" fill="#E0E1E0"/>
<path d="M25.716 34.003L29.7104 37.9215C30.2417 37.7777 30.7731 37.58 31.2678 37.3823L27.2551 33.4458C26.7604 33.6615 26.2474 33.8592 25.716 34.003Z" fill="#E0E1E0"/>
<path d="M24.0486 34.3984L28.0247 38.299C28.5377 38.2091 29.0324 38.1013 29.5088 37.9754L25.5328 34.0749C25.0564 34.2007 24.5617 34.3086 24.0486 34.3984Z" fill="#E0E1E0"/>
<path d="M23.8104 34.4344C23.3707 34.5243 22.9126 34.5782 22.4545 34.6141L26.3939 38.4608C26.8703 38.4428 27.3284 38.3889 27.7865 38.3349L23.8104 34.4344Z" fill="#E0E1E0"/>
<path d="M24.8732 38.4967H25.4045C25.661 38.4967 25.8992 38.4967 26.1374 38.4787L22.2163 34.6321C21.8132 34.6501 21.4101 34.6681 20.9887 34.6681H20.9704L24.8732 38.4967Z" fill="#E0E1E0"/>
<path d="M13.8795 34.6681L17.7822 38.4967H18.0388L14.1543 34.6681H13.8795Z" fill="#E0E1E0"/>
<path d="M14.4109 34.6681L18.3136 38.4967H18.6434L14.7407 34.6681H14.4109Z" fill="#E0E1E0"/>
<path d="M14.9972 34.6681L18.8999 38.4967H19.3214L15.4186 34.6681H14.9972Z" fill="#E0E1E0"/>
<path d="M15.6751 34.6681L19.5779 38.4967H20.1092L16.2065 34.6681H15.6751Z" fill="#E0E1E0"/>
<path d="M16.463 34.6681L20.3657 38.4967H21.007L17.1043 34.6681H16.463Z" fill="#E0E1E0"/>
<path d="M17.3608 34.6681L21.2636 38.4967H22.0331L18.1304 34.6681H17.3608Z" fill="#E0E1E0"/>
<path d="M18.4052 34.6681L22.308 38.4967H23.2424L19.3397 34.6681H18.4052Z" fill="#E0E1E0"/>
<path d="M19.5962 34.6681L23.4989 38.4967H24.6166L20.6956 34.6681H19.5962Z" fill="#E0E1E0"/>
<path fill-rule="evenodd" clip-rule="evenodd" d="M24 48C37.2548 48 48 37.2548 48 24C48 10.7452 37.2548 0 24 0C10.7452 0 0 10.7452 0 24C0 37.2548 10.7452 48 24 48ZM34.9873 16.6034C37.7357 19.2996 39 22.3194 39 26.2019C39 33.7514 33.4116 39 25.4045 39H17.5624L13 34.5243V9H20.9887C25.2763 9 28.8858 10.5099 31.3411 13.0443L34.9873 16.6034Z" fill="#E0E1E0"/>
</svg>
