<svg width="80" height="80" viewBox="0 0 80 80" fill="none" xmlns="http://www.w3.org/2000/svg">
<path d="M25.4744 12.2947C21.5465 13.5572 17.5924 14.8197 16.6628 15.109L15 15.6482V27.2473C15 34.1909 15.0524 39.425 15.1309 40.2929C15.707 46.3686 18.3256 52.1287 22.6987 56.9157C23.6937 58.0072 39.4839 71.8288 39.929 71.9997C40.1124 72.0655 53.9909 60.1771 56.2691 57.994C60.2232 54.2197 63.3131 48.6964 64.4129 43.4097C64.989 40.6217 65.0283 39.5828 64.989 27.221L64.9497 15.5956L56.0596 12.7813C51.1759 11.2426 47.1564 9.99329 47.1302 10.0064C47.1171 10.0327 47.8503 11.4925 48.7799 13.2679L50.4689 16.4898L52.9959 17.3052C54.3837 17.7523 56.4786 18.423 57.657 18.7912L59.7911 19.4619L59.7387 30.1405C59.6995 40.3981 59.6864 40.8716 59.4245 42.0683C58.4294 46.5791 56.3738 50.406 53.2184 53.6411C52.6162 54.2592 49.5524 56.9814 46.4232 59.6773C43.2939 62.3864 40.5706 64.7404 40.3742 64.9246L40.0338 65.2402L34.0241 60.0456C26.6789 53.6805 25.5791 52.6022 23.8247 49.8931C22.4761 47.8021 21.481 45.5533 20.8788 43.2256C20.2896 40.8584 20.2372 39.9773 20.2372 29.4303V19.4751L22.1095 18.8833C23.1307 18.5545 25.2256 17.8838 26.7575 17.3972C28.2763 16.9107 29.5332 16.4635 29.5332 16.4241C29.5332 16.3846 30.2664 14.938 31.1698 13.2153C32.0733 11.4793 32.8065 10.0459 32.8065 10.0196C32.8065 9.94069 32.6493 9.99329 25.4744 12.2947Z" fill="#FF4C2F"/>
<path d="M39.6671 10.401C39.5493 10.6378 36.2499 16.9633 32.3482 24.4462L25.2518 38.0574L25.3565 39.162C25.5922 41.424 26.4301 43.8175 27.7918 45.9874C28.2763 46.7764 28.4203 46.9211 28.5512 46.7764C28.6298 46.6844 31.2222 41.7659 34.3121 35.848C37.389 29.9433 39.9421 25.1037 39.9945 25.1037C40.0338 25.1037 42.6262 29.8907 45.7423 35.7297C48.8584 41.5687 51.4639 46.4476 51.5425 46.5791C51.6734 46.8027 51.6996 46.7896 51.9091 46.5134C53.2577 44.738 54.3706 41.8054 54.6848 39.2146L54.8419 37.8996L47.4051 23.9728C43.3201 16.3189 39.9552 10.0197 39.929 10.0065C39.9159 9.98021 39.7981 10.1512 39.6671 10.401Z" fill="#FF4C2F"/>
<path d="M36.3415 43.8962L32.741 51.1161L34.7704 52.8914C35.8833 53.8646 37.5199 55.2718 38.3971 56.0082L40.0076 57.3496L40.3611 57.0603C40.5706 56.9025 42.181 55.4953 43.9486 53.9304L47.1825 51.0898L43.5951 43.8831C41.618 39.9247 39.9945 36.6764 39.9683 36.6764C39.9552 36.6764 38.3186 39.9247 36.3415 43.8962Z" fill="#FF4C2F"/>
</svg>
