<svg width="48" height="28" viewBox="0 0 48 28" fill="none" xmlns="http://www.w3.org/2000/svg">
<rect y="5" width="48" height="16" rx="4" fill="#484848"/>
<path d="M5.36133 15.1367L6.9375 14.334C7.0625 14.6426 7.17969 14.8711 7.28906 15.0195C7.4375 15.2188 7.62695 15.3613 7.85742 15.4473C8.08789 15.5332 8.39062 15.5762 8.76562 15.5762C9.78516 15.5762 10.2949 15.2949 10.2949 14.7324C10.2949 14.4434 10.1309 14.2207 9.80273 14.0645C9.60742 13.9707 9.13086 13.8086 8.37305 13.5781C7.59961 13.3477 6.99805 13.0566 6.56836 12.7051C6.06836 12.291 5.81836 11.7637 5.81836 11.123C5.81836 10.4551 6.07031 9.91797 6.57422 9.51172C7.125 9.06641 7.85547 8.84375 8.76562 8.84375C9.44141 8.84375 10.0254 8.96875 10.5176 9.21875C11.0137 9.46875 11.4277 9.84961 11.7598 10.3613L10.3359 11.2402C10.1602 10.9277 9.94727 10.7051 9.69727 10.5723C9.44727 10.4395 9.11719 10.373 8.70703 10.373C8.36328 10.373 8.0918 10.4355 7.89258 10.5605C7.69727 10.6816 7.59961 10.8516 7.59961 11.0703C7.59961 11.332 7.73242 11.5332 7.99805 11.6738C8.14648 11.752 8.57227 11.8965 9.27539 12.1074C10.123 12.3613 10.791 12.6543 11.2793 12.9863C11.834 13.3652 12.1113 13.9297 12.1113 14.6797C12.1113 15.1445 12 15.5684 11.7773 15.9512C11.3086 16.7559 10.3145 17.1582 8.79492 17.1582C7.93164 17.1582 7.20898 17.0137 6.62695 16.7246C6.29102 16.5566 6.02734 16.3555 5.83594 16.1211C5.64844 15.8828 5.49023 15.5547 5.36133 15.1367ZM17.6602 8.84375C19.2148 8.84375 20.4238 9.27344 21.2871 10.1328C22.0059 10.8477 22.3652 11.8027 22.3652 12.998C22.3652 14.1934 22.0059 15.1504 21.2871 15.8691C20.4277 16.7285 19.2246 17.1582 17.6777 17.1582C16.1035 17.1582 14.8867 16.7285 14.0273 15.8691C13.3086 15.1504 12.9492 14.1758 12.9492 12.9453C12.9492 12.2344 13.0977 11.5859 13.3945 11C13.8203 10.1641 14.5176 9.56445 15.4863 9.20117C16.123 8.96289 16.8477 8.84375 17.6602 8.84375ZM17.6602 10.4316C16.6992 10.4316 15.9648 10.6953 15.457 11.2227C15.0469 11.6523 14.8418 12.2324 14.8418 12.9629C14.8418 13.7441 15.0469 14.3496 15.457 14.7793C15.9648 15.3066 16.7031 15.5703 17.6719 15.5703C18.6211 15.5703 19.3496 15.3066 19.8574 14.7793C20.2676 14.3496 20.4727 13.7559 20.4727 12.998C20.4727 12.248 20.2676 11.6562 19.8574 11.2227C19.3535 10.6953 18.6211 10.4316 17.6602 10.4316ZM28.0195 8.84375C29.5742 8.84375 30.7832 9.27344 31.6465 10.1328C32.3652 10.8477 32.7246 11.8027 32.7246 12.998C32.7246 14.1934 32.3652 15.1504 31.6465 15.8691C30.7871 16.7285 29.584 17.1582 28.0371 17.1582C26.4629 17.1582 25.2461 16.7285 24.3867 15.8691C23.668 15.1504 23.3086 14.1758 23.3086 12.9453C23.3086 12.2344 23.457 11.5859 23.7539 11C24.1797 10.1641 24.877 9.56445 25.8457 9.20117C26.4824 8.96289 27.207 8.84375 28.0195 8.84375ZM28.0195 10.4316C27.0586 10.4316 26.3242 10.6953 25.8164 11.2227C25.4062 11.6523 25.2012 12.2324 25.2012 12.9629C25.2012 13.7441 25.4062 14.3496 25.8164 14.7793C26.3242 15.3066 27.0625 15.5703 28.0312 15.5703C28.9805 15.5703 29.709 15.3066 30.2168 14.7793C30.627 14.3496 30.832 13.7559 30.832 12.998C30.832 12.248 30.627 11.6562 30.2168 11.2227C29.7129 10.6953 28.9805 10.4316 28.0195 10.4316ZM34.1777 17V8.99609H35.4551L40.2305 14.0176V9.00195H41.9941V17.1055H40.8281L35.9414 11.8086V17H34.1777Z" fill="#B6B9B8"/>
</svg>
