<svg width="28" height="28" viewBox="0 0 28 28" fill="none" xmlns="http://www.w3.org/2000/svg">
<path fill-rule="evenodd" clip-rule="evenodd" d="M23 8H2V7H23V8Z" fill="#22BF80"/>
<path fill-rule="evenodd" clip-rule="evenodd" d="M23 19H2V18H23V19Z" fill="#C96969"/>
<path d="M19.1016 4.49998L15.5659 5.99998H13.0054L18.8982 3.49998H21.7928L20.6463 2.35353L21.3535 1.64642L23.707 3.99998L21.3535 6.35353L20.6463 5.64642L21.7928 4.49998H19.1016Z" fill="#F47B7B"/>
<path d="M19.1016 21.5L15.5659 20H13.0054L18.8982 22.5H21.7928L20.6463 23.6464L21.3535 24.3535L23.707 22L21.3535 19.6464L20.6463 20.3535L21.7928 21.5H19.1016Z" fill="#F47B7B"/>
<path d="M5.93404 17L2 15.331V10.669L5.93404 9H8.49453L3 11.331V14.669L8.49453 17H5.93404Z" fill="#23E798"/>
</svg>
