<svg width="80" height="80" viewBox="0 0 80 80" fill="none" xmlns="http://www.w3.org/2000/svg">
<path fill-rule="evenodd" clip-rule="evenodd" d="M21.9523 6.61361C21.9523 8.05123 21.3392 11.0186 20.5898 13.2086C17.9649 20.8793 18.8266 25.7615 24.0747 32.949C29.423 40.2742 30.5725 43.1353 28.7652 44.626C27.4756 45.6893 25.8863 44.2718 23.6446 40.0586C21.6553 36.3188 18.94 34.1272 14.867 32.9734C13.6026 32.6153 13.6478 32.7383 15.4905 34.6797C18.8779 38.2477 19.8246 40.7953 20.2949 47.6058C21.0776 58.9378 28.9161 67.9519 40.6467 71.0096C45.9057 72.3806 45.7182 71.7853 38.6852 64.7771C33.9952 60.104 32.3078 58.0689 32.3078 57.0858C32.3078 55.5143 42.8601 44.626 44.3829 44.626C45.3198 44.626 62.6009 56.0739 63.7068 57.4276C64.5832 58.5001 64.8333 58.3652 65.501 56.4623C67.5568 50.6013 62.9437 36.2273 57.4591 31.4031C55.7864 29.9324 55.5679 30.5483 56.7844 33.3022C58.414 36.9932 58.7187 39.4254 57.6804 40.4572C56.2742 41.8548 55.375 41.0146 53.5409 36.5902C50.8185 30.0239 49.3192 28.7987 38.4813 24.2859C30.1702 20.8251 27.6866 18.5094 26.603 13.2086C26.1054 10.7759 23.0255 4 22.4167 4C22.1611 4 21.9523 5.17599 21.9523 6.61361ZM50.8387 51.5422C50.8387 52.8942 62.1327 63.0648 62.7769 62.2929C64.2932 60.4772 63.2473 59.0797 57.379 55.0794C51.6988 51.2069 50.8387 50.7421 50.8387 51.5422ZM47.8378 61.4214L45.1503 64.1336L49.2069 68.1924C53.9671 72.9554 53.7758 72.9109 56.7206 69.929C59.6381 66.9747 59.7079 67.284 55.0763 62.6499C50.3967 57.9676 51.1363 58.0927 47.8378 61.4214ZM55.1024 67.557C55.2044 68.0792 54.9308 68.46 54.4533 68.46C53.4412 68.46 52.8297 67.577 53.3093 66.8062C53.802 66.0137 54.8904 66.4687 55.1024 67.557Z" fill="url(#paint0_linear)"/>
<defs>
<linearGradient id="paint0_linear" x1="45.0665" y1="72.2517" x2="56.9185" y2="23.4668" gradientUnits="userSpaceOnUse">
<stop stop-color="#D33413"/>
<stop offset="1" stop-color="#FCB503"/>
</linearGradient>
</defs>
</svg>
