<svg width="24" height="24" viewBox="0 0 24 24" fill="none" xmlns="http://www.w3.org/2000/svg">
<rect x="1" y="4" width="8" height="2" fill="url(#paint0_linear_78_1594)"/>
<path d="M18 10H24V11C24 11.5523 23.5523 12 23 12H19C18.4477 12 18 11.5523 18 11V10Z" fill="url(#paint1_linear_78_1594)"/>
<path d="M9 6V14C9 11.7909 10.7909 10 13 10H18H24C24 7.79086 22.2091 6 20 6H9Z" fill="url(#paint2_linear_78_1594)"/>
<path d="M16.5 1C16.5 0.447715 16.0523 0 15.5 0H5C2.79086 0 1 1.79086 1 4V4H9V4C9 2.89543 9.89543 2 11 2H15.5C16.0523 2 16.5 1.55228 16.5 1V1Z" fill="url(#paint3_linear_78_1594)"/>
<rect x="1" y="6" width="8" height="16" fill="url(#paint4_linear_78_1594)"/>
<path fill-rule="evenodd" clip-rule="evenodd" d="M13 10C10.7909 10 9 11.7909 9 14V6H15V10H13Z" fill="url(#paint5_linear_78_1594)"/>
<path d="M0 23C0 22.4477 0.447715 22 1 22H9C9.55228 22 10 22.4477 10 23V24H0V23Z" fill="url(#paint6_linear_78_1594)"/>
<path d="M18.9375 13.4375C19.2104 13.1646 19.25 12.5 19.25 12.5C19.25 12.5 19.2896 13.1646 19.5625 13.4375C19.8354 13.7104 20.5 13.75 20.5 13.75C20.5 13.75 19.8354 13.7896 19.5625 14.0625C19.2896 14.3354 19.25 15 19.25 15C19.25 15 19.2104 14.3354 18.9375 14.0625C18.6646 13.7896 18 13.75 18 13.75C18 13.75 18.6646 13.7104 18.9375 13.4375Z" fill="url(#paint7_radial_78_1594)"/>
<path d="M18.9375 16.4375C19.2104 16.1646 19.25 15.5 19.25 15.5C19.25 15.5 19.2896 16.1646 19.5625 16.4375C19.8354 16.7104 20.5 16.75 20.5 16.75C20.5 16.75 19.8354 16.7896 19.5625 17.0625C19.2896 17.3354 19.25 18 19.25 18C19.25 18 19.2104 17.3354 18.9375 17.0625C18.6646 16.7896 18 16.75 18 16.75C18 16.75 18.6646 16.7104 18.9375 16.4375Z" fill="url(#paint8_radial_78_1594)"/>
<path d="M18.9375 16.4375C19.2104 16.1646 19.25 15.5 19.25 15.5C19.25 15.5 19.2896 16.1646 19.5625 16.4375C19.8354 16.7104 20.5 16.75 20.5 16.75C20.5 16.75 19.8354 16.7896 19.5625 17.0625C19.2896 17.3354 19.25 18 19.25 18C19.25 18 19.2104 17.3354 18.9375 17.0625C18.6646 16.7896 18 16.75 18 16.75C18 16.75 18.6646 16.7104 18.9375 16.4375Z" fill="url(#paint9_radial_78_1594)"/>
<path d="M18.9375 19.4375C19.2104 19.1646 19.25 18.5 19.25 18.5C19.25 18.5 19.2896 19.1646 19.5625 19.4375C19.8354 19.7104 20.5 19.75 20.5 19.75C20.5 19.75 19.8354 19.7896 19.5625 20.0625C19.2896 20.3354 19.25 21 19.25 21C19.25 21 19.2104 20.3354 18.9375 20.0625C18.6646 19.7896 18 19.75 18 19.75C18 19.75 18.6646 19.7104 18.9375 19.4375Z" fill="url(#paint10_radial_78_1594)"/>
<path d="M18.9375 19.4375C19.2104 19.1646 19.25 18.5 19.25 18.5C19.25 18.5 19.2896 19.1646 19.5625 19.4375C19.8354 19.7104 20.5 19.75 20.5 19.75C20.5 19.75 19.8354 19.7896 19.5625 20.0625C19.2896 20.3354 19.25 21 19.25 21C19.25 21 19.2104 20.3354 18.9375 20.0625C18.6646 19.7896 18 19.75 18 19.75C18 19.75 18.6646 19.7104 18.9375 19.4375Z" fill="url(#paint11_radial_78_1594)"/>
<path d="M18.9375 22.4375C19.2104 22.1646 19.25 21.5 19.25 21.5C19.25 21.5 19.2896 22.1646 19.5625 22.4375C19.8354 22.7104 20.5 22.75 20.5 22.75C20.5 22.75 19.8354 22.7896 19.5625 23.0625C19.2896 23.3354 19.25 24 19.25 24C19.25 24 19.2104 23.3354 18.9375 23.0625C18.6646 22.7896 18 22.75 18 22.75C18 22.75 18.6646 22.7104 18.9375 22.4375Z" fill="url(#paint12_radial_78_1594)"/>
<path d="M18.9375 22.4375C19.2104 22.1646 19.25 21.5 19.25 21.5C19.25 21.5 19.2896 22.1646 19.5625 22.4375C19.8354 22.7104 20.5 22.75 20.5 22.75C20.5 22.75 19.8354 22.7896 19.5625 23.0625C19.2896 23.3354 19.25 24 19.25 24C19.25 24 19.2104 23.3354 18.9375 23.0625C18.6646 22.7896 18 22.75 18 22.75C18 22.75 18.6646 22.7104 18.9375 22.4375Z" fill="url(#paint13_radial_78_1594)"/>
<path d="M20.8125 15.0625C20.9762 14.8988 21 14.5 21 14.5C21 14.5 21.0238 14.8988 21.1875 15.0625C21.3512 15.2262 21.75 15.25 21.75 15.25C21.75 15.25 21.3512 15.2738 21.1875 15.4375C21.0238 15.6012 21 16 21 16C21 16 20.9762 15.6012 20.8125 15.4375C20.6488 15.2738 20.25 15.25 20.25 15.25C20.25 15.25 20.6488 15.2262 20.8125 15.0625Z" fill="url(#paint14_radial_78_1594)"/>
<path d="M20.8125 18.0625C20.9762 17.8988 21 17.5 21 17.5C21 17.5 21.0238 17.8988 21.1875 18.0625C21.3512 18.2262 21.75 18.25 21.75 18.25C21.75 18.25 21.3512 18.2738 21.1875 18.4375C21.0238 18.6012 21 19 21 19C21 19 20.9762 18.6012 20.8125 18.4375C20.6488 18.2738 20.25 18.25 20.25 18.25C20.25 18.25 20.6488 18.2262 20.8125 18.0625Z" fill="url(#paint15_radial_78_1594)"/>
<path d="M20.8125 21.0625C20.9762 20.8988 21 20.5 21 20.5C21 20.5 21.0238 20.8988 21.1875 21.0625C21.3512 21.2262 21.75 21.25 21.75 21.25C21.75 21.25 21.3512 21.2738 21.1875 21.4375C21.0238 21.6012 21 22 21 22C21 22 20.9762 21.6012 20.8125 21.4375C20.6488 21.2738 20.25 21.25 20.25 21.25C20.25 21.25 20.6488 21.2262 20.8125 21.0625Z" fill="url(#paint16_radial_78_1594)"/>
<path d="M22.4375 13.4375C22.7104 13.1646 22.75 12.5 22.75 12.5C22.75 12.5 22.7896 13.1646 23.0625 13.4375C23.3354 13.7104 24 13.75 24 13.75C24 13.75 23.3354 13.7896 23.0625 14.0625C22.7896 14.3354 22.75 15 22.75 15C22.75 15 22.7104 14.3354 22.4375 14.0625C22.1646 13.7896 21.5 13.75 21.5 13.75C21.5 13.75 22.1646 13.7104 22.4375 13.4375Z" fill="url(#paint17_radial_78_1594)"/>
<path d="M22.4375 13.4375C22.7104 13.1646 22.75 12.5 22.75 12.5C22.75 12.5 22.7896 13.1646 23.0625 13.4375C23.3354 13.7104 24 13.75 24 13.75C24 13.75 23.3354 13.7896 23.0625 14.0625C22.7896 14.3354 22.75 15 22.75 15C22.75 15 22.7104 14.3354 22.4375 14.0625C22.1646 13.7896 21.5 13.75 21.5 13.75C21.5 13.75 22.1646 13.7104 22.4375 13.4375Z" fill="url(#paint18_radial_78_1594)"/>
<path d="M22.4375 16.4375C22.7104 16.1646 22.75 15.5 22.75 15.5C22.75 15.5 22.7896 16.1646 23.0625 16.4375C23.3354 16.7104 24 16.75 24 16.75C24 16.75 23.3354 16.7896 23.0625 17.0625C22.7896 17.3354 22.75 18 22.75 18C22.75 18 22.7104 17.3354 22.4375 17.0625C22.1646 16.7896 21.5 16.75 21.5 16.75C21.5 16.75 22.1646 16.7104 22.4375 16.4375Z" fill="url(#paint19_radial_78_1594)"/>
<path d="M22.4375 16.4375C22.7104 16.1646 22.75 15.5 22.75 15.5C22.75 15.5 22.7896 16.1646 23.0625 16.4375C23.3354 16.7104 24 16.75 24 16.75C24 16.75 23.3354 16.7896 23.0625 17.0625C22.7896 17.3354 22.75 18 22.75 18C22.75 18 22.7104 17.3354 22.4375 17.0625C22.1646 16.7896 21.5 16.75 21.5 16.75C21.5 16.75 22.1646 16.7104 22.4375 16.4375Z" fill="url(#paint20_radial_78_1594)"/>
<path d="M22.4375 19.4375C22.7104 19.1646 22.75 18.5 22.75 18.5C22.75 18.5 22.7896 19.1646 23.0625 19.4375C23.3354 19.7104 24 19.75 24 19.75C24 19.75 23.3354 19.7896 23.0625 20.0625C22.7896 20.3354 22.75 21 22.75 21C22.75 21 22.7104 20.3354 22.4375 20.0625C22.1646 19.7896 21.5 19.75 21.5 19.75C21.5 19.75 22.1646 19.7104 22.4375 19.4375Z" fill="url(#paint21_radial_78_1594)"/>
<path d="M22.4375 19.4375C22.7104 19.1646 22.75 18.5 22.75 18.5C22.75 18.5 22.7896 19.1646 23.0625 19.4375C23.3354 19.7104 24 19.75 24 19.75C24 19.75 23.3354 19.7896 23.0625 20.0625C22.7896 20.3354 22.75 21 22.75 21C22.75 21 22.7104 20.3354 22.4375 20.0625C22.1646 19.7896 21.5 19.75 21.5 19.75C21.5 19.75 22.1646 19.7104 22.4375 19.4375Z" fill="url(#paint22_radial_78_1594)"/>
<path d="M22.4375 22.4375C22.7104 22.1646 22.75 21.5 22.75 21.5C22.75 21.5 22.7896 22.1646 23.0625 22.4375C23.3354 22.7104 24 22.75 24 22.75C24 22.75 23.3354 22.7896 23.0625 23.0625C22.7896 23.3354 22.75 24 22.75 24C22.75 24 22.7104 23.3354 22.4375 23.0625C22.1646 22.7896 21.5 22.75 21.5 22.75C21.5 22.75 22.1646 22.7104 22.4375 22.4375Z" fill="url(#paint23_radial_78_1594)"/>
<path d="M22.4375 22.4375C22.7104 22.1646 22.75 21.5 22.75 21.5C22.75 21.5 22.7896 22.1646 23.0625 22.4375C23.3354 22.7104 24 22.75 24 22.75C24 22.75 23.3354 22.7896 23.0625 23.0625C22.7896 23.3354 22.75 24 22.75 24C22.75 24 22.7104 23.3354 22.4375 23.0625C22.1646 22.7896 21.5 22.75 21.5 22.75C21.5 22.75 22.1646 22.7104 22.4375 22.4375Z" fill="url(#paint24_radial_78_1594)"/>
<defs>
<linearGradient id="paint0_linear_78_1594" x1="1" y1="4.875" x2="9" y2="4.875" gradientUnits="userSpaceOnUse">
<stop stop-color="#EFCC43"/>
<stop offset="0.401042" stop-color="#F5E18E"/>
<stop offset="0.567708" stop-color="#F5E18E"/>
<stop offset="1" stop-color="#EFCC43"/>
</linearGradient>
<linearGradient id="paint1_linear_78_1594" x1="18" y1="10.875" x2="24" y2="10.875" gradientUnits="userSpaceOnUse">
<stop stop-color="#9D7FF1"/>
<stop offset="0.0001" stop-color="#B9A3F5"/>
<stop offset="0.401042" stop-color="#C7B6F7"/>
<stop offset="0.567708" stop-color="#C7B6F7"/>
<stop offset="1" stop-color="#B9A3F5"/>
</linearGradient>
<linearGradient id="paint2_linear_78_1594" x1="15.75" y1="6" x2="15.75" y2="10" gradientUnits="userSpaceOnUse">
<stop stop-color="#9D7FF1"/>
<stop offset="1" stop-color="#8F6CEF"/>
</linearGradient>
<linearGradient id="paint3_linear_78_1594" x1="8.75" y1="4" x2="8.75" y2="1.17288e-08" gradientUnits="userSpaceOnUse">
<stop stop-color="#8F6CEF"/>
<stop offset="0.25188" stop-color="#9D7FF1"/>
<stop offset="0.749329" stop-color="#9D7FF1"/>
<stop offset="1" stop-color="#AB91F3"/>
</linearGradient>
<linearGradient id="paint4_linear_78_1594" x1="5" y1="22" x2="5" y2="6" gradientUnits="userSpaceOnUse">
<stop stop-color="#8F6CEF"/>
<stop offset="0.124878" stop-color="#9D7FF1"/>
<stop offset="0.869648" stop-color="#9D7FF1"/>
<stop offset="1" stop-color="#8F6CEF"/>
</linearGradient>
<linearGradient id="paint5_linear_78_1594" x1="13" y1="8" x2="9" y2="8" gradientUnits="userSpaceOnUse">
<stop stop-color="#9D7FF1" stop-opacity="0"/>
<stop offset="1" stop-color="#815AED"/>
</linearGradient>
<linearGradient id="paint6_linear_78_1594" x1="-1.21072e-07" y1="22.875" x2="10" y2="22.875" gradientUnits="userSpaceOnUse">
<stop stop-color="#9D7FF1"/>
<stop offset="0.0001" stop-color="#B9A3F5"/>
<stop offset="0.401042" stop-color="#C7B6F7"/>
<stop offset="0.567708" stop-color="#C7B6F7"/>
<stop offset="1" stop-color="#B9A3F5"/>
</linearGradient>
<radialGradient id="paint7_radial_78_1594" cx="0" cy="0" r="1" gradientUnits="userSpaceOnUse" gradientTransform="translate(19.25 13.75) rotate(90) scale(1.25)">
<stop stop-color="#EFCC43"/>
<stop offset="1" stop-color="#EBC21E"/>
</radialGradient>
<radialGradient id="paint8_radial_78_1594" cx="0" cy="0" r="1" gradientUnits="userSpaceOnUse" gradientTransform="translate(19.25 16.75) rotate(90) scale(1.25)">
<stop stop-color="#F5E18E"/>
<stop offset="1" stop-color="#EFCC43"/>
</radialGradient>
<radialGradient id="paint9_radial_78_1594" cx="0" cy="0" r="1" gradientUnits="userSpaceOnUse" gradientTransform="translate(19.25 16.75) rotate(90) scale(1.25)">
<stop stop-color="#EFCC43"/>
<stop offset="1" stop-color="#EBC21E"/>
</radialGradient>
<radialGradient id="paint10_radial_78_1594" cx="0" cy="0" r="1" gradientUnits="userSpaceOnUse" gradientTransform="translate(19.25 19.75) rotate(90) scale(1.25)">
<stop stop-color="#F5E18E"/>
<stop offset="1" stop-color="#EFCC43"/>
</radialGradient>
<radialGradient id="paint11_radial_78_1594" cx="0" cy="0" r="1" gradientUnits="userSpaceOnUse" gradientTransform="translate(19.25 19.75) rotate(90) scale(1.25)">
<stop stop-color="#EFCC43"/>
<stop offset="1" stop-color="#EBC21E"/>
</radialGradient>
<radialGradient id="paint12_radial_78_1594" cx="0" cy="0" r="1" gradientUnits="userSpaceOnUse" gradientTransform="translate(19.25 22.75) rotate(90) scale(1.25)">
<stop stop-color="#F5E18E"/>
<stop offset="1" stop-color="#EFCC43"/>
</radialGradient>
<radialGradient id="paint13_radial_78_1594" cx="0" cy="0" r="1" gradientUnits="userSpaceOnUse" gradientTransform="translate(19.25 22.75) rotate(90) scale(1.25)">
<stop stop-color="#EFCC43"/>
<stop offset="1" stop-color="#EBC21E"/>
</radialGradient>
<radialGradient id="paint14_radial_78_1594" cx="0" cy="0" r="1" gradientUnits="userSpaceOnUse" gradientTransform="translate(21 15.25) rotate(90) scale(0.75)">
<stop stop-color="#F2D769"/>
<stop offset="1" stop-color="#EFCC43"/>
</radialGradient>
<radialGradient id="paint15_radial_78_1594" cx="0" cy="0" r="1" gradientUnits="userSpaceOnUse" gradientTransform="translate(21 18.25) rotate(90) scale(0.75)">
<stop stop-color="#F2D769"/>
<stop offset="1" stop-color="#EFCC43"/>
</radialGradient>
<radialGradient id="paint16_radial_78_1594" cx="0" cy="0" r="1" gradientUnits="userSpaceOnUse" gradientTransform="translate(21 21.25) rotate(90) scale(0.75)">
<stop stop-color="#F2D769"/>
<stop offset="1" stop-color="#EFCC43"/>
</radialGradient>
<radialGradient id="paint17_radial_78_1594" cx="0" cy="0" r="1" gradientUnits="userSpaceOnUse" gradientTransform="translate(22.75 13.75) rotate(90) scale(1.25)">
<stop stop-color="#F5E18E"/>
<stop offset="1" stop-color="#EFCC43"/>
</radialGradient>
<radialGradient id="paint18_radial_78_1594" cx="0" cy="0" r="1" gradientUnits="userSpaceOnUse" gradientTransform="translate(22.75 13.75) rotate(90) scale(1.25)">
<stop stop-color="#EFCC43"/>
<stop offset="1" stop-color="#EBC21E"/>
</radialGradient>
<radialGradient id="paint19_radial_78_1594" cx="0" cy="0" r="1" gradientUnits="userSpaceOnUse" gradientTransform="translate(22.75 16.75) rotate(90) scale(1.25)">
<stop stop-color="#F5E18E"/>
<stop offset="1" stop-color="#EFCC43"/>
</radialGradient>
<radialGradient id="paint20_radial_78_1594" cx="0" cy="0" r="1" gradientUnits="userSpaceOnUse" gradientTransform="translate(22.75 16.75) rotate(90) scale(1.25)">
<stop stop-color="#EFCC43"/>
<stop offset="1" stop-color="#EBC21E"/>
</radialGradient>
<radialGradient id="paint21_radial_78_1594" cx="0" cy="0" r="1" gradientUnits="userSpaceOnUse" gradientTransform="translate(22.75 19.75) rotate(90) scale(1.25)">
<stop stop-color="#F5E18E"/>
<stop offset="1" stop-color="#EFCC43"/>
</radialGradient>
<radialGradient id="paint22_radial_78_1594" cx="0" cy="0" r="1" gradientUnits="userSpaceOnUse" gradientTransform="translate(22.75 19.75) rotate(90) scale(1.25)">
<stop stop-color="#EFCC43"/>
<stop offset="1" stop-color="#EBC21E"/>
</radialGradient>
<radialGradient id="paint23_radial_78_1594" cx="0" cy="0" r="1" gradientUnits="userSpaceOnUse" gradientTransform="translate(22.75 22.75) rotate(90) scale(1.25)">
<stop stop-color="#F5E18E"/>
<stop offset="1" stop-color="#EFCC43"/>
</radialGradient>
<radialGradient id="paint24_radial_78_1594" cx="0" cy="0" r="1" gradientUnits="userSpaceOnUse" gradientTransform="translate(22.75 22.75) rotate(90) scale(1.25)">
<stop stop-color="#EFCC43"/>
<stop offset="1" stop-color="#EBC21E"/>
</radialGradient>
</defs>
</svg>
