<svg width="28" height="28" viewBox="0 0 28 28" fill="none" xmlns="http://www.w3.org/2000/svg">
<g opacity="0.64">
<mask id="mask0" style="mask-type:alpha" maskUnits="userSpaceOnUse" x="0" y="0" width="28" height="28">
<circle cx="14" cy="14" r="14" fill="#C4C4C4"/>
</mask>
<g mask="url(#mask0)">
<path d="M14.07 29.015C22.3239 29.015 29.015 22.3239 29.015 14.07C29.015 5.8161 22.3239 -0.875 14.07 -0.875C5.8161 -0.875 -0.875 5.8161 -0.875 14.07C-0.875 22.3239 5.8161 29.015 14.07 29.015Z" fill="url(#paint0_linear)"/>
<path d="M20.6103 20.0249L15.5567 7.80697C15.2717 7.17527 14.848 6.86713 14.2895 6.86713H13.8427C13.2842 6.86713 12.8605 7.17527 12.5754 7.80697L10.376 13.1302H8.71207C8.21518 13.134 7.81075 13.5346 7.80689 14.0353V14.0469C7.81075 14.5438 8.21518 14.9482 8.71207 14.9521H9.60569L7.50645 20.0249C7.46794 20.1366 7.44482 20.2522 7.44482 20.3716C7.44482 20.6566 7.53342 20.88 7.69134 21.0533C7.84926 21.2267 8.07652 21.3114 8.36155 21.3114C8.55029 21.3075 8.73133 21.2498 8.88155 21.1381C9.04332 21.0264 9.15503 20.8646 9.24362 20.6797L11.5547 14.9482H13.157C13.6539 14.9444 14.0584 14.5438 14.0622 14.043V14.0199C14.0584 13.523 13.6539 13.1186 13.157 13.1148H12.3019L14.0661 8.71985L18.8731 20.6758C18.9617 20.8607 19.0734 21.0225 19.2352 21.1342C19.3854 21.2459 19.5703 21.3037 19.7552 21.3075C20.0402 21.3075 20.2636 21.2228 20.4254 21.0495C20.5872 20.8761 20.6719 20.6527 20.6719 20.3677C20.6758 20.2522 20.6565 20.1327 20.6103 20.0249Z" fill="white"/>
</g>
</g>
<defs>
<linearGradient id="paint0_linear" x1="25.2128" y1="4.69419" x2="2.97462" y2="23.4053" gradientUnits="userSpaceOnUse">
<stop stop-color="#B6509E"/>
<stop offset="1" stop-color="#2EBAC6"/>
</linearGradient>
</defs>
</svg>
