<svg width="48" height="48" viewBox="0 0 48 48" fill="none" xmlns="http://www.w3.org/2000/svg">
<path d="M18.8964 22.2132C17.1884 22.2132 15.8399 23.5822 15.8399 25.2525C15.8399 26.9227 17.2183 28.2917 18.8964 28.2917C20.6045 28.2917 21.9529 26.9227 21.9529 25.2525C21.9829 23.5822 20.6045 22.2132 18.8964 22.2132Z" fill="#E0E1E0"/>
<path d="M29.8339 22.2132C28.1259 22.2132 26.7774 23.5822 26.7774 25.2525C26.7774 26.9227 28.1558 28.2917 29.8339 28.2917C31.542 28.2917 32.8904 26.9227 32.8904 25.2525C32.8904 23.5822 31.542 22.2132 29.8339 22.2132Z" fill="#E0E1E0"/>
<path fill-rule="evenodd" clip-rule="evenodd" d="M24 48C37.2548 48 48 37.2548 48 24C48 10.7452 37.2548 0 24 0C10.7452 0 0 10.7452 0 24C0 37.2548 10.7452 48 24 48ZM32.8305 35C32.8305 35 31.7517 33.8226 30.8527 32.7822C34.7783 31.7691 36.2765 29.5239 36.2765 29.5239C35.0479 30.2631 33.8793 30.7834 32.8305 31.1393C31.3322 31.7143 29.8938 32.0976 28.4854 32.3167C25.919 32.7484 23.287 32.7392 20.7243 32.2893C19.2198 32.0203 17.7453 31.6262 16.3193 31.1119C15.5677 30.8478 14.8368 30.5368 14.1318 30.181C14.0869 30.1536 14.0419 30.1331 13.997 30.1125C13.952 30.092 13.9071 30.0715 13.8622 30.0441C13.8022 30.0167 13.7723 29.9893 13.7423 29.962C13.2029 29.6881 12.9033 29.4965 12.9033 29.4965C12.9033 29.4965 14.3416 31.6869 18.1473 32.7274C17.2483 33.7679 16.1396 35 16.1396 35C9.51712 34.8083 7 30.8381 7 30.8381C7 22.0216 11.3151 14.8752 11.3151 14.8752C15.6301 11.9181 19.7354 12.0002 19.7354 12.0002L20.0351 12.3288C14.6413 13.7526 12.1541 15.9157 12.1541 15.9157C12.1541 15.9157 12.8134 15.5871 13.9221 15.1216C17.1284 13.8347 19.6755 13.4788 20.7243 13.3966L20.7915 13.3863C20.9427 13.3627 21.0768 13.3419 21.2337 13.3419C26.4301 12.6992 31.7149 13.6016 36.3065 15.9157C36.3065 15.9157 33.9392 13.8621 28.845 12.4383L29.2646 12.0002C29.2646 12.0002 33.3699 11.9181 37.6849 14.8752C37.6849 14.8752 42 22.0216 42 30.8381C42 30.8381 39.4529 34.8083 32.8305 35Z" fill="#E0E1E0"/>
</svg>
