<svg width="32" height="32" viewBox="0 0 32 32" fill="none" xmlns="http://www.w3.org/2000/svg">
<path d="M26.3774 4.80905L17.3831 11.4893L19.0463 7.54803L26.3774 4.80905Z" fill="#E2761B" stroke="#E2761B" stroke-linecap="round" stroke-linejoin="round"/>
<path d="M5.61353 4.80905L14.5356 11.5526L12.9536 7.54803L5.61353 4.80905Z" fill="#E4761B" stroke="#E4761B" stroke-linecap="round" stroke-linejoin="round"/>
<path d="M23.1412 20.2938L20.7457 23.9638L25.8711 25.374L27.3446 20.3751L23.1412 20.2938Z" fill="#E4761B" stroke="#E4761B" stroke-linecap="round" stroke-linejoin="round"/>
<path d="M4.66443 20.3751L6.12884 25.374L11.2543 23.9638L8.85878 20.2938L4.66443 20.3751Z" fill="#E4761B" stroke="#E4761B" stroke-linecap="round" stroke-linejoin="round"/>
<path d="M10.965 14.0927L9.53674 16.2531L14.626 16.4791L14.4452 11.0102L10.965 14.0927Z" fill="#E4761B" stroke="#E4761B" stroke-linecap="round" stroke-linejoin="round"/>
<path d="M21.026 14.0927L17.5006 10.9469L17.3831 16.4791L22.4633 16.2531L21.026 14.0927Z" fill="#E4761B" stroke="#E4761B" stroke-linecap="round" stroke-linejoin="round"/>
<path d="M11.2543 23.9639L14.3096 22.4723L11.6701 20.4113L11.2543 23.9639Z" fill="#E4761B" stroke="#E4761B" stroke-linecap="round" stroke-linejoin="round"/>
<path d="M17.6814 22.4723L20.7458 23.9639L20.3209 20.4113L17.6814 22.4723Z" fill="#E4761B" stroke="#E4761B" stroke-linecap="round" stroke-linejoin="round"/>
<path d="M20.7458 23.9638L17.6814 22.4723L17.9255 24.4701L17.8983 25.3107L20.7458 23.9638Z" fill="#D7C1B3" stroke="#D7C1B3" stroke-linecap="round" stroke-linejoin="round"/>
<path d="M11.2543 23.9638L14.1017 25.3107L14.0837 24.4701L14.3096 22.4723L11.2543 23.9638Z" fill="#D7C1B3" stroke="#D7C1B3" stroke-linecap="round" stroke-linejoin="round"/>
<path d="M14.1468 19.0915L11.5977 18.3412L13.3965 17.5186L14.1468 19.0915Z" fill="#233447" stroke="#233447" stroke-linecap="round" stroke-linejoin="round"/>
<path d="M17.844 19.0915L18.5943 17.5186L20.4022 18.3412L17.844 19.0915Z" fill="#233447" stroke="#233447" stroke-linecap="round" stroke-linejoin="round"/>
<path d="M11.2542 23.9638L11.6881 20.2938L8.85876 20.3751L11.2542 23.9638Z" fill="#CD6116" stroke="#CD6116" stroke-linecap="round" stroke-linejoin="round"/>
<path d="M20.3119 20.2938L20.7458 23.9638L23.1413 20.3751L20.3119 20.2938Z" fill="#CD6116" stroke="#CD6116" stroke-linecap="round" stroke-linejoin="round"/>
<path d="M22.4633 16.2531L17.3831 16.4791L17.8531 19.0915L18.6034 17.5186L20.4113 18.3412L22.4633 16.2531Z" fill="#CD6116" stroke="#CD6116" stroke-linecap="round" stroke-linejoin="round"/>
<path d="M11.5978 18.3412L13.4057 17.5186L14.1469 19.0915L14.626 16.4791L9.53674 16.2531L11.5978 18.3412Z" fill="#CD6116" stroke="#CD6116" stroke-linecap="round" stroke-linejoin="round"/>
<path d="M9.53674 16.2531L11.6701 20.4113L11.5978 18.3412L9.53674 16.2531Z" fill="#E4751F" stroke="#E4751F" stroke-linecap="round" stroke-linejoin="round"/>
<path d="M20.4113 18.3412L20.3209 20.4113L22.4633 16.2531L20.4113 18.3412Z" fill="#E4751F" stroke="#E4751F" stroke-linecap="round" stroke-linejoin="round"/>
<path d="M14.6261 16.4791L14.147 19.0915L14.7436 22.174L14.8792 18.1153L14.6261 16.4791Z" fill="#E4751F" stroke="#E4751F" stroke-linecap="round" stroke-linejoin="round"/>
<path d="M17.3831 16.4791L17.139 18.1062L17.2475 22.174L17.8532 19.0915L17.3831 16.4791Z" fill="#E4751F" stroke="#E4751F" stroke-linecap="round" stroke-linejoin="round"/>
<path d="M17.8531 19.0915L17.2474 22.174L17.6813 22.4723L20.3209 20.4113L20.4113 18.3412L17.8531 19.0915Z" fill="#F6851B" stroke="#F6851B" stroke-linecap="round" stroke-linejoin="round"/>
<path d="M11.5977 18.3412L11.67 20.4113L14.3095 22.4723L14.7434 22.174L14.1468 19.0915L11.5977 18.3412Z" fill="#F6851B" stroke="#F6851B" stroke-linecap="round" stroke-linejoin="round"/>
<path d="M17.8983 25.3107L17.9255 24.4701L17.6995 24.2712H14.2916L14.0837 24.4701L14.1017 25.3107L11.2543 23.9639L12.2486 24.7774L14.2644 26.1785H17.7266L19.7514 24.7774L20.7458 23.9639L17.8983 25.3107Z" fill="#C0AD9E" stroke="#C0AD9E" stroke-linecap="round" stroke-linejoin="round"/>
<path d="M17.6814 22.4723L17.2475 22.174H14.7435L14.3096 22.4723L14.0836 24.4701L14.2915 24.2712H17.6994L17.9254 24.4701L17.6814 22.4723Z" fill="#161616" stroke="#161616" stroke-linecap="round" stroke-linejoin="round"/>
<path d="M26.7571 11.9232L27.5255 8.23504L26.3774 4.80905L17.6814 11.2633L21.026 14.0927L25.7537 15.4757L26.8023 14.2554L26.3503 13.93L27.0735 13.2701L26.513 12.8362L27.2362 12.2848L26.7571 11.9232Z" fill="#763D16" stroke="#763D16" stroke-linecap="round" stroke-linejoin="round"/>
<path d="M4.47461 8.23504L5.24297 11.9232L4.75484 12.2848L5.478 12.8362L4.92659 13.2701L5.64975 13.93L5.19777 14.2554L6.23732 15.4757L10.965 14.0927L14.3096 11.2633L5.61359 4.80905L4.47461 8.23504Z" fill="#763D16" stroke="#763D16" stroke-linecap="round" stroke-linejoin="round"/>
<path d="M25.7537 15.4757L21.026 14.0927L22.4633 16.2531L20.3209 20.4113L23.1413 20.3752H27.3447L25.7537 15.4757Z" fill="#F6851B" stroke="#F6851B" stroke-linecap="round" stroke-linejoin="round"/>
<path d="M10.965 14.0927L6.23731 15.4757L4.66443 20.3752H8.85878L11.6701 20.4113L9.53674 16.2531L10.965 14.0927Z" fill="#F6851B" stroke="#F6851B" stroke-linecap="round" stroke-linejoin="round"/>
<path d="M17.383 16.4791L17.6813 11.2633L19.0553 7.54803H12.9536L14.3095 11.2633L14.6259 16.4791L14.7344 18.1243L14.7434 22.174H17.2474L17.2655 18.1243L17.383 16.4791Z" fill="#F6851B" stroke="#F6851B" stroke-linecap="round" stroke-linejoin="round"/>
</svg>
