<svg width="48" height="48" viewBox="0 0 48 48" fill="none" xmlns="http://www.w3.org/2000/svg">
<path d="M23 43L28 48L31 45L29 43H23Z" fill="#CEA912"/>
<path d="M23 43L28 48L31 45L29 43H23Z" fill="url(#paint0_linear)"/>
<path d="M23 43L28 48L31 45L29 43H23Z" fill="url(#paint1_linear)"/>
<path d="M23 43L28 48L31 45L29 43H23Z" fill="url(#paint2_linear)"/>
<path d="M16 38L21 43L24 40L22 38H16Z" fill="#CEA912"/>
<path d="M16 38L21 43L24 40L22 38H16Z" fill="url(#paint3_linear)"/>
<path d="M9 43L14 48L17 45L15 43H9Z" fill="#CEA912"/>
<path d="M9 43L14 48L17 45L15 43H9Z" fill="url(#paint4_linear)"/>
<path d="M9 43L14 48L17 45L15 43H9Z" fill="url(#paint5_linear)"/>
<path d="M9 43L14 48L17 45L15 43H9Z" fill="url(#paint6_linear)"/>
<path d="M5 43L0 48H14L9 43H5Z" fill="url(#paint7_linear)"/>
<path d="M19 43L14 48H28L23 43H19Z" fill="url(#paint8_linear)"/>
<path d="M12 38L7 43H21L16 38H12Z" fill="url(#paint9_linear)"/>
<path d="M33 43L28 48H42L37 43H33Z" fill="url(#paint10_linear)"/>
<path d="M26 38L21 43H35L30 38H26Z" fill="url(#paint11_linear)"/>
<path d="M19 33L14 38H28L23 33H19Z" fill="url(#paint12_linear)"/>
<path d="M43 43H37L42 48H48L43 43Z" fill="url(#paint13_linear)"/>
<path d="M36 38H30L35 43H41L36 38Z" fill="#CEA912"/>
<path d="M36 38H30L35 43H41L36 38Z" fill="url(#paint14_linear)"/>
<path d="M36 38H30L35 43H41L36 38Z" fill="url(#paint15_linear)"/>
<path d="M36 38H30L35 43H41L36 38Z" fill="url(#paint16_linear)"/>
<path d="M29 33H23L28 38H34L29 33Z" fill="#CEA912"/>
<path d="M29 33H23L28 38H34L29 33Z" fill="url(#paint17_linear)"/>
<path d="M29 33H23L28 38H34L29 33Z" fill="url(#paint18_linear)"/>
<path d="M29 33H23L28 38H34L29 33Z" fill="url(#paint19_linear)"/>
<path fill-rule="evenodd" clip-rule="evenodd" d="M23 11H25V16H30V18H25V23H23V18H18V16H23V11Z" fill="url(#paint20_linear)"/>
<path fill-rule="evenodd" clip-rule="evenodd" d="M10 12L8 12V7H3V5H8V0H10V5H15V7H10V12Z" fill="#16CA83"/>
<path d="M38 12H40V7H45V5H40V0H38V5H33V7H38V12Z" fill="url(#paint21_linear)"/>
<path fill-rule="evenodd" clip-rule="evenodd" d="M10 32H8V27H3V25H8V20H10V25H15V27H10V32Z" fill="url(#paint22_linear)"/>
<path fill-rule="evenodd" clip-rule="evenodd" d="M40 32L38 32V27H33V25H38V20H40V25H45V27H40V32Z" fill="url(#paint23_linear)"/>
<defs>
<linearGradient id="paint0_linear" x1="25.5455" y1="43" x2="30.3022" y2="46.4595" gradientUnits="userSpaceOnUse">
<stop stop-color="#EBC21E"/>
<stop offset="1" stop-color="#A98A0F"/>
</linearGradient>
<linearGradient id="paint1_linear" x1="25.5455" y1="43" x2="30.3022" y2="46.4595" gradientUnits="userSpaceOnUse">
<stop stop-color="#A98A0F"/>
<stop offset="1" stop-color="#715C0A"/>
</linearGradient>
<linearGradient id="paint2_linear" x1="25.5455" y1="43" x2="30.3022" y2="46.4595" gradientUnits="userSpaceOnUse">
<stop stop-color="#CEA912"/>
<stop offset="1" stop-color="#A98A0F"/>
</linearGradient>
<linearGradient id="paint3_linear" x1="18.5455" y1="38" x2="23.3022" y2="41.4595" gradientUnits="userSpaceOnUse">
<stop stop-color="#CEA912"/>
<stop offset="1" stop-color="#A98A0F"/>
</linearGradient>
<linearGradient id="paint4_linear" x1="11.5455" y1="43" x2="16.3022" y2="46.4595" gradientUnits="userSpaceOnUse">
<stop stop-color="#EBC21E"/>
<stop offset="1" stop-color="#A98A0F"/>
</linearGradient>
<linearGradient id="paint5_linear" x1="11.5455" y1="43" x2="16.3022" y2="46.4595" gradientUnits="userSpaceOnUse">
<stop stop-color="#A98A0F"/>
<stop offset="1" stop-color="#715C0A"/>
</linearGradient>
<linearGradient id="paint6_linear" x1="11.5455" y1="43" x2="16.3022" y2="46.4595" gradientUnits="userSpaceOnUse">
<stop stop-color="#CEA912"/>
<stop offset="1" stop-color="#A98A0F"/>
</linearGradient>
<linearGradient id="paint7_linear" x1="7" y1="43" x2="7" y2="48" gradientUnits="userSpaceOnUse">
<stop stop-color="#F5E18E"/>
<stop offset="1" stop-color="#EFCC43"/>
</linearGradient>
<linearGradient id="paint8_linear" x1="21" y1="43" x2="21" y2="48" gradientUnits="userSpaceOnUse">
<stop stop-color="#F5E18E"/>
<stop offset="1" stop-color="#EFCC43"/>
</linearGradient>
<linearGradient id="paint9_linear" x1="14" y1="38" x2="14" y2="43" gradientUnits="userSpaceOnUse">
<stop stop-color="#F5E18E"/>
<stop offset="1" stop-color="#EFCC43"/>
</linearGradient>
<linearGradient id="paint10_linear" x1="35" y1="43" x2="35" y2="48" gradientUnits="userSpaceOnUse">
<stop stop-color="#F5E18E"/>
<stop offset="1" stop-color="#EFCC43"/>
</linearGradient>
<linearGradient id="paint11_linear" x1="28" y1="38" x2="28" y2="43" gradientUnits="userSpaceOnUse">
<stop stop-color="#F5E18E"/>
<stop offset="1" stop-color="#EFCC43"/>
</linearGradient>
<linearGradient id="paint12_linear" x1="21" y1="33" x2="21" y2="38" gradientUnits="userSpaceOnUse">
<stop stop-color="#F5E18E"/>
<stop offset="1" stop-color="#EFCC43"/>
</linearGradient>
<linearGradient id="paint13_linear" x1="40.5" y1="43" x2="45.5" y2="48" gradientUnits="userSpaceOnUse">
<stop stop-color="#CEA912"/>
<stop offset="1" stop-color="#A98A0F"/>
</linearGradient>
<linearGradient id="paint14_linear" x1="33.5" y1="38" x2="38.5" y2="43" gradientUnits="userSpaceOnUse">
<stop stop-color="#EBC21E"/>
<stop offset="1" stop-color="#A98A0F"/>
</linearGradient>
<linearGradient id="paint15_linear" x1="33.5" y1="38" x2="38.5" y2="43" gradientUnits="userSpaceOnUse">
<stop stop-color="#A98A0F"/>
<stop offset="1" stop-color="#715C0A"/>
</linearGradient>
<linearGradient id="paint16_linear" x1="33.5" y1="38" x2="38.5" y2="43" gradientUnits="userSpaceOnUse">
<stop stop-color="#CEA912"/>
<stop offset="1" stop-color="#A98A0F"/>
</linearGradient>
<linearGradient id="paint17_linear" x1="26.5" y1="33" x2="31.5" y2="38" gradientUnits="userSpaceOnUse">
<stop stop-color="#EBC21E"/>
<stop offset="1" stop-color="#A98A0F"/>
</linearGradient>
<linearGradient id="paint18_linear" x1="26.5" y1="33" x2="31.5" y2="38" gradientUnits="userSpaceOnUse">
<stop stop-color="#A98A0F"/>
<stop offset="1" stop-color="#715C0A"/>
</linearGradient>
<linearGradient id="paint19_linear" x1="26.5" y1="33" x2="31.5" y2="38" gradientUnits="userSpaceOnUse">
<stop stop-color="#CEA912"/>
<stop offset="1" stop-color="#A98A0F"/>
</linearGradient>
<linearGradient id="paint20_linear" x1="24" y1="11.5" x2="24" y2="22.5" gradientUnits="userSpaceOnUse">
<stop stop-color="#23E698"/>
<stop offset="1" stop-color="#16CA83"/>
</linearGradient>
<linearGradient id="paint21_linear" x1="39" y1="2" x2="39" y2="10" gradientUnits="userSpaceOnUse">
<stop stop-color="#23E698"/>
<stop offset="1" stop-color="#16CA83"/>
</linearGradient>
<linearGradient id="paint22_linear" x1="9" y1="30" x2="9" y2="22" gradientUnits="userSpaceOnUse">
<stop stop-color="#23E698"/>
<stop offset="1" stop-color="#16CA83"/>
</linearGradient>
<linearGradient id="paint23_linear" x1="39" y1="30" x2="39" y2="22" gradientUnits="userSpaceOnUse">
<stop stop-color="#23E698"/>
<stop offset="1" stop-color="#16CA83"/>
</linearGradient>
</defs>
</svg>
