<svg width="72" height="72" viewBox="0 0 72 72" fill="none" xmlns="http://www.w3.org/2000/svg">
<path fill-rule="evenodd" clip-rule="evenodd" d="M9 63.5C9 63.2239 9.3078 63 9.6875 63H11.0281C11.4078 63 11.7156 63.2239 11.7156 63.5C11.7156 63.7761 11.4078 64 11.0281 64H9.6875C9.3078 64 9 63.7761 9 63.5ZM13.0219 63.5C13.0219 63.2239 13.3297 63 13.7094 63H16.3906C16.7703 63 17.0781 63.2239 17.0781 63.5C17.0781 63.7761 16.7703 64 16.3906 64H13.7094C13.3297 64 13.0219 63.7761 13.0219 63.5ZM18.3844 63.5C18.3844 63.2239 18.6922 63 19.0719 63H21.7531C22.1328 63 22.4406 63.2239 22.4406 63.5C22.4406 63.7761 22.1328 64 21.7531 64H19.0719C18.6922 64 18.3844 63.7761 18.3844 63.5ZM23.7469 63.5C23.7469 63.2239 24.0547 63 24.4344 63H27.1156C27.4953 63 27.8031 63.2239 27.8031 63.5C27.8031 63.7761 27.4953 64 27.1156 64H24.4344C24.0547 64 23.7469 63.7761 23.7469 63.5ZM29.1094 63.5C29.1094 63.2239 29.4172 63 29.7969 63H32.4781C32.8578 63 33.1656 63.2239 33.1656 63.5C33.1656 63.7761 32.8578 64 32.4781 64H29.7969C29.4172 64 29.1094 63.7761 29.1094 63.5ZM34.4719 63.5C34.4719 63.2239 34.7797 63 35.1594 63H37.8406C38.2203 63 38.5281 63.2239 38.5281 63.5C38.5281 63.7761 38.2203 64 37.8406 64H35.1594C34.7797 64 34.4719 63.7761 34.4719 63.5ZM39.8344 63.5C39.8344 63.2239 40.1422 63 40.5219 63H43.2031C43.5828 63 43.8906 63.2239 43.8906 63.5C43.8906 63.7761 43.5828 64 43.2031 64H40.5219C40.1422 64 39.8344 63.7761 39.8344 63.5ZM45.1969 63.5C45.1969 63.2239 45.5047 63 45.8844 63H48.5656C48.9453 63 49.2531 63.2239 49.2531 63.5C49.2531 63.7761 48.9453 64 48.5656 64H45.8844C45.5047 64 45.1969 63.7761 45.1969 63.5ZM50.5594 63.5C50.5594 63.2239 50.8672 63 51.2469 63H53.9281C54.3078 63 54.6156 63.2239 54.6156 63.5C54.6156 63.7761 54.3078 64 53.9281 64H51.2469C50.8672 64 50.5594 63.7761 50.5594 63.5ZM55.9219 63.5C55.9219 63.2239 56.2297 63 56.6094 63H59.2906C59.6703 63 59.9781 63.2239 59.9781 63.5C59.9781 63.7761 59.6703 64 59.2906 64H56.6094C56.2297 64 55.9219 63.7761 55.9219 63.5ZM61.2844 63.5C61.2844 63.2239 61.5922 63 61.9719 63H63.3125C63.6922 63 64 63.2239 64 63.5C64 63.7761 63.6922 64 63.3125 64H61.9719C61.5922 64 61.2844 63.7761 61.2844 63.5Z" fill="#707070"/>
<path d="M37.1584 36.0001H35.5144L47.5144 9.25006H62.1893L60.4696 7.53039L61.5303 6.46973L65.0606 10.0001L61.5303 13.5304L60.4696 12.4697L62.1893 10.7501H48.4855L37.1584 36.0001Z" fill="#F47B7B"/>
<path d="M37.6071 35L24.4856 64.25H8V62.75H23.5144L35.963 35H37.6071Z" fill="#23E798"/>
<path fill-rule="evenodd" clip-rule="evenodd" d="M8 35.5C8 35.2239 8.3134 35 8.7 35H10.065C10.4516 35 10.765 35.2239 10.765 35.5C10.765 35.7761 10.4516 36 10.065 36H8.7C8.3134 36 8 35.7761 8 35.5ZM12.095 35.5C12.095 35.2239 12.4084 35 12.795 35H15.525C15.9116 35 16.225 35.2239 16.225 35.5C16.225 35.7761 15.9116 36 15.525 36H12.795C12.4084 36 12.095 35.7761 12.095 35.5ZM17.555 35.5C17.555 35.2239 17.8684 35 18.255 35H20.985C21.3716 35 21.685 35.2239 21.685 35.5C21.685 35.7761 21.3716 36 20.985 36H18.255C17.8684 36 17.555 35.7761 17.555 35.5ZM23.015 35.5C23.015 35.2239 23.3284 35 23.715 35H26.445C26.8316 35 27.145 35.2239 27.145 35.5C27.145 35.7761 26.8316 36 26.445 36H23.715C23.3284 36 23.015 35.7761 23.015 35.5ZM28.475 35.5C28.475 35.2239 28.7884 35 29.175 35H31.905C32.2916 35 32.605 35.2239 32.605 35.5C32.605 35.7761 32.2916 36 31.905 36H29.175C28.7884 36 28.475 35.7761 28.475 35.5ZM33.935 35.5C33.935 35.2239 34.2484 35 34.635 35H37.365C37.7516 35 38.065 35.2239 38.065 35.5C38.065 35.7761 37.7516 36 37.365 36H34.635C34.2484 36 33.935 35.7761 33.935 35.5ZM39.395 35.5C39.395 35.2239 39.7084 35 40.095 35H42.825C43.2116 35 43.525 35.2239 43.525 35.5C43.525 35.7761 43.2116 36 42.825 36H40.095C39.7084 36 39.395 35.7761 39.395 35.5ZM44.855 35.5C44.855 35.2239 45.1684 35 45.555 35H48.285C48.6716 35 48.985 35.2239 48.985 35.5C48.985 35.7761 48.6716 36 48.285 36H45.555C45.1684 36 44.855 35.7761 44.855 35.5ZM50.315 35.5C50.315 35.2239 50.6284 35 51.015 35H53.745C54.1316 35 54.445 35.2239 54.445 35.5C54.445 35.7761 54.1316 36 53.745 36H51.015C50.6284 36 50.315 35.7761 50.315 35.5ZM55.775 35.5C55.775 35.2239 56.0884 35 56.475 35H59.205C59.5916 35 59.905 35.2239 59.905 35.5C59.905 35.7761 59.5916 36 59.205 36H56.475C56.0884 36 55.775 35.7761 55.775 35.5ZM61.235 35.5C61.235 35.2239 61.5484 35 61.935 35H63.3C63.6866 35 64 35.2239 64 35.5C64 35.7761 63.6866 36 63.3 36H61.935C61.5484 36 61.235 35.7761 61.235 35.5Z" fill="#16CA83"/>
</svg>
