<svg width="48" height="48" viewBox="0 0 48 48" fill="none" xmlns="http://www.w3.org/2000/svg">
<path d="M23.0627 2H25.5V9H23.0627V2Z" fill="#715C0A"/>
<path d="M39.2766 5.01938L41 6.79184L36.2234 12L34.5 10.2275L39.2766 5.01938Z" fill="#715C0A"/>
<path d="M7 6.79184L8.72345 5.01938L13.7876 10.2275L12.0641 12L7 6.79184Z" fill="#715C0A"/>
<path d="M23.0627 46H25.5V39H23.0627V46Z" fill="#715C0A"/>
<path d="M39.2766 42.9806L41 41.2082L36.2234 36L34.5 37.7725L39.2766 42.9806Z" fill="#715C0A"/>
<path d="M7 41.2082L8.72345 42.9806L13.7876 37.7725L12.0641 36L7 41.2082Z" fill="#715C0A"/>
<path d="M45.7064 23.2065C41.7073 18.4965 33.2406 13 24 13C14.7263 13 6.25923 18.5339 2.29363 23.2065C1.90212 23.6678 1.90212 24.3321 2.29363 24.7934C6.38752 29.6173 14.8741 35 24 35C33.4502 35 41.8809 29.299 45.7064 24.7935C46.0979 24.3321 46.0979 23.6678 45.7064 23.2065ZM32.7908 24C32.7908 28.6857 28.8472 32.498 23.9999 32.498C19.1525 32.498 15.2091 28.6855 15.2091 24C15.2091 19.3142 19.1526 15.5019 23.9999 15.5019C28.8477 15.502 32.7908 19.3147 32.7908 24ZM5.04225 24.0003C6.49882 22.5369 10.0109 19.3786 14.941 17.3515C11.8471 21.2815 11.8458 26.7151 14.9396 30.6466C11.191 29.1107 7.70882 26.6843 5.04225 24.0003ZM33.059 30.6484C36.153 26.7183 36.1541 21.2848 33.0604 17.3533C36.8088 18.8892 40.2911 21.3157 42.9578 23.9995C41.5012 25.4631 37.9891 28.6213 33.059 30.6484Z" fill="#715C0A"/>
</svg>
