<svg width="17" height="24" viewBox="0 0 17 24" fill="none" xmlns="http://www.w3.org/2000/svg">
<path d="M8.99993 13C10.1045 13 10.9999 12.1046 10.9999 11C10.9999 9.89543 10.1045 9 8.99993 9C7.89536 9 6.99993 9.89543 6.99993 11C6.99993 11.3446 7.08707 11.6688 7.24053 11.9519L2.82843 16.364H2.12132L0 18.4853H1.41421L1.41421 19.8995L3.53553 17.7782L3.53553 17.0711L7.92179 12.6848C8.2329 12.8843 8.60291 13 8.99993 13Z" fill="#CBCDCC"/>
<path d="M9 18C12.866 18 16 14.866 16 11C16 7.13401 12.866 4 9 4C5.13401 4 2 7.13401 2 11C2 11.9578 2.19237 12.8707 2.54058 13.7021L1.78416 14.4585C1.28156 13.4118 1 12.2388 1 11C1 6.58172 4.58172 3 9 3C13.4183 3 17 6.58172 17 11C17 15.4183 13.4183 19 9 19C7.64367 19 6.36617 18.6625 5.24693 18.0668L5.99145 17.3223C6.90287 17.7568 7.92303 18 9 18Z" fill="#CBCDCC"/>
<path d="M7.53255 15.7812C7.99658 15.9234 8.48935 16 9 16C11.7614 16 14 13.7614 14 11C14 8.23858 11.7614 6 9 6C6.23858 6 4 8.23858 4 11C4 11.3841 4.04331 11.7581 4.12532 12.1174L5.00684 11.2358C5.0023 11.1578 5 11.0792 5 11C5 8.79086 6.79086 7 9 7C11.2091 7 13 8.79086 13 11C13 13.2091 11.2091 15 9 15C8.78356 15 8.57114 14.9828 8.36402 14.9497L7.53255 15.7812Z" fill="#CBCDCC"/>
</svg>
