<svg width="25" height="28" viewBox="0 0 25 28" fill="none" xmlns="http://www.w3.org/2000/svg">
<path d="M24.1408 15.9029C22.5379 22.3315 16.0261 26.2438 9.59602 24.6407C3.16859 23.038 -0.74421 16.5266 0.859461 10.0984C2.46163 3.66907 8.97346 -0.243639 15.4016 1.35909C21.8313 2.96183 25.7437 9.47401 24.1408 15.9029V15.9029Z" fill="#DB8013"/>
<path d="M17.7914 11.2905C18.0303 9.69376 16.8145 8.83539 15.1519 8.26278L15.6912 6.09979L14.3744 5.77167L13.8494 7.87765C13.5032 7.7914 13.1477 7.71003 12.7944 7.62941L13.3232 5.50955L12.0072 5.18143L11.4675 7.34365C11.181 7.2784 10.8997 7.21391 10.6267 7.14604L10.6282 7.13929L8.81223 6.68591L8.46195 8.09215C8.46195 8.09215 9.43892 8.31602 9.4183 8.32989C9.9516 8.46302 10.048 8.81589 10.0319 9.09563L9.41754 11.5597C9.45429 11.5691 9.50193 11.5826 9.55444 11.6036C9.51056 11.5927 9.46368 11.5807 9.4153 11.5691L8.5542 15.021C8.48894 15.183 8.32356 15.4259 7.95077 15.3337C7.96389 15.3528 6.99366 15.0948 6.99366 15.0948L6.33997 16.6019L8.05352 17.0291C8.37231 17.1089 8.68471 17.1926 8.99224 17.2713L8.44732 19.459L9.76258 19.7872L10.3023 17.6227C10.6616 17.7202 11.0103 17.8102 11.3516 17.8949L10.8138 20.0493L12.1306 20.3774L12.6755 18.1938C14.9209 18.6187 16.6093 18.4473 17.32 16.4167C17.8927 14.7817 17.2915 13.8386 16.1101 13.2236C16.9705 13.0252 17.6185 12.4594 17.7914 11.2905V11.2905ZM14.7829 15.5088C14.3759 17.1438 11.6228 16.2599 10.7302 16.0383L11.4533 13.14C12.3459 13.3627 15.2082 13.8037 14.7829 15.5088ZM15.1902 11.2669C14.8189 12.7541 12.5274 11.9985 11.784 11.8132L12.4396 9.18452C13.1829 9.36977 15.5768 9.71551 15.1902 11.2669Z" fill="#F5F5F5"/>
</svg>
