<svg width="28" height="20" viewBox="0 0 28 20" fill="none" xmlns="http://www.w3.org/2000/svg">
<g clip-path="url(#clip0_876_1535)">
<rect y="3.57141" width="27.8571" height="11.4286" rx="4" fill="#23E798"/>
<path d="M4.17847 12.1429V6.42859H7.97163V7.55051H5.4746V8.72686H7.7066V9.85716H5.4746V12.1429H4.17847Z" fill="#0A5C3B"/>
<path d="M10.2078 10.1335V12.1429H8.94062V6.42859H10.7337C11.1975 6.42859 11.566 6.46068 11.8393 6.52487C12.8166 6.75093 13.3052 7.33841 13.3052 8.2873C13.3052 9.06595 12.9326 9.61157 12.1872 9.92414L13.7483 12.1429H12.212L10.9366 10.1125C10.7047 10.1265 10.5294 10.1335 10.4107 10.1335H10.2078ZM10.2036 9.07851H10.8413C11.2306 9.07851 11.5205 9.02409 11.711 8.91525C11.9152 8.80082 12.0174 8.59151 12.0174 8.2873C12.0174 8.0138 11.9263 7.81844 11.7441 7.70122C11.5619 7.58121 11.261 7.52121 10.8413 7.52121H10.2036V9.07851Z" fill="#0A5C3B"/>
<path d="M14.3902 12.1429V6.42859H18.349V7.5547H15.6532V8.63476H18.0094V9.76088H15.6532V11.0168H18.4691V12.1429H14.3902Z" fill="#0A5C3B"/>
<path d="M19.5996 12.1429V6.42859H23.5584V7.5547H20.8626V8.63476H23.2188V9.76088H20.8626V11.0168H23.6785V12.1429H19.5996Z" fill="#0A5C3B"/>
</g>
<defs>
<clipPath id="clip0_876_1535">
<rect width="27.8571" height="20" fill="white"/>
</clipPath>
</defs>
</svg>
