<svg width="92" height="12" viewBox="0 0 92 12" fill="none" xmlns="http://www.w3.org/2000/svg">
<rect width="20" height="12" rx="2" fill="#12A56A"/>
<g filter="url(#filter0_i_1750_2754)">
<rect width="20" height="12" rx="1" fill="#0C6E48"/>
</g>
<path d="M9.46604 10V9.12009C8.93581 9.03629 8.54111 8.91059 8.28195 8.74299C7.90661 8.49757 7.64596 8.11897 7.5 7.60718L8.6975 6.98765C8.78984 7.22709 8.8807 7.40816 8.97006 7.53086C9.0773 7.68051 9.21135 7.78825 9.37221 7.8541C9.53604 7.91695 9.75201 7.94837 10.0201 7.94837C10.7499 7.94837 11.1148 7.73438 11.1148 7.3064C11.1148 7.08792 10.9957 6.91882 10.7574 6.7991C10.6144 6.72727 10.2659 6.60307 9.7118 6.42649C9.14879 6.24991 8.7109 6.02694 8.39812 5.75758C8.03172 5.44332 7.84853 5.04227 7.84853 4.55443C7.84853 3.93191 8.12407 3.45754 8.67516 3.13131C8.89261 3.00262 9.15624 2.91134 9.46604 2.85746V2H10.7976V2.89787C11.4083 3.06846 11.8834 3.4306 12.223 3.98429L11.1416 4.64422C11.0106 4.40479 10.8572 4.23419 10.6814 4.13244C10.5057 4.03068 10.2733 3.9798 9.98436 3.9798C9.74307 3.9798 9.55243 4.02768 9.41242 4.12346C9.27539 4.21923 9.20688 4.34792 9.20688 4.50954C9.20688 4.71306 9.30369 4.86719 9.49732 4.97194C9.60456 5.0318 9.91585 5.14104 10.4312 5.29966C11.0478 5.49121 11.5334 5.71568 11.8878 5.97306C12.2959 6.26337 12.5 6.69136 12.5 7.25701C12.5 7.57127 12.436 7.86158 12.3079 8.12795C12.1798 8.39132 12.004 8.59933 11.7806 8.75196C11.5512 8.9046 11.2236 9.01833 10.7976 9.09315V10H9.46604Z" fill="url(#paint0_radial_1750_2754)"/>
<path d="M2 3C2 2.44772 2.44772 2 3 2H5V3H3.5C3.22386 3 3 3.22386 3 3.5V5H2V3Z" fill="url(#paint1_radial_1750_2754)"/>
<path d="M17 2C17.5523 2 18 2.44772 18 3V5L17 5V3.5C17 3.22386 16.7761 3 16.5 3L15 3V2L17 2Z" fill="url(#paint2_radial_1750_2754)"/>
<path d="M3 10C2.44772 10 2 9.55228 2 9L2 7H3V8.5C3 8.77614 3.22386 9 3.5 9H5V10H3Z" fill="url(#paint3_radial_1750_2754)"/>
<path d="M18 9C18 9.55228 17.5523 10 17 10H15V9L16.5 9C16.7761 9 17 8.77614 17 8.5V7H18V9Z" fill="url(#paint4_radial_1750_2754)"/>
<rect x="24" width="20" height="12" rx="2" fill="#12A56A"/>
<g filter="url(#filter1_i_1750_2754)">
<rect x="24" width="20" height="12" rx="1" fill="#0C6E48"/>
</g>
<path d="M33.466 10V9.12009C32.9358 9.03629 32.5411 8.91059 32.2819 8.74299C31.9066 8.49757 31.646 8.11897 31.5 7.60718L32.6975 6.98765C32.7898 7.22709 32.8807 7.40816 32.9701 7.53086C33.0773 7.68051 33.2113 7.78825 33.3722 7.8541C33.536 7.91695 33.752 7.94837 34.0201 7.94837C34.7499 7.94837 35.1148 7.73438 35.1148 7.3064C35.1148 7.08792 34.9957 6.91882 34.7574 6.7991C34.6144 6.72727 34.2659 6.60307 33.7118 6.42649C33.1488 6.24991 32.7109 6.02694 32.3981 5.75758C32.0317 5.44332 31.8485 5.04227 31.8485 4.55443C31.8485 3.93191 32.1241 3.45754 32.6752 3.13131C32.8926 3.00262 33.1562 2.91134 33.466 2.85746V2H34.7976V2.89787C35.4083 3.06846 35.8834 3.4306 36.223 3.98429L35.1416 4.64422C35.0106 4.40479 34.8572 4.23419 34.6814 4.13244C34.5057 4.03068 34.2733 3.9798 33.9844 3.9798C33.7431 3.9798 33.5524 4.02768 33.4124 4.12346C33.2754 4.21923 33.2069 4.34792 33.2069 4.50954C33.2069 4.71306 33.3037 4.86719 33.4973 4.97194C33.6046 5.0318 33.9158 5.14104 34.4312 5.29966C35.0478 5.49121 35.5334 5.71568 35.8878 5.97306C36.2959 6.26337 36.5 6.69136 36.5 7.25701C36.5 7.57127 36.436 7.86158 36.3079 8.12795C36.1798 8.39132 36.004 8.59933 35.7806 8.75196C35.5512 8.9046 35.2236 9.01833 34.7976 9.09315V10H33.466Z" fill="url(#paint5_radial_1750_2754)"/>
<path d="M26 3C26 2.44772 26.4477 2 27 2H29V3H27.5C27.2239 3 27 3.22386 27 3.5V5H26V3Z" fill="url(#paint6_radial_1750_2754)"/>
<path d="M41 2C41.5523 2 42 2.44772 42 3V5L41 5V3.5C41 3.22386 40.7761 3 40.5 3L39 3V2L41 2Z" fill="url(#paint7_radial_1750_2754)"/>
<path d="M27 10C26.4477 10 26 9.55228 26 9L26 7H27V8.5C27 8.77614 27.2239 9 27.5 9H29V10H27Z" fill="url(#paint8_radial_1750_2754)"/>
<path d="M42 9C42 9.55228 41.5523 10 41 10H39V9L40.5 9C40.7761 9 41 8.77614 41 8.5V7H42V9Z" fill="url(#paint9_radial_1750_2754)"/>
<g filter="url(#filter2_i_1750_2754)">
<rect x="48" width="20" height="12" rx="1" fill="#292929"/>
</g>
<path d="M57.466 10V9.12009C56.9358 9.03629 56.5411 8.91059 56.2819 8.74299C55.9066 8.49757 55.646 8.11897 55.5 7.60718L56.6975 6.98765C56.7898 7.22709 56.8807 7.40816 56.9701 7.53086C57.0773 7.68051 57.2113 7.78825 57.3722 7.8541C57.536 7.91695 57.752 7.94837 58.0201 7.94837C58.7499 7.94837 59.1148 7.73438 59.1148 7.3064C59.1148 7.08792 58.9957 6.91882 58.7574 6.7991C58.6144 6.72727 58.2659 6.60307 57.7118 6.42649C57.1488 6.24991 56.7109 6.02694 56.3981 5.75758C56.0317 5.44332 55.8485 5.04227 55.8485 4.55443C55.8485 3.93191 56.1241 3.45754 56.6752 3.13131C56.8926 3.00262 57.1562 2.91134 57.466 2.85746V2H58.7976V2.89787C59.4083 3.06846 59.8834 3.4306 60.223 3.98429L59.1416 4.64422C59.0106 4.40479 58.8572 4.23419 58.6814 4.13244C58.5057 4.03068 58.2733 3.9798 57.9844 3.9798C57.7431 3.9798 57.5524 4.02768 57.4124 4.12346C57.2754 4.21923 57.2069 4.34792 57.2069 4.50954C57.2069 4.71306 57.3037 4.86719 57.4973 4.97194C57.6046 5.0318 57.9158 5.14104 58.4312 5.29966C59.0478 5.49121 59.5334 5.71568 59.8878 5.97306C60.2959 6.26337 60.5 6.69136 60.5 7.25701C60.5 7.57127 60.436 7.86158 60.3079 8.12795C60.1798 8.39132 60.004 8.59933 59.7806 8.75196C59.5512 8.9046 59.2236 9.01833 58.7976 9.09315V10H57.466Z" fill="url(#paint10_radial_1750_2754)"/>
<path d="M50 3C50 2.44772 50.4477 2 51 2H53V3H51.5C51.2239 3 51 3.22386 51 3.5V5H50V3Z" fill="url(#paint11_radial_1750_2754)"/>
<path d="M65 2C65.5523 2 66 2.44772 66 3V5L65 5V3.5C65 3.22386 64.7761 3 64.5 3L63 3V2L65 2Z" fill="url(#paint12_radial_1750_2754)"/>
<path d="M51 10C50.4477 10 50 9.55228 50 9L50 7H51V8.5C51 8.77614 51.2239 9 51.5 9H53V10H51Z" fill="url(#paint13_radial_1750_2754)"/>
<path d="M66 9C66 9.55228 65.5523 10 65 10H63V9L64.5 9C64.7761 9 65 8.77614 65 8.5V7H66V9Z" fill="url(#paint14_radial_1750_2754)"/>
<g filter="url(#filter3_i_1750_2754)">
<rect x="72" width="20" height="12" rx="1" fill="#292929"/>
</g>
<path d="M81.466 10V9.12009C80.9358 9.03629 80.5411 8.91059 80.2819 8.74299C79.9066 8.49757 79.646 8.11897 79.5 7.60718L80.6975 6.98765C80.7898 7.22709 80.8807 7.40816 80.9701 7.53086C81.0773 7.68051 81.2113 7.78825 81.3722 7.8541C81.536 7.91695 81.752 7.94837 82.0201 7.94837C82.7499 7.94837 83.1148 7.73438 83.1148 7.3064C83.1148 7.08792 82.9957 6.91882 82.7574 6.7991C82.6144 6.72727 82.2659 6.60307 81.7118 6.42649C81.1488 6.24991 80.7109 6.02694 80.3981 5.75758C80.0317 5.44332 79.8485 5.04227 79.8485 4.55443C79.8485 3.93191 80.1241 3.45754 80.6752 3.13131C80.8926 3.00262 81.1562 2.91134 81.466 2.85746V2H82.7976V2.89787C83.4083 3.06846 83.8834 3.4306 84.223 3.98429L83.1416 4.64422C83.0106 4.40479 82.8572 4.23419 82.6814 4.13244C82.5057 4.03068 82.2733 3.9798 81.9844 3.9798C81.7431 3.9798 81.5524 4.02768 81.4124 4.12346C81.2754 4.21923 81.2069 4.34792 81.2069 4.50954C81.2069 4.71306 81.3037 4.86719 81.4973 4.97194C81.6046 5.0318 81.9158 5.14104 82.4312 5.29966C83.0478 5.49121 83.5334 5.71568 83.8878 5.97306C84.2959 6.26337 84.5 6.69136 84.5 7.25701C84.5 7.57127 84.436 7.86158 84.3079 8.12795C84.1798 8.39132 84.004 8.59933 83.7806 8.75196C83.5512 8.9046 83.2236 9.01833 82.7976 9.09315V10H81.466Z" fill="url(#paint15_radial_1750_2754)"/>
<path d="M74 3C74 2.44772 74.4477 2 75 2H77V3H75.5C75.2239 3 75 3.22386 75 3.5V5H74V3Z" fill="url(#paint16_radial_1750_2754)"/>
<path d="M89 2C89.5523 2 90 2.44772 90 3V5L89 5V3.5C89 3.22386 88.7761 3 88.5 3L87 3V2L89 2Z" fill="url(#paint17_radial_1750_2754)"/>
<path d="M75 10C74.4477 10 74 9.55228 74 9L74 7H75V8.5C75 8.77614 75.2239 9 75.5 9H77V10H75Z" fill="url(#paint18_radial_1750_2754)"/>
<path d="M90 9C90 9.55228 89.5523 10 89 10H87V9L88.5 9C88.7761 9 89 8.77614 89 8.5V7H90V9Z" fill="url(#paint19_radial_1750_2754)"/>
<defs>
<filter id="filter0_i_1750_2754" x="0" y="0" width="20" height="12" filterUnits="userSpaceOnUse" color-interpolation-filters="sRGB">
<feFlood flood-opacity="0" result="BackgroundImageFix"/>
<feBlend mode="normal" in="SourceGraphic" in2="BackgroundImageFix" result="shape"/>
<feColorMatrix in="SourceAlpha" type="matrix" values="0 0 0 0 0 0 0 0 0 0 0 0 0 0 0 0 0 0 127 0" result="hardAlpha"/>
<feOffset/>
<feGaussianBlur stdDeviation="1"/>
<feComposite in2="hardAlpha" operator="arithmetic" k2="-1" k3="1"/>
<feColorMatrix type="matrix" values="0 0 0 0 0.088 0 0 0 0 0.792 0 0 0 0 0.513333 0 0 0 0.8 0"/>
<feBlend mode="normal" in2="shape" result="effect1_innerShadow_1750_2754"/>
</filter>
<filter id="filter1_i_1750_2754" x="24" y="0" width="20" height="12" filterUnits="userSpaceOnUse" color-interpolation-filters="sRGB">
<feFlood flood-opacity="0" result="BackgroundImageFix"/>
<feBlend mode="normal" in="SourceGraphic" in2="BackgroundImageFix" result="shape"/>
<feColorMatrix in="SourceAlpha" type="matrix" values="0 0 0 0 0 0 0 0 0 0 0 0 0 0 0 0 0 0 127 0" result="hardAlpha"/>
<feOffset/>
<feGaussianBlur stdDeviation="1"/>
<feComposite in2="hardAlpha" operator="arithmetic" k2="-1" k3="1"/>
<feColorMatrix type="matrix" values="0 0 0 0 0.088 0 0 0 0 0.792 0 0 0 0 0.513333 0 0 0 0.8 0"/>
<feBlend mode="normal" in2="shape" result="effect1_innerShadow_1750_2754"/>
</filter>
<filter id="filter2_i_1750_2754" x="48" y="0" width="20" height="12" filterUnits="userSpaceOnUse" color-interpolation-filters="sRGB">
<feFlood flood-opacity="0" result="BackgroundImageFix"/>
<feBlend mode="normal" in="SourceGraphic" in2="BackgroundImageFix" result="shape"/>
<feColorMatrix in="SourceAlpha" type="matrix" values="0 0 0 0 0 0 0 0 0 0 0 0 0 0 0 0 0 0 127 0" result="hardAlpha"/>
<feOffset/>
<feGaussianBlur stdDeviation="0.5"/>
<feComposite in2="hardAlpha" operator="arithmetic" k2="-1" k3="1"/>
<feColorMatrix type="matrix" values="0 0 0 0 0.4 0 0 0 0 0.4 0 0 0 0 0.4 0 0 0 1 0"/>
<feBlend mode="normal" in2="shape" result="effect1_innerShadow_1750_2754"/>
</filter>
<filter id="filter3_i_1750_2754" x="72" y="0" width="20" height="12" filterUnits="userSpaceOnUse" color-interpolation-filters="sRGB">
<feFlood flood-opacity="0" result="BackgroundImageFix"/>
<feBlend mode="normal" in="SourceGraphic" in2="BackgroundImageFix" result="shape"/>
<feColorMatrix in="SourceAlpha" type="matrix" values="0 0 0 0 0 0 0 0 0 0 0 0 0 0 0 0 0 0 127 0" result="hardAlpha"/>
<feOffset/>
<feGaussianBlur stdDeviation="0.5"/>
<feComposite in2="hardAlpha" operator="arithmetic" k2="-1" k3="1"/>
<feColorMatrix type="matrix" values="0 0 0 0 0.4 0 0 0 0 0.4 0 0 0 0 0.4 0 0 0 1 0"/>
<feBlend mode="normal" in2="shape" result="effect1_innerShadow_1750_2754"/>
</filter>
<radialGradient id="paint0_radial_1750_2754" cx="0" cy="0" r="1" gradientUnits="userSpaceOnUse" gradientTransform="translate(10 5.5) rotate(90) scale(6.5 52.5941)">
<stop stop-color="#16CA83"/>
<stop offset="1" stop-color="#12A66C" stop-opacity="0.4"/>
</radialGradient>
<radialGradient id="paint1_radial_1750_2754" cx="0" cy="0" r="1" gradientUnits="userSpaceOnUse" gradientTransform="translate(10 5.5) rotate(90) scale(6.5 52.5941)">
<stop stop-color="#16CA83"/>
<stop offset="1" stop-color="#12A66C" stop-opacity="0.4"/>
</radialGradient>
<radialGradient id="paint2_radial_1750_2754" cx="0" cy="0" r="1" gradientUnits="userSpaceOnUse" gradientTransform="translate(10 5.5) rotate(90) scale(6.5 52.5941)">
<stop stop-color="#16CA83"/>
<stop offset="1" stop-color="#12A66C" stop-opacity="0.4"/>
</radialGradient>
<radialGradient id="paint3_radial_1750_2754" cx="0" cy="0" r="1" gradientUnits="userSpaceOnUse" gradientTransform="translate(10 5.5) rotate(90) scale(6.5 52.5941)">
<stop stop-color="#16CA83"/>
<stop offset="1" stop-color="#12A66C" stop-opacity="0.4"/>
</radialGradient>
<radialGradient id="paint4_radial_1750_2754" cx="0" cy="0" r="1" gradientUnits="userSpaceOnUse" gradientTransform="translate(10 5.5) rotate(90) scale(6.5 52.5941)">
<stop stop-color="#16CA83"/>
<stop offset="1" stop-color="#12A66C" stop-opacity="0.4"/>
</radialGradient>
<radialGradient id="paint5_radial_1750_2754" cx="0" cy="0" r="1" gradientUnits="userSpaceOnUse" gradientTransform="translate(34 5.5) rotate(90) scale(6.5 52.5941)">
<stop stop-color="#16CA83"/>
<stop offset="1" stop-color="#12A66C" stop-opacity="0.4"/>
</radialGradient>
<radialGradient id="paint6_radial_1750_2754" cx="0" cy="0" r="1" gradientUnits="userSpaceOnUse" gradientTransform="translate(34 5.5) rotate(90) scale(6.5 52.5941)">
<stop stop-color="#16CA83"/>
<stop offset="1" stop-color="#12A66C" stop-opacity="0.4"/>
</radialGradient>
<radialGradient id="paint7_radial_1750_2754" cx="0" cy="0" r="1" gradientUnits="userSpaceOnUse" gradientTransform="translate(34 5.5) rotate(90) scale(6.5 52.5941)">
<stop stop-color="#16CA83"/>
<stop offset="1" stop-color="#12A66C" stop-opacity="0.4"/>
</radialGradient>
<radialGradient id="paint8_radial_1750_2754" cx="0" cy="0" r="1" gradientUnits="userSpaceOnUse" gradientTransform="translate(34 5.5) rotate(90) scale(6.5 52.5941)">
<stop stop-color="#16CA83"/>
<stop offset="1" stop-color="#12A66C" stop-opacity="0.4"/>
</radialGradient>
<radialGradient id="paint9_radial_1750_2754" cx="0" cy="0" r="1" gradientUnits="userSpaceOnUse" gradientTransform="translate(34 5.5) rotate(90) scale(6.5 52.5941)">
<stop stop-color="#16CA83"/>
<stop offset="1" stop-color="#12A66C" stop-opacity="0.4"/>
</radialGradient>
<radialGradient id="paint10_radial_1750_2754" cx="0" cy="0" r="1" gradientUnits="userSpaceOnUse" gradientTransform="translate(58 5.5) rotate(90) scale(6.5 48.4928)">
<stop stop-color="#474747"/>
<stop offset="1" stop-color="#474747" stop-opacity="0"/>
</radialGradient>
<radialGradient id="paint11_radial_1750_2754" cx="0" cy="0" r="1" gradientUnits="userSpaceOnUse" gradientTransform="translate(58 5.5) rotate(90) scale(6.5 48.4928)">
<stop stop-color="#474747"/>
<stop offset="1" stop-color="#474747" stop-opacity="0"/>
</radialGradient>
<radialGradient id="paint12_radial_1750_2754" cx="0" cy="0" r="1" gradientUnits="userSpaceOnUse" gradientTransform="translate(58 5.5) rotate(90) scale(6.5 48.4928)">
<stop stop-color="#474747"/>
<stop offset="1" stop-color="#474747" stop-opacity="0"/>
</radialGradient>
<radialGradient id="paint13_radial_1750_2754" cx="0" cy="0" r="1" gradientUnits="userSpaceOnUse" gradientTransform="translate(58 5.5) rotate(90) scale(6.5 48.4928)">
<stop stop-color="#474747"/>
<stop offset="1" stop-color="#474747" stop-opacity="0"/>
</radialGradient>
<radialGradient id="paint14_radial_1750_2754" cx="0" cy="0" r="1" gradientUnits="userSpaceOnUse" gradientTransform="translate(58 5.5) rotate(90) scale(6.5 48.4928)">
<stop stop-color="#474747"/>
<stop offset="1" stop-color="#474747" stop-opacity="0"/>
</radialGradient>
<radialGradient id="paint15_radial_1750_2754" cx="0" cy="0" r="1" gradientUnits="userSpaceOnUse" gradientTransform="translate(82 5.5) rotate(90) scale(6.5 48.4928)">
<stop stop-color="#474747"/>
<stop offset="1" stop-color="#474747" stop-opacity="0"/>
</radialGradient>
<radialGradient id="paint16_radial_1750_2754" cx="0" cy="0" r="1" gradientUnits="userSpaceOnUse" gradientTransform="translate(82 5.5) rotate(90) scale(6.5 48.4928)">
<stop stop-color="#474747"/>
<stop offset="1" stop-color="#474747" stop-opacity="0"/>
</radialGradient>
<radialGradient id="paint17_radial_1750_2754" cx="0" cy="0" r="1" gradientUnits="userSpaceOnUse" gradientTransform="translate(82 5.5) rotate(90) scale(6.5 48.4928)">
<stop stop-color="#474747"/>
<stop offset="1" stop-color="#474747" stop-opacity="0"/>
</radialGradient>
<radialGradient id="paint18_radial_1750_2754" cx="0" cy="0" r="1" gradientUnits="userSpaceOnUse" gradientTransform="translate(82 5.5) rotate(90) scale(6.5 48.4928)">
<stop stop-color="#474747"/>
<stop offset="1" stop-color="#474747" stop-opacity="0"/>
</radialGradient>
<radialGradient id="paint19_radial_1750_2754" cx="0" cy="0" r="1" gradientUnits="userSpaceOnUse" gradientTransform="translate(82 5.5) rotate(90) scale(6.5 48.4928)">
<stop stop-color="#474747"/>
<stop offset="1" stop-color="#474747" stop-opacity="0"/>
</radialGradient>
</defs>
</svg>
