<svg width="72" height="72" viewBox="0 0 72 72" fill="none" xmlns="http://www.w3.org/2000/svg">
<path fill-rule="evenodd" clip-rule="evenodd" d="M8 36C8 35.7239 8.3134 35.5 8.7 35.5H10.065C10.4516 35.5 10.765 35.7239 10.765 36C10.765 36.2761 10.4516 36.5 10.065 36.5H8.7C8.3134 36.5 8 36.2761 8 36ZM12.095 36C12.095 35.7239 12.4084 35.5 12.795 35.5H15.525C15.9116 35.5 16.225 35.7239 16.225 36C16.225 36.2761 15.9116 36.5 15.525 36.5H12.795C12.4084 36.5 12.095 36.2761 12.095 36ZM17.555 36C17.555 35.7239 17.8684 35.5 18.255 35.5H20.985C21.3716 35.5 21.685 35.7239 21.685 36C21.685 36.2761 21.3716 36.5 20.985 36.5H18.255C17.8684 36.5 17.555 36.2761 17.555 36ZM23.015 36C23.015 35.7239 23.3284 35.5 23.715 35.5H26.445C26.8316 35.5 27.145 35.7239 27.145 36C27.145 36.2761 26.8316 36.5 26.445 36.5H23.715C23.3284 36.5 23.015 36.2761 23.015 36ZM28.475 36C28.475 35.7239 28.7884 35.5 29.175 35.5H31.905C32.2916 35.5 32.605 35.7239 32.605 36C32.605 36.2761 32.2916 36.5 31.905 36.5H29.175C28.7884 36.5 28.475 36.2761 28.475 36ZM33.935 36C33.935 35.7239 34.2484 35.5 34.635 35.5H37.365C37.7516 35.5 38.065 35.7239 38.065 36C38.065 36.2761 37.7516 36.5 37.365 36.5H34.635C34.2484 36.5 33.935 36.2761 33.935 36ZM39.395 36C39.395 35.7239 39.7084 35.5 40.095 35.5H42.825C43.2116 35.5 43.525 35.7239 43.525 36C43.525 36.2761 43.2116 36.5 42.825 36.5H40.095C39.7084 36.5 39.395 36.2761 39.395 36ZM44.855 36C44.855 35.7239 45.1684 35.5 45.555 35.5H48.285C48.6716 35.5 48.985 35.7239 48.985 36C48.985 36.2761 48.6716 36.5 48.285 36.5H45.555C45.1684 36.5 44.855 36.2761 44.855 36ZM50.315 36C50.315 35.7239 50.6284 35.5 51.015 35.5H53.745C54.1316 35.5 54.445 35.7239 54.445 36C54.445 36.2761 54.1316 36.5 53.745 36.5H51.015C50.6284 36.5 50.315 36.2761 50.315 36ZM55.775 36C55.775 35.7239 56.0884 35.5 56.475 35.5H59.205C59.5916 35.5 59.905 35.7239 59.905 36C59.905 36.2761 59.5916 36.5 59.205 36.5H56.475C56.0884 36.5 55.775 36.2761 55.775 36ZM61.235 36C61.235 35.7239 61.5484 35.5 61.935 35.5H63.3C63.6866 35.5 64 35.7239 64 36C64 36.2761 63.6866 36.5 63.3 36.5H61.935C61.5484 36.5 61.235 36.2761 61.235 36Z" fill="#707070"/>
<path d="M27.1297 54L6.63037 35.5506L26.8552 26H30.498L9.40895 35.9587L29.4548 54H27.1297Z" fill="#F47B7B"/>
<path d="M30.4977 25.9998L62.7027 10.7919L61.7226 13.7322L63.1982 14.224L64.9996 8.81983L59.5954 7.01843L59.1036 8.49407L61.9305 9.43639L26.855 25.9998H30.4977Z" fill="#23E798"/>
<path d="M29.4545 53.9998L37.9958 61.687L37.5837 59.2143L39.118 58.9586L40.0466 64.5305H34.4622V62.9751H37.1018L27.1293 53.9998H29.4545Z" fill="#23E798"/>
<path fill-rule="evenodd" clip-rule="evenodd" d="M8 26.5C8 26.2239 8.3134 26 8.7 26H10.065C10.4516 26 10.765 26.2239 10.765 26.5C10.765 26.7761 10.4516 27 10.065 27H8.7C8.3134 27 8 26.7761 8 26.5ZM12.095 26.5C12.095 26.2239 12.4084 26 12.795 26H15.525C15.9116 26 16.225 26.2239 16.225 26.5C16.225 26.7761 15.9116 27 15.525 27H12.795C12.4084 27 12.095 26.7761 12.095 26.5ZM17.555 26.5C17.555 26.2239 17.8684 26 18.255 26H20.985C21.3716 26 21.685 26.2239 21.685 26.5C21.685 26.7761 21.3716 27 20.985 27H18.255C17.8684 27 17.555 26.7761 17.555 26.5ZM23.015 26.5C23.015 26.2239 23.3284 26 23.715 26H26.445C26.8316 26 27.145 26.2239 27.145 26.5C27.145 26.7761 26.8316 27 26.445 27H23.715C23.3284 27 23.015 26.7761 23.015 26.5ZM28.475 26.5C28.475 26.2239 28.7884 26 29.175 26H31.905C32.2916 26 32.605 26.2239 32.605 26.5C32.605 26.7761 32.2916 27 31.905 27H29.175C28.7884 27 28.475 26.7761 28.475 26.5ZM33.935 26.5C33.935 26.2239 34.2484 26 34.635 26L37.365 26C37.7516 26 38.065 26.2239 38.065 26.5C38.065 26.7761 37.7516 27 37.365 27H34.635C34.2484 27 33.935 26.7761 33.935 26.5ZM39.395 26.5C39.395 26.2239 39.7084 26 40.095 26H42.825C43.2116 26 43.525 26.2239 43.525 26.5C43.525 26.7761 43.2116 27 42.825 27H40.095C39.7084 27 39.395 26.7761 39.395 26.5ZM44.855 26.5C44.855 26.2239 45.1684 26 45.555 26H48.285C48.6716 26 48.985 26.2239 48.985 26.5C48.985 26.7761 48.6716 27 48.285 27H45.555C45.1684 27 44.855 26.7761 44.855 26.5ZM50.315 26.5C50.315 26.2239 50.6284 26 51.015 26H53.745C54.1316 26 54.445 26.2239 54.445 26.5C54.445 26.7761 54.1316 27 53.745 27H51.015C50.6284 27 50.315 26.7761 50.315 26.5ZM55.775 26.5C55.775 26.2239 56.0884 26 56.475 26H59.205C59.5916 26 59.905 26.2239 59.905 26.5C59.905 26.7761 59.5916 27 59.205 27H56.475C56.0884 27 55.775 26.7761 55.775 26.5ZM61.235 26.5C61.235 26.2239 61.5484 26 61.935 26H63.3C63.6866 26 64 26.2239 64 26.5C64 26.7761 63.6866 27 63.3 27H61.935C61.5484 27 61.235 26.7761 61.235 26.5Z" fill="#16CA83"/>
<path fill-rule="evenodd" clip-rule="evenodd" d="M8 53.5C8 53.2239 8.3134 53 8.7 53H10.065C10.4516 53 10.765 53.2239 10.765 53.5C10.765 53.7761 10.4516 54 10.065 54H8.7C8.3134 54 8 53.7761 8 53.5ZM12.095 53.5C12.095 53.2239 12.4084 53 12.795 53H15.525C15.9116 53 16.225 53.2239 16.225 53.5C16.225 53.7761 15.9116 54 15.525 54H12.795C12.4084 54 12.095 53.7761 12.095 53.5ZM17.555 53.5C17.555 53.2239 17.8684 53 18.255 53H20.985C21.3716 53 21.685 53.2239 21.685 53.5C21.685 53.7761 21.3716 54 20.985 54H18.255C17.8684 54 17.555 53.7761 17.555 53.5ZM23.015 53.5C23.015 53.2239 23.3284 53 23.715 53H26.445C26.8316 53 27.145 53.2239 27.145 53.5C27.145 53.7761 26.8316 54 26.445 54H23.715C23.3284 54 23.015 53.7761 23.015 53.5ZM28.475 53.5C28.475 53.2239 28.7884 53 29.175 53H31.905C32.2916 53 32.605 53.2239 32.605 53.5C32.605 53.7761 32.2916 54 31.905 54H29.175C28.7884 54 28.475 53.7761 28.475 53.5ZM33.935 53.5C33.935 53.2239 34.2484 53 34.635 53H37.365C37.7516 53 38.065 53.2239 38.065 53.5C38.065 53.7761 37.7516 54 37.365 54H34.635C34.2484 54 33.935 53.7761 33.935 53.5ZM39.395 53.5C39.395 53.2239 39.7084 53 40.095 53H42.825C43.2116 53 43.525 53.2239 43.525 53.5C43.525 53.7761 43.2116 54 42.825 54H40.095C39.7084 54 39.395 53.7761 39.395 53.5ZM44.855 53.5C44.855 53.2239 45.1684 53 45.555 53H48.285C48.6716 53 48.985 53.2239 48.985 53.5C48.985 53.7761 48.6716 54 48.285 54H45.555C45.1684 54 44.855 53.7761 44.855 53.5ZM50.315 53.5C50.315 53.2239 50.6284 53 51.015 53H53.745C54.1316 53 54.445 53.2239 54.445 53.5C54.445 53.7761 54.1316 54 53.745 54H51.015C50.6284 54 50.315 53.7761 50.315 53.5ZM55.775 53.5C55.775 53.2239 56.0884 53 56.475 53H59.205C59.5916 53 59.905 53.2239 59.905 53.5C59.905 53.7761 59.5916 54 59.205 54H56.475C56.0884 54 55.775 53.7761 55.775 53.5ZM61.235 53.5C61.235 53.2239 61.5484 53 61.935 53H63.3C63.6866 53 64 53.2239 64 53.5C64 53.7761 63.6866 54 63.3 54H61.935C61.5484 54 61.235 53.7761 61.235 53.5Z" fill="#E28D8D"/>
</svg>
