<svg width="80" height="80" viewBox="0 0 80 80" fill="none" xmlns="http://www.w3.org/2000/svg">
<path d="M18.7452 26.6231C30.4839 15.2335 49.5161 15.2335 61.2548 26.6231L62.6675 27.9939C63.2545 28.5634 63.2545 29.4867 62.6675 30.0562L57.8347 34.7453C57.5413 35.03 57.0655 35.03 56.772 34.7453L54.8279 32.8589C46.6387 24.9133 33.3613 24.9133 25.1721 32.8589L23.0901 34.879C22.7966 35.1638 22.3208 35.1638 22.0274 34.879L17.1946 30.19C16.6076 29.6205 16.6076 28.6972 17.1946 28.1277L18.7452 26.6231ZM71.2495 36.3207L75.5507 40.494C76.1376 41.0635 76.1376 41.9868 75.5507 42.5563L56.1563 61.3743C55.5693 61.9438 54.6177 61.9438 54.0308 61.3743C54.0308 61.3743 54.0308 61.3743 54.0308 61.3743L40.2658 48.0186C40.119 47.8762 39.8811 47.8762 39.7344 48.0186C39.7344 48.0186 39.7344 48.0186 39.7344 48.0186L25.9697 61.3743C25.3828 61.9438 24.4312 61.9438 23.8442 61.3743C23.8442 61.3743 23.8442 61.3743 23.8442 61.3743L4.44923 42.556C3.8623 41.9865 3.8623 41.0632 4.44923 40.4938L8.75045 36.3204C9.33738 35.751 10.289 35.751 10.8759 36.3204L24.6411 49.6763C24.7879 49.8187 25.0258 49.8187 25.1725 49.6763C25.1725 49.6763 25.1725 49.6763 25.1725 49.6763L38.937 36.3204C39.5239 35.751 40.4755 35.7509 41.0625 36.3204C41.0625 36.3204 41.0625 36.3204 41.0625 36.3204L54.8277 49.6763C54.9744 49.8187 55.2123 49.8187 55.359 49.6763L69.124 36.3207C69.7109 35.7512 70.6625 35.7512 71.2495 36.3207Z" fill="#3B99FC"/>
</svg>
