<svg width="48" height="48" viewBox="0 0 48 48" fill="none" xmlns="http://www.w3.org/2000/svg">
<path fill-rule="evenodd" clip-rule="evenodd" d="M24 48C37.2548 48 48 37.2548 48 24C48 10.7452 37.2548 0 24 0C10.7452 0 0 10.7452 0 24C0 37.2548 10.7452 48 24 48ZM39 13.4645L36.6055 15.5853C36.5049 15.6569 36.4271 15.7523 36.3804 15.8613C36.3336 15.9703 36.3196 16.0889 36.3398 16.2046V31.7954C36.2969 32.0295 36.4023 32.2707 36.6055 32.4147L38.9453 34.5355V35H27.1797V34.5355L29.6055 32.3643C29.8398 32.1447 29.8398 32.0763 29.8398 31.745V19.1463L23.0977 34.9604H22.1875L14.3477 19.1463V29.7466C14.3138 29.966 14.3353 30.1896 14.4105 30.4001C14.4857 30.6106 14.6126 30.8022 14.7812 30.9601L17.9297 34.4887V34.9532H9V34.4959L12.1523 30.9565C12.4883 30.636 12.6406 30.1859 12.5547 29.743V17.49C12.5898 17.1516 12.4492 16.8131 12.1758 16.5827L9.37891 13.4645V13H18.0742L24.7969 26.6249L30.707 13H39V13.4645Z" fill="#707070"/>
</svg>
