<svg width="24" height="28" viewBox="0 0 24 28" fill="none" xmlns="http://www.w3.org/2000/svg">
<path d="M12 24C18.6274 24 24 18.6274 24 12C24 5.37258 18.6274 0 12 0C5.37258 0 0 5.37258 0 12C0 18.6274 5.37258 24 12 24Z" fill="#2775CA"/>
<path d="M9.75 20.3438C9.75 20.625 9.525 20.7844 9.2625 20.7C5.625 19.5375 3 16.1438 3 12.1219C3 8.10938 5.625 4.70626 9.2625 3.54376C9.53438 3.45938 9.75 3.61876 9.75 3.90001V4.60313C9.75 4.79063 9.60938 5.00626 9.43125 5.07188C6.55312 6.13126 4.5 8.89688 4.5 12.1219C4.5 15.3563 6.55312 18.1125 9.43125 19.1625C9.60938 19.2281 9.75 19.4438 9.75 19.6313V20.3438Z" fill="white"/>
<path d="M12.75 17.7469C12.75 17.9531 12.5813 18.1219 12.375 18.1219H11.625C11.4188 18.1219 11.25 17.9531 11.25 17.7469V16.5656C9.60938 16.3406 8.8125 15.4313 8.59688 14.175C8.55938 13.9594 8.72813 13.7719 8.94375 13.7719H9.79688C9.975 13.7719 10.125 13.9031 10.1625 14.0719C10.3219 14.8125 10.7531 15.3844 12.0656 15.3844C13.0313 15.3844 13.725 14.8406 13.725 14.0344C13.725 13.2281 13.3219 12.9188 11.8969 12.6844C9.79688 12.4031 8.80313 11.7656 8.80313 10.125C8.80313 8.85938 9.76875 7.86563 11.25 7.65938V6.49689C11.25 6.29064 11.4188 6.12189 11.625 6.12189H12.375C12.5813 6.12189 12.75 6.29064 12.75 6.49689V7.68751C13.9594 7.90313 14.7281 8.58751 14.9813 9.73126C15.0281 9.94688 14.8594 10.1438 14.6344 10.1438H13.8469C13.6781 10.1438 13.5375 10.0313 13.4906 9.87188C13.275 9.15001 12.7594 8.83126 11.8594 8.83126C10.8656 8.83126 10.35 9.30938 10.35 9.98438C10.35 10.6969 10.6406 11.0531 12.1688 11.2688C14.2313 11.55 15.3 12.1406 15.3 13.8938C15.3 15.225 14.3063 16.3031 12.7594 16.5469V17.7469H12.75Z" fill="white"/>
<path d="M14.7375 20.7C14.4656 20.7844 14.25 20.625 14.25 20.3438V19.6406C14.25 19.4344 14.3719 19.2375 14.5687 19.1719C17.4375 18.1219 19.5 15.3562 19.5 12.1312C19.5 8.89687 17.4469 6.14062 14.5687 5.09062C14.3906 5.025 14.25 4.80937 14.25 4.62187V3.91875C14.25 3.6375 14.475 3.47812 14.7375 3.5625C18.375 4.70625 21 8.10937 21 12.1219C21 16.1437 18.375 19.5375 14.7375 20.7Z" fill="white"/>
</svg>
