<svg width="32" height="32" viewBox="0 0 32 32" fill="none" xmlns="http://www.w3.org/2000/svg">
<path d="M10 3C9.44772 3 9 3.44772 9 4V5C9 5.55228 9.44772 6 10 6C10.5523 6 11 5.55228 11 5V4C11 3.44772 10.5523 3 10 3Z" fill="#F5F5F5"/>
<path d="M22 3C21.4477 3 21 3.44772 21 4V5C21 5.55228 21.4477 6 22 6C22.5523 6 23 5.55228 23 5V4C23 3.44772 22.5523 3 22 3Z" fill="#F5F5F5"/>
<path d="M9 15V13H11V15H9Z" fill="#F5F5F5"/>
<path d="M13 13H15V15H13V13Z" fill="#F5F5F5"/>
<path d="M19 13H17V15H19V13Z" fill="#F5F5F5"/>
<path d="M21 15V13H23V15H21Z" fill="#F5F5F5"/>
<path d="M11 20V18H9V20H11Z" fill="#F5F5F5"/>
<path d="M13 18H15V20H13V18Z" fill="#F5F5F5"/>
<path d="M19 18H17V20H19V18Z" fill="#F5F5F5"/>
<path d="M21 20V18H23V20H21Z" fill="#F5F5F5"/>
<path fill-rule="evenodd" clip-rule="evenodd" d="M13 5H19C19 6.65685 20.3431 8 22 8C23.6569 8 25 6.65685 25 5C27.2091 5 29 6.79086 29 9V22C29 24.2091 27.2091 26 25 26H7C4.79086 26 3 24.2091 3 22V9C3 6.79086 4.79086 5 7 5C7 6.65685 8.34315 8 10 8C11.6569 8 13 6.65685 13 5ZM6 9C5.44772 9 5 9.44771 5 10V22C5 23.1046 5.89543 24 7 24H25C26.1046 24 27 23.1046 27 22V10C27 9.44772 26.5523 9 26 9H6Z" fill="#F5F5F5"/>
</svg>
