<svg width="48" height="48" viewBox="0 0 48 48" fill="none" xmlns="http://www.w3.org/2000/svg">
<rect x="16" y="16" width="16" height="32" fill="url(#paint0_linear)"/>
<rect x="32" y="24" width="16" height="24" fill="url(#paint1_linear)"/>
<rect y="24" width="16" height="24" fill="url(#paint2_linear)"/>
<rect x="19" y="5" width="2" height="11" fill="#A98A0F"/>
<path d="M32 5.5L19 0V11L32 5.5Z" fill="url(#paint3_linear)"/>
<rect y="24" width="16" height="2" fill="#C4C4C4"/>
<rect y="24" width="16" height="2" fill="url(#paint4_linear)"/>
<rect x="16" y="16" width="16" height="2" fill="url(#paint5_linear)"/>
<rect x="32" y="24" width="16" height="2" fill="#C4C4C4"/>
<rect x="32" y="24" width="16" height="2" fill="url(#paint6_linear)"/>
<rect x="5" y="29" width="2" height="14" fill="#C4C4C4"/>
<rect x="5" y="29" width="2" height="14" fill="#A98A0F"/>
<rect x="35" y="29" width="2" height="14" fill="#C4C4C4"/>
<rect x="35" y="29" width="2" height="14" fill="#A98A0F"/>
<rect x="9" y="29" width="2" height="14" fill="#C4C4C4"/>
<rect x="9" y="29" width="2" height="14" fill="#A98A0F"/>
<rect x="23" y="25" width="2" height="14" fill="#A98A0F"/>
<rect x="39" y="29" width="2" height="14" fill="#C4C4C4"/>
<rect x="39" y="29" width="2" height="14" fill="#A98A0F"/>
<rect x="43" y="29" width="2" height="14" fill="#C4C4C4"/>
<rect x="43" y="29" width="2" height="14" fill="#A98A0F"/>
<defs>
<linearGradient id="paint0_linear" x1="24" y1="16" x2="24" y2="48" gradientUnits="userSpaceOnUse">
<stop stop-color="#EFCC43"/>
<stop offset="1" stop-color="#EBC21E"/>
</linearGradient>
<linearGradient id="paint1_linear" x1="48" y1="36" x2="32" y2="36" gradientUnits="userSpaceOnUse">
<stop stop-color="#EFCC43"/>
<stop offset="1" stop-color="#A98A0F"/>
</linearGradient>
<linearGradient id="paint2_linear" x1="0" y1="36" x2="16" y2="36" gradientUnits="userSpaceOnUse">
<stop stop-color="#EFCC43"/>
<stop offset="1" stop-color="#A98A0F"/>
</linearGradient>
<linearGradient id="paint3_linear" x1="19" y1="5.5" x2="32" y2="5.5" gradientUnits="userSpaceOnUse">
<stop stop-color="#16CA83"/>
<stop offset="0.5" stop-color="#47EBA9"/>
<stop offset="1" stop-color="#16CA83"/>
</linearGradient>
<linearGradient id="paint4_linear" x1="0" y1="25" x2="16" y2="25" gradientUnits="userSpaceOnUse">
<stop stop-color="#A98A0F"/>
<stop offset="1" stop-color="#715C0A"/>
</linearGradient>
<linearGradient id="paint5_linear" x1="16" y1="17" x2="32" y2="17" gradientUnits="userSpaceOnUse">
<stop stop-color="#A8890F"/>
<stop offset="0.510417" stop-color="#CCA615"/>
<stop offset="1" stop-color="#A8890F"/>
</linearGradient>
<linearGradient id="paint6_linear" x1="32" y1="25" x2="48" y2="25" gradientUnits="userSpaceOnUse">
<stop stop-color="#715C0A"/>
<stop offset="1" stop-color="#A98A0F"/>
</linearGradient>
</defs>
</svg>
