<svg width="20" height="24" viewBox="0 0 20 24" fill="none" xmlns="http://www.w3.org/2000/svg">
<path d="M20 11C20 16.5228 15.5228 21 10 21C4.47715 21 0 16.5228 0 11C0 5.47715 4.47715 1 10 1C15.5228 1 20 5.47715 20 11Z" fill="#7347EB"/>
<path d="M18.4615 11C18.4615 9.51472 18.0706 8.05557 17.3279 6.76926C16.5853 5.48294 15.5171 4.41477 14.2308 3.67212L10 11H18.4615Z" fill="#F2D769"/>
<path d="M18.4615 11C18.4615 12.4853 18.0706 13.9445 17.3279 15.2308C16.5853 16.5171 15.5171 17.5853 14.2308 18.3279L10 11H18.4615Z" fill="#9D7FF1"/>
<path d="M14.2308 18.3279C12.9445 19.0706 11.4853 19.4615 10 19.4615C8.51469 19.4615 7.05554 19.0706 5.76923 18.3279L10 11L14.2308 18.3279Z" fill="#F2D769"/>
<path d="M5.76922 18.3279C4.4829 17.5853 3.41474 16.5171 2.67208 15.2308C1.92943 13.9445 1.53845 12.4853 1.53845 11L9.99999 11L5.76922 18.3279Z" fill="#9D7FF1"/>
<path d="M1.53845 11C1.53845 9.51472 1.92943 8.05557 2.67208 6.76926C3.41474 5.48294 4.48291 4.41477 5.76922 3.67212L9.99999 11L1.53845 11Z" fill="#F2D769"/>
<path d="M5.76923 3.67208C7.05554 2.92943 8.51468 2.53845 9.99999 2.53845C11.4853 2.53845 12.9444 2.92943 14.2308 3.67208L9.99999 11L5.76923 3.67208Z" fill="#9D7FF1"/>
<path d="M16.9231 11C16.9231 14.8235 13.8235 17.9231 10 17.9231C6.1765 17.9231 3.07693 14.8235 3.07693 11C3.07693 7.17647 6.1765 4.0769 10 4.0769C13.8235 4.0769 16.9231 7.17647 16.9231 11Z" fill="#7347EB"/>
<path d="M9.50713 14.8461V14C9.01768 13.9195 8.65334 13.7986 8.41412 13.6374C8.06766 13.4015 7.82706 13.0374 7.69232 12.5453L8.7977 11.9496C8.88295 12.1799 8.96681 12.354 9.0493 12.4719C9.14829 12.6158 9.27203 12.7194 9.42051 12.7827C9.57175 12.8432 9.7711 12.8734 10.0186 12.8734C10.6923 12.8734 11.0291 12.6676 11.0291 12.2561C11.0291 12.046 10.9191 11.8834 10.6991 11.7683C10.5671 11.6993 10.2454 11.5798 9.73398 11.41C9.21429 11.2403 8.81008 11.0259 8.52136 10.7669C8.18314 10.4647 8.01404 10.0791 8.01404 9.60999C8.01404 9.01142 8.26839 8.55529 8.77708 8.24161C8.97781 8.11787 9.22116 8.03009 9.50713 7.97829V7.15381H10.7362V8.01714C11.2999 8.18118 11.7385 8.52939 12.052 9.06178L11.0538 9.69633C10.9329 9.46611 10.7912 9.30207 10.629 9.20423C10.4668 9.10638 10.2523 9.05746 9.98558 9.05746C9.76285 9.05746 9.58687 9.10351 9.45763 9.19559C9.33115 9.28768 9.2679 9.41143 9.2679 9.56683C9.2679 9.76252 9.35727 9.91072 9.536 10.0114C9.63499 10.069 9.92233 10.174 10.398 10.3266C10.9672 10.5107 11.4154 10.7266 11.7426 10.9741C12.1194 11.2532 12.3077 11.6647 12.3077 12.2086C12.3077 12.5108 12.2486 12.7899 12.1304 13.0461C12.0121 13.2993 11.8499 13.4993 11.6437 13.6461C11.4319 13.7928 11.1295 13.9022 10.7362 13.9741V14.8461H9.50713Z" fill="#F2D769"/>
</svg>
