<svg width="44" height="44" viewBox="0 0 44 44" fill="none" xmlns="http://www.w3.org/2000/svg">
<path fill-rule="evenodd" clip-rule="evenodd" d="M29 19.2582V20V23H31V20V19.5074V19.25C31 18.625 31 18.3125 31.1562 18.1563C31.3125 18 31.625 18 32.25 18H32.5H33L33.5 18C33.7761 18 34 17.7761 34 17.5V16.5C34 16.2239 33.7761 16 33.5 16H33H32.2582L29 19.2582ZM27.5 25H27L26 25V27L27 27H29H29.5H30C30.75 27 31 26.75 31 26V25.7361V25V23H29V23.4926V23.75C29 24.375 29 24.6875 28.8438 24.8438C28.6875 25 28.375 25 27.75 25H27.5Z" fill="#12A56A"/>
<path fill-rule="evenodd" clip-rule="evenodd" d="M26 13.7729V12.9C26 12.45 25.5667 12 25.1333 12H13.8667C13.4333 12 13 12.45 13 12.9V26.7729L19.7729 20H16C15.4477 20 15 19.5523 15 19V15C15 14.4477 15.4477 14 16 14H23C23.5523 14 24 14.4477 24 15V15.7729L26 13.7729ZM16.2582 32H27V31C27 30.4477 26.5523 30 26 30V22.2582L16.2582 32Z" fill="#12A56A"/>
<path fill-rule="evenodd" clip-rule="evenodd" d="M44 22C44 34.1503 34.1503 44 22 44C9.84974 44 0 34.1503 0 22C0 9.84974 9.84974 0 22 0C34.1503 0 44 9.84974 44 22ZM41 22C41 32.4934 32.4934 41 22 41C17.3348 41 13.0623 39.3186 9.75544 36.5288L36.5288 9.75544C39.3186 13.0623 41 17.3348 41 22ZM7.62129 34.4203L34.4203 7.62129C31.0898 4.74179 26.7483 3 22 3C11.5066 3 3 11.5066 3 22C3 26.7483 4.74179 31.0898 7.62129 34.4203Z" fill="#16CA83"/>
</svg>
