<svg width="48" height="48" viewBox="0 0 48 48" fill="none" xmlns="http://www.w3.org/2000/svg">
<path fill-rule="evenodd" clip-rule="evenodd" d="M24 48C37.2548 48 48 37.2548 48 24C48 10.7452 37.2548 0 24 0C10.7452 0 0 10.7452 0 24C0 37.2548 10.7452 48 24 48ZM37.9945 16.7999C39.4065 16.653 40.7497 16.3279 42 15.8468L41.997 15.8507C41.061 17.0663 39.8831 18.1274 38.5185 18.9842C38.532 19.2443 38.5395 19.5069 38.5395 19.767C38.5395 27.7711 31.5242 37 18.6914 37C14.9005 37.0037 11.1887 36.0589 8 34.2786C8.55266 34.3351 9.10865 34.3633 9.66511 34.3632C12.8065 34.3672 15.8581 33.4535 18.3291 31.7692C16.8735 31.7461 15.4627 31.3282 14.2941 30.5742C13.1256 29.8203 12.2579 28.7678 11.8124 27.5644C12.8581 27.7374 13.9354 27.7018 14.9629 27.4603C13.384 27.1833 11.9641 26.4405 10.9442 25.3579C9.92421 24.2753 9.36702 22.9197 9.36713 21.521V21.443C10.3358 21.9105 11.419 22.1704 12.5266 22.201C11.5715 21.6471 10.7886 20.8972 10.2474 20.0176C9.70619 19.138 9.42336 18.156 9.42403 17.1588C9.42403 16.051 9.76843 15.0108 10.3674 14.1137C12.1191 15.9849 14.3044 17.5154 16.7814 18.6058C19.2584 19.6962 21.9718 20.3222 24.7454 20.4431C24.3944 19.1439 24.5471 17.7803 25.1799 16.5642C25.8128 15.348 26.8903 14.3473 28.2452 13.7174C29.6002 13.0875 31.1567 12.8637 32.6732 13.0806C34.1896 13.2975 35.5812 13.9432 36.6318 14.9172C38.1941 14.6509 39.6923 14.1539 41.0611 13.4479C40.5414 14.8515 39.4514 16.0429 37.9945 16.7999Z" fill="#707070"/>
</svg>
