<svg width="24" height="28" viewBox="0 0 24 28" fill="none" xmlns="http://www.w3.org/2000/svg">
<path d="M12.0065 2.64949C9.67639 2.64949 7.43063 3.52149 5.71106 5.09392L5.03671 4.43494C6.93351 2.68623 9.41893 1.71536 11.9988 1.71536C14.5787 1.71536 17.0641 2.68623 18.9609 4.43494L18.3019 5.09392C16.5824 3.52149 14.3366 2.64949 12.0065 2.64949Z" fill="#5A5564"/>
<path d="M18.9104 5.69578L19.5694 5.0368V5.02142C21.3181 6.91822 22.2889 9.40364 22.2889 11.9835C22.2889 14.5634 21.3181 17.0488 19.5694 18.9456L18.9104 18.2867C20.4828 16.5671 21.3548 14.3213 21.3548 11.9912C21.3548 9.6611 20.4828 7.41534 18.9104 5.69578Z" fill="#5A5564"/>
<path d="M5.0938 18.2932C3.52323 16.5741 2.65238 14.3297 2.65238 12.0011C2.65238 9.67252 3.52323 7.42813 5.0938 5.70895L4.43482 5.04997C2.68611 6.94677 1.71524 9.43219 1.71524 12.0121C1.71524 14.592 2.68611 17.0774 4.43482 18.9742L5.0938 18.2932Z" fill="#5A5564"/>
<path d="M11.9977 21.3461C14.3278 21.3461 16.5736 20.4741 18.2932 18.9017L18.9675 19.5607C17.0707 21.3094 14.5853 22.2803 12.0054 22.2803C9.42552 22.2803 6.9401 21.3094 5.0433 19.5607L5.70228 18.9017C7.42184 20.4741 9.66761 21.3461 11.9977 21.3461Z" fill="#5A5564"/>
<path d="M16.1603 9.80119C16.0285 8.42613 14.8424 7.96484 13.3421 7.82426V5.93079H12.1823V7.78911C11.877 7.78911 11.5651 7.78911 11.2553 7.78911V5.93079H10.1043V7.83744H7.75177V9.07851C7.75177 9.07851 8.60845 9.06314 8.59527 9.07851C8.74973 9.06152 8.90476 9.10515 9.02769 9.20022C9.15061 9.29528 9.23184 9.43435 9.25424 9.58812V14.8072C9.25094 14.8615 9.2368 14.9145 9.21266 14.9632C9.18851 15.0118 9.15485 15.0552 9.11366 15.0906C9.07325 15.1267 9.02595 15.1543 8.97462 15.1716C8.92328 15.189 8.86896 15.1958 8.81493 15.1916C8.8303 15.2048 7.97143 15.1916 7.97143 15.1916L7.75177 16.5777H10.0824V18.5151H11.2422V16.6062H12.1691V18.5063H13.3311V16.5909C15.2905 16.4723 16.6568 15.989 16.8281 14.1548C16.9665 12.6787 16.2724 12.0198 15.1631 11.754C15.8374 11.4223 16.2548 10.8072 16.1603 9.80119ZM14.5349 13.9264C14.5349 15.3674 12.0659 15.2026 11.2795 15.2026V12.6458C12.0659 12.648 14.5349 12.4217 14.5349 13.9264ZM13.9967 10.324C13.9967 11.6419 11.9363 11.4816 11.2817 11.4816V9.15759C11.9363 9.15759 13.9967 8.95111 13.9967 10.324Z" fill="#F09242"/>
<path d="M11.9978 24C9.62459 23.9995 7.30482 23.2954 5.33177 21.9767C3.35872 20.658 1.82099 18.7838 0.913007 16.5912C0.0050275 14.3985 -0.232427 11.9859 0.230665 9.65836C0.693758 7.33079 1.8366 5.1928 3.5147 3.5147C5.1928 1.8366 7.33079 0.693759 9.65836 0.230666C11.9859 -0.232426 14.3985 0.00502845 16.5912 0.913008C18.7838 1.82099 20.658 3.35872 21.9767 5.33177C23.2954 7.30482 23.9995 9.6246 24 11.9978C24.0003 13.574 23.69 15.1349 23.087 16.5912C22.4839 18.0475 21.5998 19.3707 20.4853 20.4853C19.3707 21.5998 18.0475 22.4839 16.5912 23.087C15.1349 23.69 13.574 24.0003 11.9978 24ZM11.9978 0.935732C9.81135 0.937469 7.6745 1.58736 5.85733 2.80325C4.04016 4.01914 2.62424 5.74646 1.78853 7.76688C0.952815 9.7873 0.734834 12.0101 1.16213 14.1544C1.58943 16.2987 2.64283 18.2681 4.18918 19.8139C5.73553 21.3596 7.70542 22.4122 9.84986 22.8387C11.9943 23.2651 14.217 23.0463 16.2371 22.2098C18.2572 21.3732 19.984 19.9566 21.1991 18.139C22.4143 16.3213 23.0634 14.1842 23.0642 11.9978C23.0648 10.5446 22.7789 9.10548 22.2229 7.76282C21.6669 6.42016 20.8518 5.20027 19.824 4.17289C18.7962 3.14551 17.576 2.3308 16.2331 1.77534C14.8902 1.21989 13.451 0.934577 11.9978 0.935732Z" fill="#282138"/>
</svg>
