<svg width="44" height="44" viewBox="0 0 44 44" fill="none" xmlns="http://www.w3.org/2000/svg">
<path fill-rule="evenodd" clip-rule="evenodd" d="M24.7729 15H11V28.7729L24.7729 15ZM19.2582 29H33V15.2582L19.2582 29Z" fill="#12A56A"/>
<path fill-rule="evenodd" clip-rule="evenodd" d="M22.7729 17H14H13V18V26V26.7729L14 25.7729V20C15.1046 20 16 19.1046 16 18H21.7729L22.7729 17ZM22.2582 26H28C28 24.8954 28.8954 24 30 24V18.2582L31 17.2582V18V26V27H30H21.2582L22.2582 26Z" fill="#16CA83"/>
<path fill-rule="evenodd" clip-rule="evenodd" d="M44 22C44 34.1503 34.1503 44 22 44C9.84974 44 0 34.1503 0 22C0 9.84974 9.84974 0 22 0C34.1503 0 44 9.84974 44 22ZM41 22C41 32.4934 32.4934 41 22 41C17.3348 41 13.0623 39.3186 9.75544 36.5288L36.5288 9.75544C39.3186 13.0623 41 17.3348 41 22ZM7.62129 34.4203L34.4203 7.62129C31.0898 4.74179 26.7483 3 22 3C11.5066 3 3 11.5066 3 22C3 26.7483 4.74179 31.0898 7.62129 34.4203Z" fill="#16CA83"/>
</svg>
