<svg width="16" height="24" viewBox="0 0 16 24" fill="none" xmlns="http://www.w3.org/2000/svg">
<path fill-rule="evenodd" clip-rule="evenodd" d="M14.5 11C14.5 14.5899 11.5899 17.5 8 17.5C4.41015 17.5 1.5 14.5899 1.5 11C1.5 7.41015 4.41015 4.5 8 4.5C11.5899 4.5 14.5 7.41015 14.5 11ZM16 11C16 15.4183 12.4183 19 8 19C3.58172 19 0 15.4183 0 11C0 6.58172 3.58172 3 8 3C12.4183 3 16 6.58172 16 11ZM11.2 10.4H9.6H8.6V9.4V7.8C8.6 7.35817 8.24183 7 7.8 7C7.35817 7 7 7.35817 7 7.8V11C7 11.5523 7.44772 12 8 12H11.2C11.6418 12 12 11.6418 12 11.2C12 10.7582 11.6418 10.4 11.2 10.4Z" fill="#CBCDCC"/>
</svg>
