<svg width="16" height="24" viewBox="0 0 16 24" fill="none" xmlns="http://www.w3.org/2000/svg">
<path fill-rule="evenodd" clip-rule="evenodd" d="M8 18C12.2466 16.18 15 12.0044 15 7.38423V4L8 3L1 4V7.38423C1 12.0044 3.75339 16.18 8 18ZM2 4.8673V7.38423C2 11.4598 4.34558 15.1566 8 16.9024C11.6544 15.1566 14 11.4598 14 7.38423V4.8673L8 4.01015L2 4.8673Z" fill="#707070"/>
<path fill-rule="evenodd" clip-rule="evenodd" d="M5.2002 9C6.02862 9 6.7002 8.32843 6.7002 7.5C6.7002 6.67157 6.02862 6 5.2002 6C4.37177 6 3.7002 6.67157 3.7002 7.5C3.7002 8.32843 4.37177 9 5.2002 9ZM5.2002 8C5.47634 8 5.7002 7.77614 5.7002 7.5C5.7002 7.22386 5.47634 7 5.2002 7C4.92405 7 4.7002 7.22386 4.7002 7.5C4.7002 7.77614 4.92405 8 5.2002 8Z" fill="#707070"/>
<path fill-rule="evenodd" clip-rule="evenodd" d="M10.2002 13C11.0286 13 11.7002 12.3284 11.7002 11.5C11.7002 10.6716 11.0286 10 10.2002 10C9.37177 10 8.7002 10.6716 8.7002 11.5C8.7002 12.3284 9.37177 13 10.2002 13ZM10.2002 12C10.4763 12 10.7002 11.7761 10.7002 11.5C10.7002 11.2239 10.4763 11 10.2002 11C9.92405 11 9.7002 11.2239 9.7002 11.5C9.7002 11.7761 9.92405 12 10.2002 12Z" fill="#707070"/>
<path d="M4.84664 12.2965C5.0419 12.4917 5.35849 12.4917 5.55375 12.2965L10.5035 7.34672C10.6988 7.15146 10.6988 6.83488 10.5035 6.63962C10.3082 6.44435 9.99165 6.44435 9.79639 6.63962L4.84664 11.5894C4.65138 11.7846 4.65138 12.1012 4.84664 12.2965Z" fill="#707070"/>
</svg>
