<svg width="48" height="48" viewBox="0 0 48 48" fill="none" xmlns="http://www.w3.org/2000/svg">
<g clip-path="url(#clip0)">
<mask id="mask0" mask-type="alpha" maskUnits="userSpaceOnUse" x="2" y="0" width="44" height="48">
<path d="M4.1523 40.7582C18.0645 53.1886 34.9288 46.8427 41.622 42.1159H38.7535C40.9048 41.06 45.351 37.4998 45.9247 31.707C46.4984 25.9142 43.6538 21.6501 42.1598 20.2421C42.5781 21.097 42.6976 22.9575 39.8291 23.5609C36.9607 24.1643 37.1997 19.1861 37.6778 16.6216C37.6778 8 30 0.0276806 21.7218 0.0276806C21.662 -0.173458 21.7577 0.631096 22.6182 5.45842C23.9626 13 17.4191 11.1909 17.4191 11.1909C17.4191 11.1909 13.1163 18 13.1163 25.3711C8.23989 28.3882 7.02079 23.41 7.02079 20.5438C-4.99101 33.819 8.27576 39.7023 8.63432 41.3617C8.92117 42.6892 5.76583 41.5125 4.1523 40.7582Z" fill="#12A56A"/>
<path d="M9 17V13.1667C10.1799 12.1755 11.7677 8.62875 11.7283 8.06271C11.7163 8.02144 11.7092 8 11.7092 8C11.72 8.01262 11.7262 8.03377 11.7283 8.06271C11.8962 8.64093 13.023 13.1109 9 17Z" fill="#12A56A"/>
</mask>
<g mask="url(#mask0)">
<path d="M4.1523 40.7582C18.0645 53.1886 34.9288 46.8427 41.622 42.1159H38.7535C40.9048 41.06 45.351 37.4998 45.9247 31.707C46.4984 25.9142 43.6538 21.6501 42.1598 20.2421C42.5781 21.097 42.6976 22.9575 39.8291 23.5609C36.9607 24.1643 37.1997 19.1861 37.6778 16.6216C37.6778 8 29 0.0276806 21.7218 0.0276806C21.662 -0.173458 21.7577 0.631096 22.6182 5.45842C23.9626 13 17.4191 11.1909 17.4191 11.1909C17.4191 11.1909 13.1163 18 13.1163 25.3711C8.23989 28.3882 7.02079 23.41 7.02079 20.5438C-4.99101 33.819 8.27576 39.7023 8.63432 41.3617C8.92117 42.6892 5.76583 41.5125 4.1523 40.7582Z" fill="#12A56A"/>
<path d="M4.1523 40.7582C18.0645 53.1886 34.9288 46.8427 41.622 42.1159H38.7535C40.9048 41.06 45.351 37.4998 45.9247 31.707C46.4984 25.9142 43.6538 21.6501 42.1598 20.2421C42.5781 21.097 42.6976 22.9575 39.8291 23.5609C36.9607 24.1643 37.1997 19.1861 37.6778 16.6216C37.6778 8 29 0.0276806 21.7218 0.0276806C21.662 -0.173458 21.7577 0.631096 22.6182 5.45842C23.9626 13 17.4191 11.1909 17.4191 11.1909C17.4191 11.1909 13.1163 18 13.1163 25.3711C8.23989 28.3882 7.02079 23.41 7.02079 20.5438C-4.99101 33.819 8.27576 39.7023 8.63432 41.3617C8.92117 42.6892 5.76583 41.5125 4.1523 40.7582Z" fill="url(#paint0_linear)"/>
<path d="M9 17V13.1667C10.1799 12.1755 11.7677 8.62875 11.7283 8.06271C11.7163 8.02144 11.7092 8 11.7092 8C11.72 8.01262 11.7262 8.03377 11.7283 8.06271C11.8962 8.64093 13.023 13.1109 9 17Z" fill="#12A56A"/>
<path d="M9 17V13.1667C10.1799 12.1755 11.7677 8.62875 11.7283 8.06271C11.7163 8.02144 11.7092 8 11.7092 8C11.72 8.01262 11.7262 8.03377 11.7283 8.06271C11.8962 8.64093 13.023 13.1109 9 17Z" fill="url(#paint1_linear)"/>
<path d="M10.1289 33.5063C8.91053 40.0863 16.6271 46.1865 20.6377 48.4141C20.3331 49.7421 21.4601 51.4728 28.405 47.7715C35.35 44.0703 37.6954 40.0606 38 38.5184C35.0758 39.3409 35.0555 37.6616 35.4109 36.7192C36.6293 35.2798 36.4262 32.8637 36.1724 31.8356C30.6896 33.6862 30.5373 29.4366 31.1465 27.0805C31.7557 20.5005 27.542 16.2852 25.359 15C25.8464 17.4675 24.4452 19.2839 23.6837 19.8836C17.5917 26.8234 18.9624 26.8234 17.5917 32.3496C16.4951 36.7706 12.1596 34.9628 10.1289 33.5063Z" fill="#16CA83"/>
<path d="M10.1289 33.5063C8.91053 40.0863 16.6271 46.1865 20.6377 48.4141C20.3331 49.7421 21.4601 51.4728 28.405 47.7715C35.35 44.0703 37.6954 40.0606 38 38.5184C35.0758 39.3409 35.0555 37.6616 35.4109 36.7192C36.6293 35.2798 36.4262 32.8637 36.1724 31.8356C30.6896 33.6862 30.5373 29.4366 31.1465 27.0805C31.7557 20.5005 27.542 16.2852 25.359 15C25.8464 17.4675 24.4452 19.2839 23.6837 19.8836C17.5917 26.8234 18.9624 26.8234 17.5917 32.3496C16.4951 36.7706 12.1596 34.9628 10.1289 33.5063Z" fill="url(#paint2_linear)"/>
<path d="M16.0329 39.4097C15.527 43.2091 20.9864 47.8839 23.7793 49.7463C23.7793 50.212 24.5381 50.361 27.5735 47.232C30.6088 44.1031 31.7892 40.7134 32 39.4097C30.3559 39.4097 30.3664 37.4541 30.5772 36.4763C24.2536 36.0293 25.2021 29.3059 26.4668 26C22.5146 29.0731 20.3013 33.6826 19.3528 37.0351C18.5939 39.717 16.8233 39.7356 16.0329 39.4097Z" fill="#47EBA9"/>
<path d="M16.0329 39.4097C15.527 43.2091 20.9864 47.8839 23.7793 49.7463C23.7793 50.212 24.5381 50.361 27.5735 47.232C30.6088 44.1031 31.7892 40.7134 32 39.4097C30.3559 39.4097 30.3664 37.4541 30.5772 36.4763C24.2536 36.0293 25.2021 29.3059 26.4668 26C22.5146 29.0731 20.3013 33.6826 19.3528 37.0351C18.5939 39.717 16.8233 39.7356 16.0329 39.4097Z" fill="url(#paint3_linear)"/>
</g>
</g>
<defs>
<linearGradient id="paint0_linear" x1="24" y1="0" x2="24" y2="48" gradientUnits="userSpaceOnUse">
<stop stop-color="#23E798"/>
<stop offset="1" stop-color="#10935F"/>
</linearGradient>
<linearGradient id="paint1_linear" x1="24" y1="0" x2="24" y2="48" gradientUnits="userSpaceOnUse">
<stop stop-color="#23E798"/>
<stop offset="1" stop-color="#10935F"/>
</linearGradient>
<linearGradient id="paint2_linear" x1="24" y1="15" x2="24" y2="50" gradientUnits="userSpaceOnUse">
<stop stop-color="#23E798"/>
<stop offset="1" stop-color="#12A56A"/>
</linearGradient>
<linearGradient id="paint3_linear" x1="24" y1="26" x2="24" y2="50" gradientUnits="userSpaceOnUse">
<stop stop-color="#35E9A0"/>
<stop offset="1" stop-color="#18DC8F"/>
</linearGradient>
<clipPath id="clip0">
<rect width="48" height="48" fill="white"/>
</clipPath>
</defs>
</svg>
