<svg width="28" height="28" viewBox="0 0 28 28" fill="none" xmlns="http://www.w3.org/2000/svg">
<path opacity="0.8" fill-rule="evenodd" clip-rule="evenodd" d="M23 8H2V7H23V8Z" fill="#23E798"/>
<path opacity="0.8" fill-rule="evenodd" clip-rule="evenodd" d="M23 19H2V18H23V19Z" fill="#F47B7B"/>
<path d="M2 10.6584V15.3416L6.24962 17H9.00033L3 14.6584V11.3416L9.00038 9H6.24967L2 10.6584Z" fill="#F47B7B"/>
<path d="M16.6878 6L21.9719 3.93789L21.5527 4.7764L22.4471 5.22362L23.6707 2.7764L21.2235 1.5528L20.7763 2.44722L21.7691 2.94361L13.9371 6H16.6878Z" fill="#23E798"/>
<path d="M16.6877 20L21.9719 22.0621L21.5527 21.2236L22.4471 20.7764L23.6707 23.2236L21.2235 24.4472L20.7763 23.5528L21.7691 23.0564L13.937 20H16.6877Z" fill="#23E798"/>
</svg>
