<svg width="28" height="28" viewBox="0 0 28 28" fill="none" xmlns="http://www.w3.org/2000/svg">
<path fill-rule="evenodd" clip-rule="evenodd" d="M23 9H2V8H23V9Z" fill="#22BF80"/>
<path fill-rule="evenodd" clip-rule="evenodd" d="M23 18H2V17H23V18Z" fill="#C96969"/>
<path d="M12.4558 6.99998H14.5441L19.1275 4.49998H21.7929L20.6464 5.64642L21.3535 6.35353L23.7071 3.99998L21.3535 1.64642L20.6464 2.35353L21.7929 3.49998H18.8725L12.4558 6.99998Z" fill="#F47B7B"/>
<path d="M19.1275 21.5L14.5441 19H12.4558L18.8725 22.5H21.7929L20.6464 23.6464L21.3535 24.3536L23.7071 22L21.3535 19.6464L20.6464 20.3536L21.7929 21.5H19.1275Z" fill="#F47B7B"/>
<path d="M6.95581 16L1.45581 13L6.95581 10H9.04414L3.54414 13L9.04414 16H6.95581Z" fill="#23E798"/>
</svg>
