<svg width="96" height="42" viewBox="0 0 96 42" fill="none" xmlns="http://www.w3.org/2000/svg">
<path fill-rule="evenodd" clip-rule="evenodd" d="M93 30C93 32.7601 90.7636 34.9978 88.004 35C91.4208 35.0009 94.4038 36.2073 96 38C96 38 96 38 96 38H80C80 38 80 38 80 38C81.5959 36.2076 84.578 35.0014 87.994 35C85.2353 34.9967 83 32.7594 83 30C83 27.2386 85.2386 25 88 25C90.7614 25 93 27.2386 93 30Z" fill="#12A56A"/>
<path fill-rule="evenodd" clip-rule="evenodd" d="M13 30C13 32.7601 10.7636 34.9978 8.00404 35C11.4208 35.0009 14.4038 36.2073 16 38C16 38 16 38 16 38H1.65588e-05C1.10392e-05 38 5.51958e-06 38 0 38C1.59594 36.2076 4.57804 35.0014 7.99399 35C5.23533 34.9967 3 32.7594 3 30C3 27.2386 5.23857 25 7.99999 25C10.7614 25 13 27.2386 13 30Z" fill="#12A56A"/>
<path fill-rule="evenodd" clip-rule="evenodd" d="M32 28C32 31.3137 29.3137 34 26 34C22.6863 34 20 31.3137 20 28C20 24.6863 22.6863 22 26 22C29.3137 22 32 24.6863 32 28ZM26 34C21.7269 34 17.9961 35.6088 16 38H36C34.0039 35.6088 30.2731 34 26 34Z" fill="#16CA83"/>
<path fill-rule="evenodd" clip-rule="evenodd" d="M55.5 24.5C55.5 28.6421 52.1421 32 48 32C43.8579 32 40.5 28.6421 40.5 24.5C40.5 20.3579 43.8579 17 48 17C52.1421 17 55.5 20.3579 55.5 24.5ZM60 38C57.6047 34.4132 53.1277 32 48 32C42.8723 32 38.3953 34.4132 36 38H60Z" fill="#23E798"/>
<path fill-rule="evenodd" clip-rule="evenodd" d="M76 28C76 31.3137 73.3137 34 70 34C66.6863 34 64 31.3137 64 28C64 24.6863 66.6863 22 70 22C73.3137 22 76 24.6863 76 28ZM70 34C65.7269 34 61.9961 35.6088 60 38H80C78.0039 35.6088 74.2731 34 70 34Z" fill="#16CA83"/>
<path d="M12 0L13.3471 4.1459H17.7063L14.1796 6.7082L15.5267 10.8541L12 8.2918L8.47329 10.8541L9.82037 6.7082L6.29366 4.1459H10.6529L12 0Z" fill="#EBC21E"/>
<path d="M30 0L31.3471 4.1459H35.7063L32.1796 6.7082L33.5267 10.8541L30 8.2918L26.4733 10.8541L27.8204 6.7082L24.2937 4.1459H28.6529L30 0Z" fill="#EFCC43"/>
<path d="M48 0L49.3471 4.1459H53.7063L50.1796 6.7082L51.5267 10.8541L48 8.2918L44.4733 10.8541L45.8204 6.7082L42.2937 4.1459H46.6529L48 0Z" fill="#F2D769"/>
<path d="M66 0L67.3471 4.1459H71.7063L68.1796 6.7082L69.5267 10.8541L66 8.2918L62.4733 10.8541L63.8204 6.7082L60.2937 4.1459H64.6529L66 0Z" fill="#EFCC43"/>
<path d="M84 0L85.3471 4.1459H89.7063L86.1796 6.7082L87.5267 10.8541L84 8.2918L80.4733 10.8541L81.8204 6.7082L78.2937 4.1459H82.6529L84 0Z" fill="#EBC21E"/>
</svg>
