<svg width="800" height="800" viewBox="0 0 800 800" fill="none" xmlns="http://www.w3.org/2000/svg">
<path d="M0 0H800V800H0V0Z" fill="#E30A17"/>
<path d="M453.667 400L634.573 341.227L522.76 495.107V304.893L634.573 458.773L453.667 400ZM466 506.947C442.829 543.563 408.392 571.664 367.872 587.02C327.353 602.376 282.941 604.157 241.322 592.095C199.703 580.032 163.126 554.779 137.098 520.136C111.069 485.492 96.9958 443.332 96.9958 400C96.9958 356.668 111.069 314.508 137.098 279.864C163.126 245.221 199.703 219.968 241.322 207.905C282.941 195.843 327.353 197.624 367.872 212.98C408.392 228.336 442.829 256.437 466 293.053C444.362 268.975 415.929 252.028 384.457 244.448C352.985 236.868 319.954 239.013 289.727 250.6C259.5 262.186 233.498 282.669 215.156 309.343C196.814 336.018 186.994 367.628 186.994 400C186.994 432.372 196.814 463.982 215.156 490.657C233.498 517.331 259.5 537.814 289.727 549.4C319.954 560.987 352.985 563.132 384.457 555.552C415.929 547.972 444.362 531.025 466 506.947V506.947Z" fill="white"/>
</svg>
