<svg width="24" height="24" viewBox="0 0 24 24" fill="none" xmlns="http://www.w3.org/2000/svg">
<path d="M12 6.30002L22.8 13.2883L12 20.2765L1.20001 13.2883L12 6.30002Z" fill="#B9A3F5"/>
<path d="M12 7.88824L20.2589 13.2882L12 18.6882L3.74121 13.2882L12 7.88824Z" fill="#815AED"/>
<path d="M12 7.88824L20.2589 13.2882L12 18.6882L3.74121 13.2882L12 7.88824Z" fill="#7347EB"/>
<path d="M3.74121 14.9326V17.1L12 22.5L20.2589 17.1V14.9326L12 20.2765L3.74121 14.9326Z" fill="#815AED"/>
<path d="M12 7.88824L20.2589 13.2882L12 18.6882L3.74121 13.2882L12 7.88824Z" fill="#6535E9"/>
<path d="M19.5301 13.7647L12 18.6882L4.46991 13.7647L12 8.84119L19.5301 13.7647Z" fill="#EFCC43"/>
<path opacity="0.48" d="M9.29999 14.4H14.7V15.6H9.29999V14.4Z" fill="#967B0D"/>
<rect x="11.4" y="5.70001" width="1.2" height="5.7" fill="#7347EB"/>
<path d="M9.90002 12.48C9.90002 11.8835 10.3701 11.4 10.95 11.4L13.05 11.4C13.6299 11.4 14.1 11.8835 14.1 12.48L14.1 15L13.05 15L12 15L10.95 15L9.90002 15L9.90002 12.48Z" fill="#E3DAFB"/>
<path d="M10.95 12.12L13.05 12.12C13.2433 12.12 13.4 12.2812 13.4 12.48V15H14.1V12.48C14.1 11.8835 13.6299 11.4 13.05 11.4H10.95C10.3701 11.4 9.90002 11.8835 9.90002 12.48V15H10.6V12.48C10.6 12.2812 10.7567 12.12 10.95 12.12Z" fill="#8F6CEF"/>
<path fill-rule="evenodd" clip-rule="evenodd" d="M10.3984 3.18001C10.2811 3.18001 10.2009 3.30862 10.2445 3.42686L10.6007 4.39371C10.651 4.53038 10.7729 4.62001 10.9085 4.62001H13.0915C13.2271 4.62001 13.349 4.53038 13.3993 4.39371L13.7555 3.42686C13.7991 3.30862 13.7189 3.18001 13.6016 3.18001H10.3984ZM9.66379 2.10001C9.19464 2.10001 8.87385 2.61447 9.04808 3.08741L9.84385 5.24741C9.94455 5.52076 10.1884 5.70001 10.4596 5.70001H13.5404C13.8116 5.70001 14.0554 5.52076 14.1562 5.24741L14.9519 3.08741C15.1262 2.61446 14.8054 2.10001 14.3362 2.10001H9.66379Z" fill="#8F6CEF"/>
<rect opacity="0.4" x="9.90002" y="14.4" width="4.2" height="0.599999" fill="#6535E9"/>
</svg>
