<svg width="9" height="24" viewBox="0 0 9 24" fill="none" xmlns="http://www.w3.org/2000/svg">
<path d="M4 9C4 8.72386 4.22386 8.5 4.5 8.5C4.77614 8.5 5 8.72386 5 9V11C4.44772 11 4 10.5523 4 10V9Z" fill="#A98A0F"/>
<path d="M6 10C6.27614 10 6.5 10.2239 6.5 10.5C6.5 10.7761 6.27614 11 6 11H5C4.44772 11 4 10.5523 4 10H6Z" fill="#A98A0F"/>
<path fill-rule="evenodd" clip-rule="evenodd" d="M4.5 14C6.433 14 8 12.433 8 10.5C8 8.567 6.433 7 4.5 7C2.567 7 1 8.567 1 10.5C1 12.433 2.567 14 4.5 14ZM4.5 15C6.98528 15 9 12.9853 9 10.5C9 8.01472 6.98528 6 4.5 6C2.01472 6 0 8.01472 0 10.5C0 12.9853 2.01472 15 4.5 15Z" fill="#A98A0F"/>
</svg>
